<?xml version="1.0" encoding="utf-8"?>
<!-- Generator: Adobe Illustrator 27.5.0, SVG Export Plug-In . SVG Version: 6.00 Build 0)  -->
<svg version="1.1" xmlns="http://www.w3.org/2000/svg" xmlns:xlink="http://www.w3.org/1999/xlink" x="0px" y="0px"
	 viewBox="0 0 3710 3710" style="enable-background:new 0 0 3710 3710;" xml:space="preserve">
<g id="Background">
	<g>
		<g>
			<rect style="fill:#FFFFFF;" width="3710" height="3710"/>
		</g>
	</g>
</g>
<g id="Illustration">
	<g>
		<path style="fill:#F4F7FA;" d="M1041.513,631.76c-96.325,140.416,16.618,368.063-126.311,473.667
			c-139.131,102.798-310.049-65.701-441.171,22.786c-194.512,131.266-158.991,731.916,125.396,1105.112
			c85.525,112.233,156.986,155.901,188.636,282.831c67.961,272.551-170.889,434.681-125.436,569.48
			c102.343,303.518,1676.31,558.206,2307.855-353.967c294.958-426.023,339.09-1041.203,75.554-1508.435
			C2569.832,378.952,1257.649,316.693,1041.513,631.76z"/>
		<g>
			<g>
				<g>
					<defs>
						<path id="SVGID_1_" d="M1714.522,3117.629c-55.698-169.73-112.387-428.846-46.023-716.525
							c76.206-330.334,245.014-396.425,396.582-749.528c216.357-504.045-28.506-869.16,195.473-1023.215
							c109.227-75.125,280.983-75.186,386.877,0.237c302.121,215.188,219.298,1152.496-260.049,1518.258
							c-216.793,165.424-405.971,145.8-568.657,359.862C1674.972,2695.868,1686.245,2945.404,1714.522,3117.629z"/>
					</defs>
					
						<linearGradient id="SVGID_00000160175695136014804950000000773258242346754985_" gradientUnits="userSpaceOnUse" x1="1638.5262" y1="1844.826" x2="2824.5762" y2="1844.826">
						<stop  offset="0" style="stop-color:#AA80F9"/>
						<stop  offset="0.9964" style="stop-color:#6165D7"/>
					</linearGradient>
					
						<use xlink:href="#SVGID_1_"  style="overflow:visible;fill:url(#SVGID_00000160175695136014804950000000773258242346754985_);"/>
					<clipPath id="SVGID_00000018951789900672757640000006049929944085539978_">
						<use xlink:href="#SVGID_1_"  style="overflow:visible;"/>
					</clipPath>
					<g style="clip-path:url(#SVGID_00000018951789900672757640000006049929944085539978_);">
						<path style="fill:#FFFFFF;" d="M1679.542,2690.319l-3.419-0.87c18.228-71.64,42.738-142.03,72.839-209.213
							c69.231-154.527,145.527-239.403,242.124-346.862c62.799-69.859,133.976-149.04,216.189-262.512
							c153.781-212.247,201.49-286.771,244.149-406.668c84.454-237.381,71.485-450.22,56.238-555.964
							c-21.631-150.004-71.961-292.75-149.59-424.271l3.043-1.795c77.862,131.92,128.343,275.1,150.042,425.562
							c15.292,106.066,28.302,319.554-56.409,557.651c-42.803,120.315-90.598,194.984-244.615,407.555
							c-82.323,113.621-153.565,192.876-216.422,262.801c-96.388,107.229-172.523,191.924-241.528,345.945
							C1722.164,2548.678,1697.723,2618.875,1679.542,2690.319z"/>
						<path style="fill:#FFFFFF;" d="M2497.948,1295.785l-0.051-2.906c-3.098-174.988-114.908-288.248-208.161-352.447
							c-101.206-69.675-203.022-98.248-204.039-98.529l0.939-3.403c1.021,0.282,103.33,28.981,205.019,98.967
							c93.445,64.311,205.382,177.545,209.71,352.385c15.104-8.758,94.6-57.286,166.04-147.269
							c72.794-91.684,151.886-246.428,115.295-462.958l3.481-0.589c36.82,217.876-42.813,373.589-116.097,465.851
							c-79.386,99.938-168.689,149.027-169.58,149.511L2497.948,1295.785z"/>
						<path style="fill:#FFFFFF;" d="M2470.262,1857.513c-17.879,0-34.747-0.882-50.354-2.309
							c-98.122-8.969-168.412-40.793-169.111-41.114l-1.346-0.618l0.377-1.434c45.051-171.777,5.945-298.347-34.795-374.278
							c-44.159-82.307-99.708-124.541-100.264-124.957l2.118-2.825c0.562,0.421,56.638,43.025,101.175,125.961
							c40.973,76.297,80.322,203.31,35.559,375.54c10.176,4.418,76.632,32.005,166.732,40.222
							c89.933,8.199,222.532-1.781,343.46-95.901l2.166,2.786C2665.095,1837.108,2556.173,1857.513,2470.262,1857.513z"/>
						<path style="fill:#FFFFFF;" d="M2268.121,2185.563c-52.325,0-95.33-7.279-128.583-16.333
							c-82.134-22.363-124.262-60.166-124.677-60.545l-0.936-0.852l0.507-1.158c76.173-174.487-30.06-459.923-31.143-462.786
							l3.303-1.249c1.083,2.87,107.343,288.348,31.592,464.256c6.616,5.615,47.833,38.701,122.508,58.991
							c75.155,20.415,200.527,31.681,371.053-30.619l1.213,3.315C2416.8,2173.713,2334.878,2185.563,2268.121,2185.563z"/>
					</g>
				</g>
			</g>
			<g>
				<g>
					<defs>
						<path id="SVGID_00000018928730284971422800000006239184322546742971_" d="M1568.76,3109.28
							c-18.022-109.008-28.381-279.25,60.349-431.498c154.797-265.609,436.951-177.502,707.022-462.066
							c217.825-229.511,149.179-407.892,390.545-560.421c40.401-25.531,253.871-166.028,412.617-81.404
							c89.456,47.684,121.867,145.579,127.951,163.957c91.958,277.751-190.954,712.611-559.702,911.502
							c-211.861,114.271-280.214,76.926-653.04,210.199C1835.426,2937.861,1670.938,3038.702,1568.76,3109.28z"/>
					</defs>
					
						<linearGradient id="SVGID_00000178175645134784060490000013198237057964325799_" gradientUnits="userSpaceOnUse" x1="3151.7959" y1="5657.4736" x2="3045.8313" y2="5189.9814">
						<stop  offset="0.0036" style="stop-color:#E38DDD"/>
						<stop  offset="1" style="stop-color:#9571F6"/>
					</linearGradient>
					
						<use xlink:href="#SVGID_00000018928730284971422800000006239184322546742971_"  style="overflow:visible;fill:url(#SVGID_00000178175645134784060490000013198237057964325799_);"/>
					<clipPath id="SVGID_00000129194023978665161700000008538447028782991240_">
						<use xlink:href="#SVGID_00000018928730284971422800000006239184322546742971_"  style="overflow:visible;"/>
					</clipPath>
					<g style="clip-path:url(#SVGID_00000129194023978665161700000008538447028782991240_);">
						<path style="fill:#FFFFFF;" d="M1536.682,3240.344l-3.454-0.719c54.23-260.485,157.077-435.489,305.691-520.15
							c72.736-41.437,130.656-47.992,191.982-54.932c66-7.469,134.247-15.193,224.341-69.675
							c87.562-52.95,118.951-103.93,158.694-168.472c35.724-58.019,80.181-130.226,179.972-226.404
							c87.462-84.3,151.156-123.754,207.349-158.564c60.905-37.726,109.008-67.524,164.714-140.524
							c90.978-119.214,138.53-272.074,141.329-454.333l3.529,0.055c-2.813,183.029-50.604,336.592-142.052,456.419
							c-56.101,73.516-104.448,103.466-165.66,141.384c-56.046,34.717-119.568,74.065-206.763,158.105
							c-99.465,95.867-143.793,167.862-179.414,225.712c-39.99,64.949-71.578,116.25-159.87,169.642
							c-90.759,54.882-159.396,62.65-225.773,70.163c-60.956,6.898-118.526,13.414-190.632,54.491
							C1692.971,2806.68,1590.696,2980.894,1536.682,3240.344z"/>
						<path style="fill:#FFFFFF;" d="M2800.424,2060.278c-7.518,0-15.076-0.114-22.741-0.347l-2.361-0.072l0.74-2.244
							c1.196-3.637,118.201-365.417-15.114-515.005l2.638-2.349c38.886,43.635,80.688,134.016,58.999,316.783
							c-11.821,99.597-37.793,184.683-42.453,199.427c198.475,5.405,345.982-69.666,434.935-133.767
							c96.748-69.721,146.887-141.74,147.384-142.458l2.906,2.001c-0.497,0.725-50.989,73.246-148.227,143.321
							C3130.819,1987.768,2989.576,2060.278,2800.424,2060.278z"/>
						<path style="fill:#FFFFFF;" d="M2814.969,2368.413c-30.547,0-58.948-1.585-84.722-4.067
							c-138.547-13.341-232.516-54.74-233.448-55.156l-1.385-0.618l0.401-1.463c52.098-188.624,6.14-456.983,5.671-459.672
							l3.474-0.608c0.473,2.69,46.322,270.438-5.335,459.738c12.126,5.149,102.224,41.889,231.094,54.279
							c127.312,12.241,319.609,2.534,512.68-113.215l1.816,3.027C3090.357,2343.497,2935.987,2368.413,2814.969,2368.413z"/>
						<path style="fill:#FFFFFF;" d="M2650.646,2808.35c-355.25,0-559.242-146.942-561.311-148.466l-1.497-1.102l1.178-1.439
							c143.224-174.838,87.442-463.741,86.863-466.638l3.461-0.694c0.147,0.729,14.552,73.935,10.958,167.892
							c-3.303,86.336-22.906,208.289-97.355,300.209c19.801,13.772,230.782,154.033,585.618,146.406l0.075,3.529
							C2669.224,2808.251,2659.856,2808.35,2650.646,2808.35z"/>
					</g>
				</g>
			</g>
			<g>
				<defs>
					<path id="SVGID_00000142146449584001515290000010633650225493270936_" d="M1595.653,3059.418
						c70.065-50.356,184.747-123.238,339.001-177.922c274.366-97.266,400.101-39.883,516.25-155.875
						c120.228-120.065,42.354-238.323,186.297-372.401c12.104-11.272,166.658-151.515,306.48-99.293
						c97.815,36.533,135.9,147.646,153.771,199.779c69.356,202.338,29.029,510.645-186.833,662.717
						c-204.655,144.178-463.763,75.465-546.027,53.066c-144.319-39.296-178.522-95.546-325.238-131.118
						C1860.932,2995.112,1700.563,3027.158,1595.653,3059.418z"/>
				</defs>
				
					<linearGradient id="SVGID_00000070825211702658976200000014677748580783499443_" gradientUnits="userSpaceOnUse" x1="1595.6533" y1="2723.9375" x2="3128.5137" y2="2723.9375">
					<stop  offset="0" style="stop-color:#FF9085"/>
					<stop  offset="1" style="stop-color:#FB6FBB"/>
				</linearGradient>
				
					<use xlink:href="#SVGID_00000142146449584001515290000010633650225493270936_"  style="overflow:visible;fill:url(#SVGID_00000070825211702658976200000014677748580783499443_);"/>
				<clipPath id="SVGID_00000078730701894973198730000001425636721726557626_">
					<use xlink:href="#SVGID_00000142146449584001515290000010633650225493270936_"  style="overflow:visible;"/>
				</clipPath>
				<g style="clip-path:url(#SVGID_00000078730701894973198730000001425636721726557626_);">
					<defs>
						<path id="SVGID_00000027595604099829065600000005611632045011836305_" d="M1537.778,3104.505l-2.083-2.849
							c170.574-124.815,337.09-183.632,495.003-174.788c69.015,3.863,117.461,19.228,164.313,34.087
							c58.653,18.601,114.055,36.165,205.982,32.335c165.41-6.905,306.561-63.044,397.45-158.074
							c140.76-147.175,171.92-394.037,79.383-628.913l3.282-1.293c93.044,236.152,61.596,484.48-80.116,632.646
							c-91.523,95.693-233.527,152.218-399.852,159.162c-92.527,3.859-148.24-13.798-207.198-32.498
							c-46.64-14.792-94.874-30.089-163.443-33.927C1873.501,2921.615,1707.68,2980.182,1537.778,3104.505z"/>
					</defs>
					<defs>
						<path id="SVGID_00000069364696901783923130000009451267493297779123_" d="M2866.465,2741.867l0.202-2.708
							c10.615-141.015-74.271-247.964-147.353-312.852c-79.301-70.415-162.151-107.859-162.977-108.229l1.439-3.222
							c0.833,0.372,84.177,38.041,163.885,108.812c73.202,64.998,158.156,171.907,148.723,313.01
							c12.972-4.95,73.366-29.193,134.672-73.466c63.396-45.782,140.774-122.979,149.409-230.757l3.515,0.281
							c-4.824,60.248-34.925,149.643-150.93,233.389c-69.248,49.993-137.348,74.587-138.03,74.83L2866.465,2741.867z"/>
					</defs>
					<defs>
						<path id="SVGID_00000132085001186974096740000001287655973697074360_" d="M2813.798,3062.479
							c-40.542,0-76.399-4.108-106.911-9.957c-113.051-21.672-179.143-71.314-179.798-71.813l-1.371-1.045l1.011-1.396
							c82.542-113.803,68.847-238.5,42.823-323.068c-28.251-91.808-76.717-157.505-77.204-158.158l2.83-2.109
							c0.49,0.657,49.275,66.764,77.718,159.128c26.178,85.01,39.993,210.226-42.279,324.853
							c10.032,7.168,73.798,50.408,177.128,70.178c103.632,19.83,269.429,19.423,470.703-95.118l1.747,3.068
							C3037.1,3038.475,2911.786,3062.479,2813.798,3062.479z"/>
					</defs>
					<use xlink:href="#SVGID_00000027595604099829065600000005611632045011836305_"  style="overflow:visible;fill:#FFFFFF;"/>
					<use xlink:href="#SVGID_00000069364696901783923130000009451267493297779123_"  style="overflow:visible;fill:#FFFFFF;"/>
					<use xlink:href="#SVGID_00000132085001186974096740000001287655973697074360_"  style="overflow:visible;fill:#FFFFFF;"/>
					<clipPath id="SVGID_00000057836772487820738530000000503337287901855906_">
						<use xlink:href="#SVGID_00000027595604099829065600000005611632045011836305_"  style="overflow:visible;"/>
					</clipPath>
					
						<clipPath id="SVGID_00000146489355275608152710000013401568428874303370_" style="clip-path:url(#SVGID_00000057836772487820738530000000503337287901855906_);">
						<use xlink:href="#SVGID_00000069364696901783923130000009451267493297779123_"  style="overflow:visible;"/>
					</clipPath>
					
						<clipPath id="SVGID_00000116234793687576369350000009105792798927774392_" style="clip-path:url(#SVGID_00000146489355275608152710000013401568428874303370_);">
						<use xlink:href="#SVGID_00000132085001186974096740000001287655973697074360_"  style="overflow:visible;"/>
					</clipPath>
				</g>
			</g>
		</g>
		<g>
			<g>
				<g>
					
						<linearGradient id="SVGID_00000042712646553819134830000012289030224445076865_" gradientUnits="userSpaceOnUse" x1="2126.7324" y1="2804.0972" x2="992.331" y2="1836.4006">
						<stop  offset="0" style="stop-color:#444B8C"/>
						<stop  offset="0.9964" style="stop-color:#26264F"/>
					</linearGradient>
					<path style="fill:url(#SVGID_00000042712646553819134830000012289030224445076865_);" d="M1850.079,788.558v2370.611
						c0,35.451-30.287,43.08-64.629,44.203l-1177.114,60.876l-17.833,0.583c-36.592,1.197-66.581-27.834-66.581-64.515V747.411
						c0-36.682,29.989-65.713,66.581-64.516l24.201,0.792l1181.423,91.887C1830.469,776.698,1850.079,753.107,1850.079,788.558z"/>
					
						<linearGradient id="SVGID_00000121994186735030149910000007735637020087580340_" gradientUnits="userSpaceOnUse" x1="-1408.0098" y1="2568.4722" x2="2772.2644" y2="2723.9746" gradientTransform="matrix(0 -1 1 0 -1389.0323 1734.3226)">
						<stop  offset="0" style="stop-color:#444B8C"/>
						<stop  offset="0.9964" style="stop-color:#26264F"/>
					</linearGradient>
					<path style="fill:url(#SVGID_00000121994186735030149910000007735637020087580340_);" d="M1886.75,788.558v2370.611
						c0,35.451-28.053,65.374-62.396,66.498l-1197.18,39.165c-36.592,1.197-66.581-27.834-66.581-64.515V747.411
						c0-36.682,29.989-65.713,66.581-64.516l1197.18,39.165C1858.697,723.184,1886.75,753.107,1886.75,788.558z"/>
					
						<linearGradient id="SVGID_00000008838371267175338970000008024929686151028623_" gradientUnits="userSpaceOnUse" x1="1580.5258" y1="1521.9927" x2="175.3828" y2="3411.3037">
						<stop  offset="0" style="stop-color:#FFC444"/>
						<stop  offset="0.9964" style="stop-color:#F36F56"/>
					</linearGradient>
					<path style="fill:url(#SVGID_00000008838371267175338970000008024929686151028623_);" d="M1848.002,918.881v2196.091
						c0,33.098-26.216,61.001-58.307,62.01l-1125.728,35.363c-34.063,1.07-61.976-26.016-61.976-60.192V884.506
						c0-34.176,27.914-61.325,61.976-60.332l1125.728,32.828C1821.786,857.938,1848.002,885.783,1848.002,918.881z"/>
				</g>
				<path style="fill:#DE8BDF;" d="M1257.216,776.26c0,12.491-9.95,22.317-22.232,21.945c-12.289-0.372-22.257-10.811-22.257-23.317
					c0-12.506,9.968-22.33,22.257-21.944C1247.265,753.33,1257.216,763.769,1257.216,776.26z"/>
			</g>
			<g>
				<path style="fill:#FFFFFF;" d="M1756.308,1545.891c-0.014,0-0.027,0-0.038,0l-21.052-0.156
					c-2.909-0.021-5.246-2.395-5.225-5.302c0.021-2.894,2.375-5.224,5.263-5.224c0.014,0,0.024,0,0.038,0l15.751,0.116v-15.75
					c0-2.906,2.357-5.263,5.263-5.263c2.906,0,5.263,2.356,5.263,5.263v21.052c0,1.402-0.558,2.747-1.556,3.736
					C1759.028,1545.342,1757.696,1545.891,1756.308,1545.891z"/>
				<path style="fill:#FFFFFF;" d="M1694.632,1545.434c-0.014,0-0.024,0-0.038,0l-40.627-0.301
					c-2.909-0.021-5.246-2.395-5.225-5.302c0.021-2.894,2.374-5.224,5.263-5.224c0.014,0,0.024,0,0.038,0l40.627,0.301
					c2.909,0.021,5.246,2.395,5.225,5.302C1699.875,1543.104,1697.521,1545.434,1694.632,1545.434z M1613.382,1544.833
					c-0.014,0-0.024,0-0.038,0l-40.627-0.301c-2.909-0.021-5.246-2.395-5.225-5.302c0.021-2.894,2.375-5.224,5.263-5.224
					c0.014,0,0.024,0,0.038,0l40.627,0.301c2.909,0.021,5.246,2.395,5.225,5.301
					C1618.624,1542.502,1616.27,1544.833,1613.382,1544.833z M1532.128,1544.233c-0.014,0-0.024,0-0.038,0l-40.624-0.301
					c-2.909-0.021-5.246-2.395-5.225-5.302c0.021-2.894,2.375-5.224,5.263-5.224c0.014,0,0.024,0,0.038,0l40.624,0.301
					c2.909,0.021,5.246,2.395,5.225,5.302C1537.37,1541.902,1535.016,1544.233,1532.128,1544.233z M1450.878,1543.631
					c-0.014,0-0.024,0-0.038,0l-40.627-0.301c-2.909-0.021-5.246-2.395-5.225-5.302c0.021-2.894,2.375-5.224,5.263-5.224
					c0.014,0,0.024,0,0.038,0l40.627,0.301c2.909,0.021,5.246,2.395,5.225,5.302
					C1456.12,1541.301,1453.766,1543.631,1450.878,1543.631z M1369.627,1543.03c-0.014,0-0.027,0-0.038,0l-40.627-0.301
					c-2.909-0.021-5.246-2.395-5.225-5.302c0.021-2.893,2.375-5.224,5.263-5.224c0.014,0,0.024,0,0.038,0l40.627,0.301
					c2.909,0.021,5.246,2.395,5.225,5.301C1374.87,1540.699,1372.516,1543.03,1369.627,1543.03z M1288.373,1542.429
					c-0.014,0-0.024,0-0.038,0l-40.627-0.3c-2.909-0.021-5.246-2.395-5.225-5.302c0.021-2.894,2.375-5.224,5.263-5.224
					c0.014,0,0.024,0,0.038,0l40.627,0.3c2.909,0.021,5.246,2.395,5.225,5.302
					C1293.616,1540.098,1291.262,1542.429,1288.373,1542.429z M1207.123,1541.828c-0.014,0-0.024,0-0.038,0l-40.627-0.301
					c-2.909-0.021-5.246-2.395-5.225-5.302c0.021-2.893,2.375-5.224,5.263-5.224c0.014,0,0.024,0,0.038,0l40.627,0.301
					c2.909,0.021,5.246,2.395,5.225,5.302C1212.365,1539.497,1210.011,1541.828,1207.123,1541.828z M1125.869,1541.227
					c-0.014,0-0.024,0-0.038,0l-40.623-0.301c-2.909-0.021-5.246-2.395-5.225-5.301c0.021-2.894,2.375-5.224,5.263-5.224
					c0.014,0,0.024,0,0.038,0l40.624,0.301c2.909,0.021,5.246,2.395,5.225,5.302
					C1131.111,1538.896,1128.757,1541.227,1125.869,1541.227z M1044.618,1540.625c-0.014,0-0.024,0-0.038,0l-40.627-0.3
					c-2.909-0.021-5.246-2.395-5.225-5.302c0.021-2.894,2.375-5.224,5.263-5.224c0.014,0,0.024,0,0.038,0l40.627,0.3
					c2.909,0.021,5.246,2.395,5.225,5.302C1049.861,1538.295,1047.507,1540.625,1044.618,1540.625z M963.368,1540.025
					c-0.014,0-0.024,0-0.038,0l-40.627-0.301c-2.909-0.021-5.246-2.395-5.225-5.302c0.02-2.894,2.374-5.224,5.263-5.224
					c0.014,0,0.024,0,0.038,0l40.627,0.301c2.909,0.021,5.246,2.395,5.225,5.302C968.61,1537.694,966.256,1540.025,963.368,1540.025
					z M882.114,1539.424c-0.014,0-0.024,0-0.038,0l-40.623-0.301c-2.909-0.021-5.246-2.395-5.225-5.302
					c0.021-2.894,2.375-5.224,5.263-5.224c0.014,0,0.027,0,0.038,0l40.623,0.301c2.909,0.021,5.246,2.395,5.225,5.302
					C887.356,1537.093,885.003,1539.424,882.114,1539.424z M800.864,1538.822c-0.014,0-0.024,0-0.038,0l-40.627-0.301
					c-2.909-0.021-5.246-2.395-5.225-5.302c0.021-2.894,2.375-5.224,5.263-5.224c0.014,0,0.024,0,0.038,0l40.627,0.301
					c2.909,0.021,5.246,2.395,5.225,5.302C806.106,1536.492,803.752,1538.822,800.864,1538.822z"/>
				<path style="fill:#FFFFFF;" d="M719.61,1538.221c-0.014,0-0.024,0-0.038,0l-21.048-0.155c-2.892-0.021-5.225-2.371-5.225-5.263
					v-21.052c0-2.906,2.357-5.263,5.263-5.263c2.906,0,5.263,2.357,5.263,5.263v15.827l15.823,0.116
					c2.909,0.021,5.246,2.395,5.225,5.302C724.852,1535.89,722.498,1538.221,719.61,1538.221z"/>
				<path style="fill:#FFFFFF;" d="M698.561,1476.069c-2.906,0-5.263-2.357-5.263-5.263v-40.945c0-2.906,2.357-5.263,5.263-5.263
					c2.906,0,5.263,2.356,5.263,5.263v40.945C703.824,1473.713,701.467,1476.069,698.561,1476.069z M698.561,1394.18
					c-2.906,0-5.263-2.357-5.263-5.263v-40.945c0-2.906,2.357-5.263,5.263-5.263c2.906,0,5.263,2.356,5.263,5.263v40.945
					C703.824,1391.823,701.467,1394.18,698.561,1394.18z M698.561,1312.29c-2.906,0-5.263-2.356-5.263-5.263v-40.945
					c0-2.906,2.357-5.263,5.263-5.263c2.906,0,5.263,2.356,5.263,5.263v40.945C703.824,1309.934,701.467,1312.29,698.561,1312.29z
					 M698.561,1230.401c-2.906,0-5.263-2.356-5.263-5.263v-40.945c0-2.906,2.357-5.263,5.263-5.263c2.906,0,5.263,2.357,5.263,5.263
					v40.945C703.824,1228.044,701.467,1230.401,698.561,1230.401z M698.561,1148.511c-2.906,0-5.263-2.356-5.263-5.263v-40.945
					c0-2.906,2.357-5.263,5.263-5.263c2.906,0,5.263,2.357,5.263,5.263v40.945C703.824,1146.155,701.467,1148.511,698.561,1148.511z
					 M698.561,1066.622c-2.906,0-5.263-2.356-5.263-5.263v-40.945c0-2.907,2.357-5.263,5.263-5.263c2.906,0,5.263,2.356,5.263,5.263
					v40.945C703.824,1064.266,701.467,1066.622,698.561,1066.622z"/>
				<path style="fill:#FFFFFF;" d="M698.561,984.732c-2.906,0-5.263-2.357-5.263-5.263v-21.052c0-1.413,0.569-2.767,1.576-3.757
					c1.011-0.99,2.316-1.523,3.79-1.505l21.045,0.406c2.906,0.056,5.215,2.458,5.16,5.364c-0.055,2.906-2.607,5.188-5.366,5.161
					l-15.679-0.303v15.687C703.824,982.376,701.467,984.732,698.561,984.732z"/>
				<path style="fill:#FFFFFF;" d="M1694.639,982.905c-0.034,0-0.068,0-0.106-0.001l-40.627-0.784
					c-2.906-0.056-5.215-2.458-5.16-5.364c0.055-2.872,2.402-5.161,5.26-5.161c0.038,0,0.072,0,0.106,0.001l40.627,0.784
					c2.906,0.056,5.215,2.458,5.16,5.364C1699.844,980.615,1697.497,982.905,1694.639,982.905z M1613.385,981.337
					c-0.034,0-0.072,0-0.106-0.001l-40.627-0.784c-2.906-0.056-5.215-2.458-5.16-5.364c0.055-2.871,2.402-5.161,5.26-5.161
					c0.034,0,0.068,0,0.106,0.001l40.627,0.784c2.906,0.056,5.215,2.458,5.16,5.364
					C1618.59,979.047,1616.243,981.337,1613.385,981.337z M1532.135,979.769c-0.034,0-0.068,0-0.106-0.001l-40.627-0.784
					c-2.906-0.056-5.215-2.458-5.16-5.364c0.055-2.871,2.402-5.161,5.26-5.161c0.034,0,0.068,0,0.106,0.001l40.627,0.784
					c2.906,0.056,5.215,2.458,5.16,5.364C1537.34,977.479,1534.993,979.769,1532.135,979.769z M1450.881,978.2
					c-0.038,0-0.072,0-0.106-0.001l-40.627-0.784c-2.906-0.056-5.215-2.458-5.16-5.364c0.055-2.871,2.402-5.161,5.26-5.161
					c0.034,0,0.068,0,0.106,0.001l40.627,0.784c2.906,0.056,5.215,2.458,5.16,5.364C1456.086,975.911,1453.739,978.2,1450.881,978.2
					z M1369.627,976.632c-0.034,0-0.068,0-0.106-0.001l-40.623-0.784c-2.906-0.056-5.215-2.458-5.16-5.364
					c0.055-2.871,2.402-5.161,5.26-5.161c0.034,0,0.069,0,0.106,0.001l40.623,0.784c2.906,0.056,5.215,2.458,5.16,5.364
					C1374.832,974.342,1372.485,976.632,1369.627,976.632z M1288.377,975.064c-0.034,0-0.068,0-0.106-0.001l-40.627-0.784
					c-2.906-0.056-5.215-2.458-5.16-5.364c0.055-2.906,2.344-5.2,5.366-5.161l40.627,0.784c2.906,0.056,5.215,2.458,5.16,5.364
					C1293.581,972.774,1291.234,975.064,1288.377,975.064z M1207.123,973.495c-0.034,0-0.068,0-0.106-0.001l-40.624-0.784
					c-2.906-0.056-5.215-2.458-5.16-5.364c0.055-2.872,2.402-5.161,5.26-5.161c0.038,0,0.072,0,0.106,0.001l40.623,0.784
					c2.906,0.056,5.215,2.458,5.16,5.364C1212.328,971.205,1209.98,973.495,1207.123,973.495z M1125.872,971.927
					c-0.034,0-0.069,0-0.106-0.001l-40.627-0.784c-2.906-0.056-5.215-2.458-5.16-5.364c0.055-2.906,2.323-5.208,5.366-5.161
					l40.627,0.784c2.906,0.056,5.215,2.458,5.16,5.364C1131.077,969.637,1128.73,971.927,1125.872,971.927z M1044.618,970.359
					c-0.034,0-0.072,0-0.106-0.001l-40.623-0.784c-2.906-0.056-5.215-2.458-5.16-5.364c0.055-2.871,2.402-5.161,5.26-5.161
					c0.038,0,0.072,0,0.106,0.001l40.623,0.784c2.906,0.056,5.215,2.458,5.16,5.364
					C1049.823,968.069,1047.476,970.359,1044.618,970.359z M963.368,968.791c-0.034,0-0.069,0-0.106-0.001l-40.627-0.784
					c-2.906-0.056-5.215-2.458-5.16-5.364c0.055-2.906,2.303-5.217,5.366-5.161l40.627,0.784c2.906,0.056,5.215,2.458,5.16,5.364
					C968.573,966.501,966.226,968.791,963.368,968.791z M882.114,967.223c-0.034,0-0.072,0-0.106-0.001l-40.624-0.784
					c-2.906-0.056-5.215-2.458-5.16-5.364c0.055-2.906,2.58-5.203,5.366-5.161l40.624,0.784c2.906,0.056,5.215,2.458,5.16,5.364
					C887.319,964.932,884.972,967.223,882.114,967.223z M800.864,965.654c-0.038,0-0.072,0-0.106-0.001l-40.627-0.784
					c-2.906-0.056-5.215-2.458-5.16-5.364c0.055-2.906,2.282-5.189,5.366-5.161l40.627,0.784c2.906,0.056,5.215,2.458,5.16,5.364
					C806.068,963.365,803.721,965.654,800.864,965.654z"/>
				<path style="fill:#FFFFFF;" d="M1756.308,1005.147c-2.906,0-5.263-2.357-5.263-5.263v-15.89l-15.885-0.306
					c-2.906-0.056-5.215-2.458-5.16-5.364c0.055-2.906,2.398-5.21,5.366-5.161l21.045,0.406c2.865,0.055,5.16,2.395,5.16,5.262
					v21.052C1761.571,1002.79,1759.213,1005.147,1756.308,1005.147z"/>
				<path style="fill:#FFFFFF;" d="M1756.308,1484.863c-2.906,0-5.263-2.357-5.263-5.263v-39.977c0-2.906,2.357-5.263,5.263-5.263
					c2.906,0,5.263,2.357,5.263,5.263v39.977C1761.571,1482.507,1759.213,1484.863,1756.308,1484.863z M1756.308,1404.911
					c-2.906,0-5.263-2.357-5.263-5.263v-39.977c0-2.906,2.357-5.263,5.263-5.263c2.906,0,5.263,2.356,5.263,5.263v39.977
					C1761.571,1402.554,1759.213,1404.911,1756.308,1404.911z M1756.308,1324.958c-2.906,0-5.263-2.356-5.263-5.263v-39.976
					c0-2.906,2.357-5.263,5.263-5.263c2.906,0,5.263,2.356,5.263,5.263v39.976
					C1761.571,1322.601,1759.213,1324.958,1756.308,1324.958z M1756.308,1245.005c-2.906,0-5.263-2.357-5.263-5.263v-39.976
					c0-2.906,2.357-5.263,5.263-5.263c2.906,0,5.263,2.357,5.263,5.263v39.976
					C1761.571,1242.649,1759.213,1245.005,1756.308,1245.005z M1756.308,1165.052c-2.906,0-5.263-2.356-5.263-5.263v-39.976
					c0-2.906,2.357-5.263,5.263-5.263c2.906,0,5.263,2.356,5.263,5.263v39.976
					C1761.571,1162.696,1759.213,1165.052,1756.308,1165.052z M1756.308,1085.1c-2.906,0-5.263-2.357-5.263-5.263v-39.976
					c0-2.907,2.357-5.263,5.263-5.263c2.906,0,5.263,2.356,5.263,5.263v39.976C1761.571,1082.743,1759.213,1085.1,1756.308,1085.1z"
					/>
			</g>
			<path style="fill:#FFFFFF;" d="M724.756,2536.393c-2.875,0-5.225-2.31-5.263-5.193c-0.038-2.906,2.285-5.294,5.195-5.332
				l42.1-0.559c2.83-0.051,5.294,2.285,5.331,5.192c0.038,2.906-2.285,5.294-5.194,5.333l-42.1,0.559
				C724.801,2536.393,724.78,2536.393,724.756,2536.393z M808.957,2535.274c-2.875,0-5.225-2.31-5.263-5.193
				c-0.038-2.906,2.285-5.294,5.194-5.333l42.1-0.56c0.024-0.001,0.048-0.001,0.068-0.001c2.875,0,5.225,2.31,5.263,5.193
				c0.038,2.906-2.285,5.294-5.195,5.332l-42.1,0.56C809.005,2535.274,808.981,2535.274,808.957,2535.274z M893.157,2534.154
				c-2.875,0-5.225-2.31-5.263-5.193c-0.038-2.906,2.286-5.294,5.195-5.332l42.1-0.56c2.971-0.089,5.294,2.285,5.332,5.192
				c0.038,2.906-2.285,5.294-5.195,5.332l-42.1,0.56C893.205,2534.154,893.181,2534.154,893.157,2534.154z M977.354,2533.035
				c-2.875,0-5.225-2.31-5.263-5.193c-0.038-2.906,2.285-5.294,5.195-5.332l42.1-0.559c0.024-0.001,0.048-0.001,0.068-0.001
				c2.875,0,5.225,2.31,5.263,5.193c0.038,2.906-2.285,5.294-5.194,5.332l-42.1,0.559
				C977.399,2533.035,977.375,2533.035,977.354,2533.035z M1061.555,2531.915c-2.875,0-5.225-2.31-5.263-5.193
				c-0.038-2.906,2.286-5.294,5.194-5.332l42.1-0.559c0.024-0.001,0.044-0.001,0.068-0.001c2.875,0,5.225,2.31,5.263,5.193
				c0.038,2.906-2.285,5.294-5.195,5.332l-42.1,0.559C1061.6,2531.915,1061.579,2531.915,1061.555,2531.915z M1145.756,2530.796
				c-2.875,0-5.225-2.31-5.263-5.193c-0.038-2.906,2.285-5.294,5.194-5.332l36.906-0.491v-2.207c0-2.906,2.357-5.263,5.263-5.263
				c2.906,0,5.263,2.356,5.263,5.263v7.4c0,2.879-2.313,5.224-5.194,5.262l-42.1,0.56
				C1145.8,2530.796,1145.776,2530.796,1145.756,2530.796z M698.558,2520.838c-2.906,0-5.263-2.356-5.263-5.263v-42.104
				c0-2.906,2.357-5.263,5.263-5.263c2.906,0,5.263,2.356,5.263,5.263v42.104C703.821,2518.481,701.463,2520.838,698.558,2520.838z
				 M1187.856,2480.732c-2.906,0-5.263-2.356-5.263-5.263v-42.104c0-2.906,2.357-5.263,5.263-5.263c2.906,0,5.263,2.356,5.263,5.263
				v42.104C1193.119,2478.376,1190.762,2480.732,1187.856,2480.732z M698.558,2436.63c-2.906,0-5.263-2.356-5.263-5.263v-42.104
				c0-2.906,2.357-5.263,5.263-5.263c2.906,0,5.263,2.356,5.263,5.263v42.104C703.821,2434.274,701.463,2436.63,698.558,2436.63z
				 M1187.856,2396.525c-2.906,0-5.263-2.356-5.263-5.263v-42.104c0-2.906,2.357-5.263,5.263-5.263c2.906,0,5.263,2.356,5.263,5.263
				v42.104C1193.119,2394.168,1190.762,2396.525,1187.856,2396.525z M698.558,2352.423c-2.906,0-5.263-2.356-5.263-5.263v-42.104
				c0-2.906,2.357-5.263,5.263-5.263c2.906,0,5.263,2.356,5.263,5.263v42.104C703.821,2350.066,701.463,2352.423,698.558,2352.423z
				 M1187.856,2312.317c-2.906,0-5.263-2.356-5.263-5.263v-42.104c0-2.906,2.357-5.263,5.263-5.263c2.906,0,5.263,2.356,5.263,5.263
				v42.104C1193.119,2309.961,1190.762,2312.317,1187.856,2312.317z M698.558,2268.215c-2.906,0-5.263-2.357-5.263-5.263v-42.104
				c0-2.906,2.357-5.263,5.263-5.263c2.906,0,5.263,2.356,5.263,5.263v42.104C703.821,2265.859,701.463,2268.215,698.558,2268.215z
				 M1187.856,2228.11c-2.906,0-5.263-2.357-5.263-5.263v-42.104c0-2.906,2.357-5.263,5.263-5.263c2.906,0,5.263,2.357,5.263,5.263
				v42.104C1193.119,2225.753,1190.762,2228.11,1187.856,2228.11z M698.558,2184.008c-2.906,0-5.263-2.356-5.263-5.263v-42.104
				c0-2.906,2.357-5.263,5.263-5.263c2.906,0,5.263,2.356,5.263,5.263v42.104C703.821,2181.651,701.463,2184.008,698.558,2184.008z
				 M1187.856,2143.903c-2.906,0-5.263-2.357-5.263-5.263v-42.104c0-2.906,2.357-5.263,5.263-5.263c2.906,0,5.263,2.357,5.263,5.263
				v42.104C1193.119,2141.546,1190.762,2143.903,1187.856,2143.903z M698.558,2099.8c-2.906,0-5.263-2.356-5.263-5.263v-5.965
				c0-2.898,2.344-5.251,5.242-5.263l36.138-0.149c2.775-0.032,5.27,2.335,5.284,5.241c0.01,2.906-2.333,5.272-5.242,5.284
				l-30.896,0.128v0.723C703.821,2097.444,701.463,2099.8,698.558,2099.8z M776.8,2093.514c-2.899,0-5.253-2.342-5.263-5.241
				c-0.01-2.906,2.333-5.272,5.242-5.284l42.104-0.173c2.83-0.05,5.273,2.335,5.284,5.242c0.01,2.906-2.333,5.272-5.242,5.284
				l-42.104,0.173C776.813,2093.514,776.807,2093.514,776.8,2093.514z M861.007,2093.167c-2.899,0-5.253-2.342-5.263-5.241
				c-0.01-2.906,2.333-5.272,5.242-5.284l42.104-0.173c2.885-0.066,5.273,2.335,5.284,5.242c0.01,2.906-2.333,5.272-5.242,5.284
				l-42.104,0.173C861.021,2093.167,861.014,2093.167,861.007,2093.167z M945.215,2092.82c-2.895,0-5.253-2.342-5.263-5.241
				c-0.01-2.906,2.333-5.272,5.242-5.284l42.1-0.173c2.943-0.082,5.273,2.335,5.284,5.242c0.01,2.906-2.333,5.272-5.242,5.284
				l-42.1,0.173C945.229,2092.82,945.222,2092.82,945.215,2092.82z M1029.419,2092.474c-2.899,0-5.249-2.342-5.263-5.242
				c-0.01-2.906,2.333-5.272,5.242-5.284l42.104-0.174c2.998-0.098,5.27,2.335,5.284,5.241c0.01,2.907-2.333,5.272-5.242,5.284
				l-42.104,0.174C1029.432,2092.474,1029.426,2092.474,1029.419,2092.474z M1113.626,2092.127c-2.899,0-5.249-2.342-5.263-5.242
				c-0.01-2.906,2.333-5.272,5.242-5.284l42.104-0.174c0.007,0,0.014,0,0.021,0c2.899,0,5.249,2.342,5.263,5.242
				c0.01,2.906-2.333,5.272-5.242,5.284l-42.104,0.174C1113.64,2092.127,1113.633,2092.127,1113.626,2092.127z"/>
			<polygon style="opacity:0.64;fill:#FFFFFF;" points="1756.309,2517.415 1278.648,2523.766 1278.648,2086.184 1756.309,2084.217 
							"/>
			<polygon style="opacity:0.64;fill:#FFFFFF;" points="1187.854,3063.843 698.559,3075.869 698.559,2632.963 1187.854,2625.428 			
				"/>
			<polygon style="opacity:0.64;fill:#FFFFFF;" points="1756.309,3049.872 1278.648,3061.612 1278.648,2624.03 1756.309,2616.674 
							"/>
			<g>
				
					<linearGradient id="SVGID_00000075841428303271024840000000565409442638633364_" gradientUnits="userSpaceOnUse" x1="730.9767" y1="2212.5471" x2="892.3743" y2="1696.7759">
					<stop  offset="0" style="stop-color:#FF9085"/>
					<stop  offset="1" style="stop-color:#FB6FBB"/>
				</linearGradient>
				<path style="fill:url(#SVGID_00000075841428303271024840000000565409442638633364_);" d="M1014.748,1811.206
					c0,85.222-70.421,154.419-157.575,154.557c-87.471,0.138-158.614-69.291-158.614-155.075
					c0-85.784,71.143-154.98,158.614-154.555C944.327,1656.556,1014.748,1725.984,1014.748,1811.206z"/>
				
					<linearGradient id="SVGID_00000115503963595263157530000012741366207243053210_" gradientUnits="userSpaceOnUse" x1="1073.7391" y1="2319.8049" x2="1235.1367" y2="1804.0339">
					<stop  offset="0" style="stop-color:#FF9085"/>
					<stop  offset="1" style="stop-color:#FB6FBB"/>
				</linearGradient>
				<path style="fill:url(#SVGID_00000115503963595263157530000012741366207243053210_);" d="M1388.418,1811.819
					c0,84.558-69.327,153.215-155.124,153.35c-86.107,0.136-156.139-68.75-156.139-153.861s70.032-153.767,156.139-153.349
					C1319.092,1658.377,1388.418,1727.261,1388.418,1811.819z"/>
				
					<linearGradient id="SVGID_00000039095130718496924320000006538540968475062456_" gradientUnits="userSpaceOnUse" x1="1411.1823" y1="2425.3992" x2="1572.5796" y2="1909.6293">
					<stop  offset="0" style="stop-color:#FF9085"/>
					<stop  offset="1" style="stop-color:#FB6FBB"/>
				</linearGradient>
				<path style="fill:url(#SVGID_00000039095130718496924320000006538540968475062456_);" d="M1756.309,1812.422
					c0,83.904-68.258,152.029-152.73,152.163c-84.775,0.134-153.722-68.216-153.722-152.665s68.947-152.573,153.722-152.161
					C1688.051,1660.169,1756.309,1728.519,1756.309,1812.422z"/>
			</g>
		</g>
		<g>
			
				<linearGradient id="SVGID_00000176030131707247867480000011109500785980963207_" gradientUnits="userSpaceOnUse" x1="1592.3728" y1="1492.6508" x2="902.8644" y2="551.7944">
				<stop  offset="0" style="stop-color:#AA80F9"/>
				<stop  offset="0.9964" style="stop-color:#6165D7"/>
			</linearGradient>
			<path style="fill:url(#SVGID_00000176030131707247867480000011109500785980963207_);" d="M1859.369,1478.88l-972.158-7.192
				c-23.511-0.174-42.479-19.283-42.479-42.795V940.618c0-23.959,19.667-43.25,43.622-42.788l972.158,18.763
				c23.309,0.45,41.97,19.474,41.97,42.788v476.704C1902.481,1459.844,1883.127,1479.056,1859.369,1478.88z"/>
			
				<linearGradient id="SVGID_00000132782080622141218630000010277685633800752785_" gradientUnits="userSpaceOnUse" x1="1605.3353" y1="1492.6508" x2="915.827" y2="551.7944">
				<stop  offset="0.0036" style="stop-color:#E38DDD"/>
				<stop  offset="1" style="stop-color:#9571F6"/>
			</linearGradient>
			<path style="fill:url(#SVGID_00000132782080622141218630000010277685633800752785_);" d="M1872.331,1478.88l-972.158-7.192
				c-23.511-0.174-42.479-19.283-42.479-42.795V940.618c0-23.959,19.668-43.25,43.622-42.788l972.158,18.763
				c23.309,0.45,41.97,19.474,41.97,42.788v476.704C1915.444,1459.844,1896.09,1479.056,1872.331,1478.88z"/>
			
				<linearGradient id="SVGID_00000088814892423504173730000007143220352308926872_" gradientUnits="userSpaceOnUse" x1="1870.9037" y1="1307.8813" x2="1926.8337" y2="1307.8813">
				<stop  offset="0.0036" style="stop-color:#F36F56"/>
				<stop  offset="1" style="stop-color:#FFC444"/>
			</linearGradient>
			<path style="fill:url(#SVGID_00000088814892423504173730000007143220352308926872_);" d="M1912.329,1390.411
				c0,0-22.967-11.453-35.119-30.086c-12.152-18.632-5.823-46.443,11.121-66.492c16.944-20.049,24.886-68.482,24.886-68.482
				s20.183,43.899,11.403,61.458c-8.779,17.56-25.752,53.274-25.752,53.274l27.965,30.623L1912.329,1390.411z"/>
			<path style="fill:#FFFFFF;" d="M1913.218,1345.063l-24.886,36.569c0,0,62.477,184.317,263.025,247.854
				c200.549,63.537,276.969-99.903,276.969-99.903S2137.113,1512.185,1913.218,1345.063z"/>
			
				<linearGradient id="SVGID_00000111906849252788168290000004826874301505631667_" gradientUnits="userSpaceOnUse" x1="1888.3313" y1="1512.8927" x2="2428.3254" y2="1512.8927">
				<stop  offset="0" style="stop-color:#AA80F9"/>
				<stop  offset="0.9964" style="stop-color:#6165D7"/>
			</linearGradient>
			<path style="opacity:0.3;fill:url(#SVGID_00000111906849252788168290000004826874301505631667_);" d="M1933.423,1388.419
				c-18.354-5.411-34.385-6.618-45.092-6.787c0,0,62.476,184.317,263.025,247.854c200.548,63.537,276.969-99.904,276.969-99.904
				c-39.689-12.835-99.716-28.001-173.594-29.588c-106.062-2.278-132.663,25.751-182.61-0.712
				C2015.219,1469.132,2007.029,1410.119,1933.423,1388.419z"/>
			
				<linearGradient id="SVGID_00000176014404157038645050000014953815398634479792_" gradientUnits="userSpaceOnUse" x1="1075.3297" y1="1972.7319" x2="871.9013" y2="1641.3409" gradientTransform="matrix(0.9867 -0.1625 0.1625 0.9867 178.4144 -79.8782)">
				<stop  offset="0.0036" style="stop-color:#F36F56"/>
				<stop  offset="1" style="stop-color:#FFC444"/>
			</linearGradient>
			<path style="fill:url(#SVGID_00000176014404157038645050000014953815398634479792_);" d="M1430.505,1509.25
				c0,0-19.026,5.153-28.048-31.533c-7.071-28.758-14.25-36.382-18.564-28.912c-4.316,7.471,1.411,23.391,1.411,23.391
				s-31.566-9.877-52.126-31.687c-20.561-21.809-17.401,2.59-13.929,16.398c3.471,13.807,36.254,47.302,48.298,51.019
				c12.043,3.718,39.05,31.212,39.05,31.212L1430.505,1509.25z"/>
			
				<linearGradient id="SVGID_00000179630953154416112700000009527720088463227546_" gradientUnits="userSpaceOnUse" x1="4700.5332" y1="3333.5139" x2="4602.3862" y2="3009.8926" gradientTransform="matrix(-0.9999 0.0138 0.0138 0.9999 6904.6699 -14.86)">
				<stop  offset="0" style="stop-color:#444B8C"/>
				<stop  offset="0.9964" style="stop-color:#26264F"/>
			</linearGradient>
			<path style="fill:url(#SVGID_00000179630953154416112700000009527720088463227546_);" d="M2344.08,3225.04
				c10.046,20.489,7.227,29.294,4.726,33.167c-7.332,11.364-24.98,0.633-71.052,6.09c-5.405,0.641-15.716,2.035-28.586-0.997
				c-11.024-2.598-24.022-8.466-23.467-11.42c0.203-1.075,2.161-1.505,2.903-1.664c12.785-2.725,92.824-27.289,92.824-27.289
				L2344.08,3225.04z"/>
			
				<linearGradient id="SVGID_00000077287267361188754430000000917104137566972853_" gradientUnits="userSpaceOnUse" x1="4615.9258" y1="3270.4946" x2="4615.9258" y2="2750.5867" gradientTransform="matrix(-0.9999 0.0138 0.0138 0.9999 6904.6699 -14.86)">
				<stop  offset="0" style="stop-color:#FFC444"/>
				<stop  offset="0.9964" style="stop-color:#F36F56"/>
			</linearGradient>
			<path style="fill:url(#SVGID_00000077287267361188754430000000917104137566972853_);" d="M2350.224,3180l-7.147,45.802
				c0,0-19.672,13.907-24.843-2.975c-3.719-12.144-3.615-44.873-3.615-44.873L2350.224,3180z"/>
			
				<linearGradient id="SVGID_00000166663225588322573720000014218759362776963734_" gradientUnits="userSpaceOnUse" x1="4799.0908" y1="3251.0823" x2="4799.0908" y2="2731.1484" gradientTransform="matrix(-0.9999 0.0138 0.0138 0.9999 6904.6699 -14.86)">
				<stop  offset="0" style="stop-color:#FFC444"/>
				<stop  offset="0.9964" style="stop-color:#F36F56"/>
			</linearGradient>
			<polygon style="fill:url(#SVGID_00000166663225588322573720000014218759362776963734_);" points="2125.925,3183.143 
				2145.238,3235.879 2173.304,3231.408 2166.798,3182.577 			"/>
			
				<linearGradient id="SVGID_00000044883782897838045000000004352474951698705543_" gradientUnits="userSpaceOnUse" x1="4835.2397" y1="3270.7356" x2="4737.0928" y2="2947.1143" gradientTransform="matrix(-0.9999 0.0138 0.0138 0.9999 6904.6699 -14.86)">
				<stop  offset="0" style="stop-color:#444B8C"/>
				<stop  offset="0.9964" style="stop-color:#26264F"/>
			</linearGradient>
			<path style="fill:url(#SVGID_00000044883782897838045000000004352474951698705543_);" d="M2153.978,3264.924
				c13.585-16.121,25.715-14.659,28.163-25.737c1.924-8.704-3.407-19.38-11.449-23.435c-11.304-5.696-24.995,3.202-28.089,5.21
				c-21.012,13.66-15.289,35.02-35.101,44.284c-3.988,1.865-10.305,3.841-16.967,10.083c-2.827,2.651-9.834,9.216-8.193,13.737
				c1.898,5.229,14.389,5.047,26.265,4.875c14.252-0.204,21.377-0.302,28.23-4.582
				C2146.337,3283.432,2143.493,3277.364,2153.978,3264.924z"/>
			
				<linearGradient id="SVGID_00000014631572099541361150000017186345939003559316_" gradientUnits="userSpaceOnUse" x1="4571.0068" y1="2148.6213" x2="4523.2598" y2="3222.936" gradientTransform="matrix(-0.9999 0.0138 0.0138 0.9999 6904.6699 -14.86)">
				<stop  offset="0" style="stop-color:#AB316D"/>
				<stop  offset="1" style="stop-color:#792D3D"/>
			</linearGradient>
			<path style="fill:url(#SVGID_00000014631572099541361150000017186345939003559316_);" d="M2500.398,2084.46
				c-5.192,106.534-20.443,197.475-37.795,271.611c-18.666,79.752-28.836,93.384-35.311,148.669
				c-14.085,120.305,24.395,138.395,28.607,274.806c4.651,150.628-37.924,269.352-54.629,314.63
				c-14.605,39.582-29.688,71.478-40.992,93.612c-14.053,11.731-35.045,6.662-57.186,1.663
				c-5.269-136.646-12.726-265.294-17.993-401.938c-22.015-205.866-44.032-411.724-66.049-617.586
				C2312.835,2141.434,2406.616,2112.951,2500.398,2084.46z"/>
			
				<linearGradient id="SVGID_00000102546602893469945430000006514056795823752121_" gradientUnits="userSpaceOnUse" x1="4571.0068" y1="2148.6213" x2="4523.2598" y2="3222.9353" gradientTransform="matrix(-0.9999 0.0138 0.0138 0.9999 6904.6699 -14.86)">
				<stop  offset="0" style="stop-color:#AB316D"/>
				<stop  offset="1" style="stop-color:#792D3D"/>
			</linearGradient>
			<path style="opacity:0.3;fill:url(#SVGID_00000102546602893469945430000006514056795823752121_);" d="M2303.093,3189.45
				c-5.269-136.646-12.726-265.294-17.993-401.938c-22.015-205.866-44.032-411.724-66.049-617.586
				c93.784-28.492,187.566-56.975,281.348-85.466c-0.343,7.054-0.843,13.854-1.271,20.778
				c-133.093,110.663-160.593,200.001-160.633,261.339c-0.047,74.395,39.825,112.128,29.567,219.774
				c-7.333,76.968-30.8,90.052-32.282,159.617c-1.907,89.576,35.458,140.766,53.072,192.931
				c17.022,50.416,21.943,121.414-15.178,221.448c-4.813,10.309-9.353,19.529-13.395,27.441
				C2346.226,3199.516,2325.233,3194.452,2303.093,3189.45z"/>
			
				<linearGradient id="SVGID_00000072989972332762731860000000473548653364101780_" gradientUnits="userSpaceOnUse" x1="5435.7031" y1="2592.8296" x2="4383.3237" y2="2544.9934" gradientTransform="matrix(-0.9999 0.0138 0.0138 0.9999 6904.6699 -14.86)">
				<stop  offset="0" style="stop-color:#AB316D"/>
				<stop  offset="1" style="stop-color:#792D3D"/>
			</linearGradient>
			<path style="fill:url(#SVGID_00000072989972332762731860000000473548653364101780_);" d="M2341.311,2164.071
				c-84.395,103.347-132.532,199.964-160.305,267.653c-33.417,81.437-57.644,142.471-50.05,221.52
				c8.358,87,47.811,118.265,74.014,192.436c25.411,71.933,37.793,182.618-28.504,347.321
				c-16.683,5.776-33.367,11.553-50.048,17.325c-11.085-44.508-29.016-111.084-55.826-190.372
				c-53.129-157.118-106.084-260.511-120.406-292.627c-50.435-113.097-55.532-315.003,154.393-704.571
				C2183.489,2069.86,2262.4,2116.963,2341.311,2164.071z"/>
			<path style="fill:#FFFFFF;" d="M1386.569,1538.834c14.329-23.013,28.663-46.028,42.994-69.04
				c89.993,142.207,172.057,178.089,231.233,183.871c108.249,10.578,256.187-81.039,439.231-191.333
				c25.612-15.434,76.21-46.558,134.904-35.715c14.065,2.6,59.547,13.326,113.12,81.127
				c100.307,126.941,39.738,214.463,123.48,305.541c60.388,65.678,99.001,27.904,186.62,114.068
				c64.723,63.653,61.559,101.875,119.3,128.171c70.511,32.109,119.164-4.884,158.521,33.746
				c31.743,31.154,39.048,93.45,13.788,124.09c-31.305,37.974-92.396,2.781-192.039,5.027
				c-168.064,3.793-192.744,108.389-389.605,128.22c-65.779,6.625-146.631,13.538-202.073-36.154
				c-27.67-24.799-38.2-53.764-64.228-176.475c-51.563-243.092-52.124-260.01-74.89-279.329
				c-76.833-65.203-188.103,38.274-332.038,8.536C1610.728,1845.802,1495.656,1778.784,1386.569,1538.834z"/>
			
				<linearGradient id="SVGID_00000115516586616220460600000010334118720367539884_" gradientUnits="userSpaceOnUse" x1="-1426.698" y1="2345.7627" x2="-1237.2211" y2="3332.6243" gradientTransform="matrix(0.9199 -0.3921 0.3921 0.9199 2202.9524 -1027.0323)">
				<stop  offset="0" style="stop-color:#AA80F9"/>
				<stop  offset="0.9964" style="stop-color:#6165D7"/>
			</linearGradient>
			<path style="opacity:0.3;fill:url(#SVGID_00000115516586616220460600000010334118720367539884_);" d="M2456.113,2273.699
				c-40.637-35.227-28.966-88.627-83.716-128.449c-69.776-50.751-133.217,3.62-182.251-34.953
				c-83.86-65.969,50.632-265.155-45.506-386.108c-45.902-57.748-128.984-78.295-189.172-73.84
				c-133.625,9.892-166.644,143.949-289.533,158.818c-29.128,3.523-65.522,0.613-109.402-18.913
				c50.512,44.771,97.99,64.591,138.355,72.931c143.934,29.738,255.205-73.742,332.037-8.537
				c22.767,19.324,23.327,36.238,74.89,279.329c26.029,122.715,36.558,151.679,64.228,176.474
				c58.805,52.702,145.984,42.638,202.074,36.159c16.621-1.918,96.311-12.133,173.418-47.301
				C2500.74,2300.004,2474.04,2289.24,2456.113,2273.699z"/>
			
				<linearGradient id="SVGID_00000130613013212778910420000006163063751817701821_" gradientUnits="userSpaceOnUse" x1="-263.3597" y1="2395.4063" x2="-248.5574" y2="2943.0764" gradientTransform="matrix(0.8698 -0.4935 0.4935 0.8698 953.2327 -1091.0162)">
				<stop  offset="0.0036" style="stop-color:#F36F56"/>
				<stop  offset="1" style="stop-color:#FFC444"/>
			</linearGradient>
			<path style="fill:url(#SVGID_00000130613013212778910420000006163063751817701821_);" d="M2083.525,1336.515
				c0,0,18.39,45.429,44.93,74.94c23.989,26.671,99.041,22.254,115.313,24.351c16.27,2.097-16.206,36.498-54.635,54.576
				c-38.425,18.08-155.406,49.22-181.252,41.36c-25.846-7.858,11.549-19.788,36.301-40.272
				c24.752-20.485,21.55-81.913,7.613-105.383C2037.859,1362.615,2083.525,1336.515,2083.525,1336.515z"/>
			<g>
				
					<linearGradient id="SVGID_00000183208753111321079350000007540093366554793393_" gradientUnits="userSpaceOnUse" x1="478.6979" y1="2399.3831" x2="379.1865" y2="2560.3574" gradientTransform="matrix(0.7929 -0.6094 0.6094 0.7929 237.7847 -268.1027)">
					<stop  offset="0" style="stop-color:#FFC444"/>
					<stop  offset="0.9964" style="stop-color:#F36F56"/>
				</linearGradient>
				<path style="fill:url(#SVGID_00000183208753111321079350000007540093366554793393_);" d="M2021.556,1412.262
					c-14.917-25.67-7.957-54.81-6.392-61.108c6.56-26.36,8.955-30.347,13.9-35.898l6.985-7.276c0,0,0.435-0.317,0.893-0.626
					c4.845-3.278,22.883-8.526,26.769-8.693c12.414-0.526,37.327,44.169,51.262,112.864c2.288,4.965,4.578,9.93,6.863,14.896
					c24.17-12.625,32.397-12.836,34.923-9.898c5.47,6.365,3.193,55.802-17.99,72.961c-26.566,21.518-69.768-44.917-70.016-51.604
					C2063.362,1436.641,2032.546,1431.172,2021.556,1412.262z"/>
				
					<linearGradient id="SVGID_00000137834600853655874850000018014028015754997159_" gradientUnits="userSpaceOnUse" x1="-254.4079" y1="1725.9724" x2="-347.1112" y2="1875.9338" gradientTransform="matrix(0.6265 -0.7793 0.7793 0.6265 853.3584 65.6927)">
					<stop  offset="0" style="stop-color:#FFC444"/>
					<stop  offset="0.9964" style="stop-color:#F36F56"/>
				</linearGradient>
				<path style="fill:url(#SVGID_00000137834600853655874850000018014028015754997159_);" d="M2048.295,1377.729
					c3.319-8.402,14.078-4.093,16.494,5.042c2.417,9.133-3.988,20.935-13.057,21.35
					C2042.666,1404.535,2043.829,1389.034,2048.295,1377.729z"/>
				
					<linearGradient id="SVGID_00000003094926583932937700000009330610332264183733_" gradientUnits="userSpaceOnUse" x1="1876.7013" y1="1866.1399" x2="1238.468" y2="2526.6367" gradientTransform="matrix(0.9339 -0.3576 0.3576 0.9339 407.4672 -197.234)">
					<stop  offset="0" style="stop-color:#AB316D"/>
					<stop  offset="1" style="stop-color:#792D3D"/>
				</linearGradient>
				<path style="fill:url(#SVGID_00000003094926583932937700000009330610332264183733_);" d="M3174.477,1087.862
					c-110.077-81.79-300.721,10.609-329.877,24.741c-82.37,39.923-107.353,80.903-189.679,90.717
					c-74.149,8.839-78.411-21.483-148.444-16.494c-142.092,10.122-185.195,139.264-280.394,115.457
					c-23.791-5.949-52.156-21.781-117.849-37.571c-16.462-3.957-42.392-9.61-65.987,3.276c-5.344,2.92-23.194,12.532-25.808,30.84
					c-2.12,14.836,6.891,30.875,17.402,39.35c6.286,5.065,8.736,4.227,11.59,8.514c8.016,12.043-8.997,33.048-3.406,37.92
					c3.993,3.482,13.684-6.364,19.525-2.631c6.401,4.092-1.766,18.124,4.064,36.305c-4.656,13.792,1.564,34.426,15.898,57.416
					c21.593,34.63,36.759,48.95,64.593,71.559c77.097,62.623,57.188,130.936,112.965,150.875
					c39.758,14.212,57.532-17.759,136.347-31.005c70.626-11.87,126.573,2,177.036,14.511
					c136.128,33.75,136.21,87.831,230.913,107.21c111.876,22.893,256.317-22.996,313.383-115.457
					c40.415-65.483,1.692-97.111,49.481-214.42c38.069-93.446,72.798-98.308,82.469-164.938
					C3258.396,1227.237,3237.622,1134.781,3174.477,1087.862z"/>
			</g>
			<g style="opacity:0.48;">
				<path style="fill:#FFFFFF;" d="M1525.245,1228.883c-138.744-44.923-252.24,62.506-336.83-4.678
					c-74.345-59.048-20.435-168.841-109.938-283.031c-12.054-15.378-25.157-28.848-38.807-40.674l-138.353-2.67
					c-23.956-0.462-43.622,18.829-43.622,42.788v488.275c0,23.512,18.967,42.621,42.479,42.795l840.759,6.22
					C1675.536,1314.421,1595.336,1251.577,1525.245,1228.883z"/>
			</g>
		</g>
	</g>
</g>
</svg>
