<svg xml:space="preserve" style="max-height: 500px" viewBox="314.113086 314.113086 3116.4 3042.2" y="0px" x="0px" xmlns:xlink="http://www.w3.org/1999/xlink" xmlns="http://www.w3.org/2000/svg" version="1.1" width="3116.4" height="3042.2">
<g id="Background">
	<g>
		<g>
			<rect height="3710" width="3710" style="fill:#FFFFFF;"/>
		</g>
	</g>
</g>
<g id="Illustration">
	<g>
		<path d="M3218.443,1648.341c-76.151-498.444-388.37-1110.819-1005.193-1174.905&#10;&#9;&#9;&#9;c0,0-468.321-56.964-929.983,29.371c-273.997,51.24-514.252,203.769-666.275,422.992&#10;&#9;&#9;&#9;c-152.025,219.223-202.806,486.535-141.177,741.385c40.028,165.527,67.077,336.841,59.653,506.93&#10;&#9;&#9;&#9;c-12.919,296.024-5.486,572.34,281.798,748.88c256.511,157.631,579.335,296.656,887.314,321.006&#10;&#9;&#9;&#9;c209.3,16.548,444.017-10.231,645.742-64.722C3378.36,2901.573,3294.594,2146.785,3218.443,1648.341z" style="fill:#F4F7FA;"/>
		<g>
			<path d="M2335.195,2835.688c-10.813-3.09,10.916-58.005-9.983-135.779&#10;&#9;&#9;&#9;&#9;c-5.221-19.43-26.349-127.384-107.603-142.819c-15.772-2.996-31.546-5.994-47.318-8.99c-8.179-37.719-8.9-74.785,41.314-81.047&#10;&#9;&#9;&#9;&#9;c77.981-9.723,97.187-134.436,82.771-181.816c-17.842-58.642-56.465-195.917,63.786-212.761&#10;&#9;&#9;&#9;&#9;c100.108-14.024,168.333-3.513,191.367-119.686c23.034-116.175,100.744-178.918,211.99-154.697&#10;&#9;&#9;&#9;&#9;c117.069,25.489,234.617-108.525,324.436-43.849c156.502,112.698-32.152,347.516-247.577,390.828&#10;&#9;&#9;&#9;&#9;c-215.424,43.313-107.556,131.37-115.369,228.138c-1.234,8.942-3.837,22.71-9.994,38.377&#10;&#9;&#9;&#9;&#9;c-37.909,96.454-144.857,97.663-232.013,168.028C2362.138,2675.578,2353.411,2840.895,2335.195,2835.688z" style="fill:#FFFFFF;"/>
			<g>
				<defs>
					<path d="M2432.181,2619.047l-257.041-41.47c-9.888-36.875-19.625-103.529,36.465-110.523&#10;&#9;&#9;&#9;&#9;&#9;&#9;c77.981-9.724,97.188-134.437,82.772-181.817c-17.842-58.642-56.465-195.917,63.786-212.762&#10;&#9;&#9;&#9;&#9;&#9;&#9;c100.108-14.024,168.333-3.512,191.366-119.686c23.034-116.174,100.745-178.917,211.99-154.696&#10;&#9;&#9;&#9;&#9;&#9;&#9;c117.069,25.489,234.617-108.526,324.435-43.848c156.503,112.697-32.152,347.515-247.576,390.828&#10;&#9;&#9;&#9;&#9;&#9;&#9;c-215.424,43.313-107.557,131.369-115.369,228.139c-10.666,132.111-193.663,75.402-250.185,119.258&#10;&#9;&#9;&#9;&#9;&#9;&#9;C2428.513,2526.849,2427.952,2583.604,2432.181,2619.047z" id="SVGID_1_"/>
				</defs>
				
				<clipPath id="SVGID_00000070816717171871704230000009188297381210915226_">
					
				</clipPath>
				<g style="opacity:0.5;clip-path:url(#SVGID_00000070816717171871704230000009188297381210915226_);">
					<path d="M2316.802,2561.23l-5.315-1.9c134.501-365.692,456.918-662.156,841.431-773.698l1.785,5.122&#10;&#9;&#9;&#9;&#9;&#9;&#9;C2771.811,1901.827,2450.745,2197.057,2316.802,2561.23z" style="fill:#FCFDFE;"/>
					<path d="M2408.28,2368.343l-5.574-0.874c21.664-151.669-98.536-291.427-99.754-292.821l4.283-3.345&#10;&#9;&#9;&#9;&#9;&#9;&#9;C2308.469,2072.713,2430.284,2214.282,2408.28,2368.343z" style="fill:#FCFDFE;"/>
					<path d="M2343.494,2494.655l-4.547-3.277c96.414-123.219,394.125-96.041,397.122-95.751l-0.402,5.324&#10;&#9;&#9;&#9;&#9;&#9;&#9;C2732.704,2400.665,2438.075,2373.778,2343.494,2494.655z" style="fill:#FCFDFE;"/>
					<path d="M2653.147,2070.892l-4.815-2.903c67.237-103.857,14.717-288.169,14.18-290.018l5.416-1.286&#10;&#9;&#9;&#9;&#9;&#9;&#9;C2668.472,1778.557,2721.626,1965.117,2653.147,2070.892z" style="fill:#FCFDFE;"/>
					<path d="M2856.363,1920.709l-2.278-4.957c135.417-53.143,323.312,17.479,325.196,18.202l-1.961,4.958&#10;&#9;&#9;&#9;&#9;&#9;&#9;C3175.461,1938.197,2989.669,1868.393,2856.363,1920.709z" style="fill:#FCFDFE;"/>
				</g>
			</g>
		</g>
		<g>
			<g>
				<defs>
					<path d="M1846.46,2711.085&#10;&#9;&#9;&#9;&#9;&#9;&#9;c277.416-200.133,319.921-632.178,187.816-749.95c-68.711-61.256-156.226-12.142-218.65-85.422&#10;&#9;&#9;&#9;&#9;&#9;&#9;c-69.162-81.191,4.079-181.613-5.052-403.767c-4.718-114.781-13.275-322.925-133.895-397.736&#10;&#9;&#9;&#9;&#9;&#9;&#9;c-119.618-74.189-230.185,56.714-363.298-15.994c-125.868-68.75-74.844-211.92-228.108-346.389&#10;&#9;&#9;&#9;&#9;&#9;&#9;c-14.256-12.507-176.369-151.304-307.545-97.96c-133.269,54.195-187.536,287.565-120.432,435.696&#10;&#9;&#9;&#9;&#9;&#9;&#9;c60.967,134.58,204.197,159.251,194.96,237.827c-10.18,86.59-187.451,84.994-206.449,172.942&#10;&#9;&#9;&#9;&#9;&#9;&#9;c-27.461,127.124,322.882,223.197,328.601,424.67c3.363,118.473-116.272,138.361-144.561,287.587&#10;&#9;&#9;&#9;&#9;&#9;&#9;c-36.512,192.597,117.941,395.934,253.151,498.184C1278.948,2818.958,1606.008,2884.551,1846.46,2711.085z" id="SVGID_00000152233668675858402800000011905976757525916553_"/>
				</defs>
				
					<linearGradient y2="4847.7681" x2="-845.8611" y1="1012.055" x1="1755.3708" gradientUnits="userSpaceOnUse" id="SVGID_00000104667107461023222200000004293638402655648420_">
					<stop style="stop-color:#E38DDD" offset="0.0036"/>
					<stop style="stop-color:#9571F6" offset="1"/>
				</linearGradient>
				
					
				<clipPath id="SVGID_00000179609711949551447060000017903246678442721162_">
					
				</clipPath>
				<g style="opacity:0.8;clip-path:url(#SVGID_00000179609711949551447060000017903246678442721162_);">
					<path d="M1703.474,2897.653l10.517-2.637c-102.083-407.227-221.152-785.312-353.905-1123.758&#10;&#9;&#9;&#9;&#9;&#9;&#9;c-106.227-270.816-221.405-517.013-342.336-731.75c-206.079-365.935-359.67-515.68-361.197-517.15l-7.519,7.812&#10;&#9;&#9;&#9;&#9;&#9;&#9;c1.517,1.463,154.278,150.507,359.654,515.343C1198.255,1382.267,1472.675,1976.953,1703.474,2897.653z" style="fill:#FFFFFF;"/>
					<path d="M1036.269,1075.289c61.623-330.351-45.246-600.552-46.334-603.242l-10.053,4.059&#10;&#9;&#9;&#9;&#9;&#9;&#9;c1.077,2.663,106.746,270.083,45.727,597.195L1036.269,1075.289z" style="fill:#FFFFFF;"/>
					<path d="M1380.093,1819.392c175.762-321.125,227.739-549.241,240.389-684.059&#10;&#9;&#9;&#9;&#9;&#9;&#9;c13.779-146.848-13.993-216.573-15.18-219.468l-10.034,4.111c0.284,0.693,28.063,70.918,14.305,215.548&#10;&#9;&#9;&#9;&#9;&#9;&#9;c-12.716,133.638-64.501,359.86-238.992,678.661L1380.093,1819.392z" style="fill:#FFFFFF;"/>
					<path d="M1619.27,2551.494c425.594-477.982,443.111-854.935,443.238-858.686l-10.836-0.367&#10;&#9;&#9;&#9;&#9;&#9;&#9;c-0.032,0.942-4.866,98.64-64.538,255.736c-52.548,138.332-160.428,354.041-375.959,596.108L1619.27,2551.494z" style="fill:#FFFFFF;"/>
					<path d="M1220.456,1713.564c36.972,6.483,74.916,11.065,113.726,13.321l0.63-10.824&#10;&#9;&#9;&#9;&#9;&#9;&#9;c-253.582-14.746-471.175-130.019-609.049-224.125c-149.462-102.017-239.924-201.699-240.817-202.694l-8.06,7.257&#10;&#9;&#9;&#9;&#9;&#9;&#9;c0.906,1.004,92.238,101.65,242.762,204.393C837.587,1581.392,1013.457,1677.266,1220.456,1713.564z" style="fill:#FFFFFF;"/>
					<path d="M1512.786,2409.244c19.962,3.5,40.314,6.347,61.09,8.474l1.103-10.786&#10;&#9;&#9;&#9;&#9;&#9;&#9;c-263.444-26.988-461.248-171.456-580.806-287.897c-129.644-126.265-197.676-247.532-198.349-248.741l-9.48,5.264&#10;&#9;&#9;&#9;&#9;&#9;&#9;c0.681,1.224,69.492,123.881,200.264,251.245C1097.986,2235.278,1276.667,2367.84,1512.786,2409.244z" style="fill:#FFFFFF;"/>
				</g>
			</g>
		</g>
		<g>
			<g>
				<defs>
					<path d="M1767.14,2423.357&#10;&#9;&#9;&#9;&#9;&#9;&#9;c-256.692-190.785-290.691-595.261-165.624-703.609c65.051-56.355,146.214-9.276,205.546-76.956&#10;&#9;&#9;&#9;&#9;&#9;&#9;c65.737-74.985-1.401-169.841,10.087-377.407c5.935-107.244,16.7-301.72,130.459-370.057&#10;&#9;&#9;&#9;&#9;&#9;&#9;c112.814-67.769,214.442,56.078,339.853-10.127c118.585-62.601,72.785-197.126,217.855-320.802&#10;&#9;&#9;&#9;&#9;&#9;&#9;c13.494-11.504,166.894-139.108,288.82-87.495c123.871,52.436,171.504,271.33,106.802,408.924&#10;&#9;&#9;&#9;&#9;&#9;&#9;c-58.784,125.007-193.015,146.168-185.424,219.75c8.367,81.087,174.115,81.949,190.708,164.423&#10;&#9;&#9;&#9;&#9;&#9;&#9;c23.984,119.21-304.822,204.373-312.844,392.651c-4.718,110.714,106.863,130.896,131.327,270.78&#10;&#9;&#9;&#9;&#9;&#9;&#9;c31.576,180.54-115.52,368.584-243.284,462.381C2296.264,2531.744,1989.63,2588.722,1767.14,2423.357z" id="SVGID_00000159441155985327551870000016297082359573397126_"/>
				</defs>
				
					<linearGradient gradientTransform="matrix(0.9873 -0.1587 0.1587 0.9873 330.7125 462.9924)" y2="190.3165" x2="5818.8745" y1="1702.3884" x1="782.9001" gradientUnits="userSpaceOnUse" id="SVGID_00000102534157485283524070000011400152561116880522_">
					<stop style="stop-color:#FFC444" offset="0"/>
					<stop style="stop-color:#F36F56" offset="0.9964"/>
				</linearGradient>
				
					
				<clipPath id="SVGID_00000166672352538815414570000008716000742026327484_">
					
				</clipPath>
				<g style="clip-path:url(#SVGID_00000166672352538815414570000008716000742026327484_);">
					
						<linearGradient gradientTransform="matrix(0.9873 -0.1587 0.1587 0.9873 330.7125 462.9924)" y2="169.2304" x2="5812.5469" y1="1681.3031" x1="776.57" gradientUnits="userSpaceOnUse" id="SVGID_00000092437502328950678290000010642730254117158817_">
						<stop style="stop-color:#FFC444" offset="0"/>
						<stop style="stop-color:#F36F56" offset="0.9964"/>
					</linearGradient>
					<path d="M1898.337,2599.676l-9.797-2.605&#10;&#9;&#9;&#9;&#9;&#9;&#9;c100.845-379.353,217.183-731.236,345.787-1045.879c102.907-251.77,213.855-480.405,329.763-679.552&#10;&#9;&#9;&#9;&#9;&#9;&#9;c197.521-339.368,343.099-477.322,344.546-478.676l6.925,7.403c-1.438,1.348-146.231,138.657-343.079,477.007&#10;&#9;&#9;&#9;&#9;&#9;&#9;C2390.786,1189.68,2126.336,1741.997,1898.337,2599.676z" style="fill:url(#SVGID_00000092437502328950678290000010642730254117158817_);"/>
					
						<linearGradient gradientTransform="matrix(0.9873 -0.1587 0.1587 0.9873 330.7125 462.9924)" y2="-511.7239" x2="5608.0884" y1="1000.3479" x1="572.1142" gradientUnits="userSpaceOnUse" id="SVGID_00000142882148812232600870000008161251421932792454_">
						<stop style="stop-color:#FFC444" offset="0"/>
						<stop style="stop-color:#F36F56" offset="0.9964"/>
					</linearGradient>
					<path d="M2546.302,904.844&#10;&#9;&#9;&#9;&#9;&#9;&#9;c-53.222-309.658,50.277-560.844,51.33-563.345l9.344,3.929c-1.042,2.475-103.382,251.077-50.682,557.699L2546.302,904.844z" style="fill:url(#SVGID_00000142882148812232600870000008161251421932792454_);"/>
					
						<linearGradient gradientTransform="matrix(0.9873 -0.1587 0.1587 0.9873 330.7125 462.9924)" y2="-230.3981" x2="5692.5122" y1="1281.6597" x1="656.5852" gradientUnits="userSpaceOnUse" id="SVGID_00000033329774693899023820000007593080495986528655_">
						<stop style="stop-color:#FFC444" offset="0"/>
						<stop style="stop-color:#F36F56" offset="0.9964"/>
					</linearGradient>
					<path d="M2214.983,1595.925&#10;&#9;&#9;&#9;&#9;&#9;&#9;c-160.051-302.549-205.613-516.5-215.649-642.707c-10.931-137.469,15.958-202.284,17.107-204.975l9.326,3.977&#10;&#9;&#9;&#9;&#9;&#9;&#9;c-0.274,0.644-27.178,65.927-16.237,201.322c10.113,125.105,55.52,337.283,214.414,637.642L2214.983,1595.925z" style="fill:url(#SVGID_00000033329774693899023820000007593080495986528655_);"/>
					
						<linearGradient gradientTransform="matrix(0.9873 -0.1587 0.1587 0.9873 330.7125 462.9924)" y2="233.5113" x2="5831.9692" y1="1745.6202" x1="795.8715" gradientUnits="userSpaceOnUse" id="SVGID_00000085929054635245531940000017868328825599477436_">
						<stop style="stop-color:#FFC444" offset="0"/>
						<stop style="stop-color:#F36F56" offset="0.9964"/>
					</linearGradient>
					<path d="M1981.656,2277.177&#10;&#9;&#9;&#9;&#9;&#9;&#9;c-391.531-452.509-402.9-805.149-402.969-808.657l10.136-0.199c0.018,0.881,3.239,92.281,56.939,239.94&#10;&#9;&#9;&#9;&#9;&#9;&#9;c47.288,130.022,145.278,333.117,343.559,562.284L1981.656,2277.177z" style="fill:url(#SVGID_00000085929054635245531940000017868328825599477436_);"/>
					
						<linearGradient gradientTransform="matrix(0.9873 -0.1587 0.1587 0.9873 330.7125 462.9924)" y2="155.3128" x2="5808.3813" y1="1667.3903" x1="772.3886" gradientUnits="userSpaceOnUse" id="SVGID_00000140710453423815344780000014971569665327804553_">
						<stop style="stop-color:#FFC444" offset="0"/>
						<stop style="stop-color:#F36F56" offset="0.9964"/>
					</linearGradient>
					<path d="M2365.629,1499.109&#10;&#9;&#9;&#9;&#9;&#9;&#9;c-34.651,5.57-70.184,9.349-106.497,10.943l-0.445-10.128c237.265-10.418,442.22-115.294,572.365-201.44&#10;&#9;&#9;&#9;&#9;&#9;&#9;c141.084-93.389,226.979-185.378,227.828-186.296l7.438,6.891c-0.86,0.927-87.582,93.806-229.669,187.859&#10;&#9;&#9;&#9;&#9;&#9;&#9;C2725.322,1380.629,2559.632,1467.925,2365.629,1499.109z" style="fill:url(#SVGID_00000140710453423815344780000014971569665327804553_);"/>
					
						<linearGradient gradientTransform="matrix(0.9873 -0.1587 0.1587 0.9873 330.7125 462.9924)" y2="540.3245" x2="5923.9766" y1="2052.3992" x1="887.9928" gradientUnits="userSpaceOnUse" id="SVGID_00000105420698405968646260000014419379902973945757_">
						<stop style="stop-color:#FFC444" offset="0"/>
						<stop style="stop-color:#F36F56" offset="0.9964"/>
					</linearGradient>
					<path d="M2083.095,2145.604&#10;&#9;&#9;&#9;&#9;&#9;&#9;c-18.709,3.007-37.773,5.398-57.225,7.111l-0.888-10.098c246.647-21.731,433.489-154.164,546.809-261.434&#10;&#9;&#9;&#9;&#9;&#9;&#9;c122.878-116.321,188.092-228.787,188.737-229.909l8.793,5.047c-0.653,1.135-66.612,114.891-190.561,232.224&#10;&#9;&#9;&#9;&#9;&#9;&#9;C2473.194,1988.476,2304.388,2110.033,2083.095,2145.604z" style="fill:url(#SVGID_00000105420698405968646260000014419379902973945757_);"/>
				</g>
			</g>
		</g>
		<g>
			<path d="M2499.136,928.204L1123.278,841.14c-31.688-1.692-60.214,36.134-60.214,67.895v1937.957&#10;&#9;&#9;&#9;&#9;c0,44.048,41.133,52.913,72.821,49.373l1363.251-152.293c24.902-2.782,45.006-27.709,45.006-55.687V981.265&#10;&#9;&#9;&#9;&#9;C2544.143,953.288,2524.039,929.534,2499.136,928.204z" style="fill:#97A6B7;"/>
			<path d="M2521.765,912.81l-1378.576-74.182c-31.688-1.705-57.496,22.855-57.496,54.864V2846.59&#10;&#9;&#9;&#9;&#9;c0,32.009,25.808,55.052,57.496,51.484l1378.576-155.208c24.902-2.804,45.006-27.925,45.006-56.121V966.286&#10;&#9;&#9;&#9;&#9;C2566.771,938.09,2546.667,914.15,2521.765,912.81z" style="fill:#D8DEE8;"/>
			<path d="M1143.189,2871.588c-17.093,1.888-31.033-10.606-31.033-27.854V894.792&#10;&#9;&#9;&#9;&#9;c0-17.249,13.94-30.562,31.033-29.678l1378.576,71.232c13.461,0.695,24.389,13.672,24.389,28.927V2688.97&#10;&#9;&#9;&#9;&#9;c0,15.255-10.928,28.874-24.389,30.36L1143.189,2871.588z" style="opacity:0.74;fill:#FFFFFF;"/>
			<polygon points="2432.914,2673.106 1253.811,2797.374 1253.811,999.308 2432.914,1047.883" style="fill:#FFFFFF;"/>
			<path d="M1961.309,1056.683l-471.234,6.448l10.57-116.247&#10;&#9;&#9;&#9;&#9;c0.797-15.104,10.781-27.504,23.923-29.713l79.806-13.415c9.396-1.579,17.488-8.372,21.594-18.127l8.653-20.557l208.741,14.099&#10;&#9;&#9;&#9;&#9;L1961.309,1056.683z" style="opacity:0.3;fill:#97A6B7;"/>
			
				<linearGradient y2="876.7549" x2="2230.8911" y1="876.7549" x1="1490.0751" gradientUnits="userSpaceOnUse" id="SVGID_00000081628163200708426500000008345598607194272439_">
				<stop style="stop-color:#444B8C" offset="0"/>
				<stop style="stop-color:#26264F" offset="0.9964"/>
			</linearGradient>
			<path d="M2212.951,981.267&#10;&#9;&#9;&#9;&#9;c-2.235-13.152-11.869-22.383-24.006-22.978l-75.298-3.691c-34.177-1.676-59.231-32.047-57.977-70.515l2.906-89.144&#10;&#9;&#9;&#9;&#9;c0.538-16.486-10.226-29.696-25.018-30.663l-24.739-1.616c-18.865-1.233-31.425-19.424-28.779-40.458&#10;&#9;&#9;&#9;&#9;c4.624-36.76-18.401-68.484-51.772-70.971c-33.633-2.507-65.022,25.6-70.03,62.83c-0.744,5.532-2.453,10.999-5.232,15.877&#10;&#9;&#9;&#9;&#9;c-7.771,13.637-21.389,21.144-34.725,20.273l-25.52-1.667c-15.463-1.01-30.157,10.861-34.074,27.565l-21.219,90.487&#10;&#9;&#9;&#9;&#9;c-9.177,39.134-43.793,67.413-80.55,65.611l-82.599-4.05c-13.528-0.663-26.804,7.961-33.034,21.484l-49.774,108.036&#10;&#9;&#9;&#9;&#9;c-4.077,8.848,0.943,18.406,9.827,18.729l716.307,26.025c7.84,0.285,14.492-8.266,13.048-16.764L2212.951,981.267z&#10;&#9;&#9;&#9;&#9; M1918.113,728.383c-9.867-0.669-16.714-10.052-15.279-20.955c1.435-10.904,10.605-19.173,20.467-18.471&#10;&#9;&#9;&#9;&#9;c9.845,0.701,16.654,10.081,15.223,20.952C1937.094,720.779,1927.963,729.051,1918.113,728.383z" style="fill:url(#SVGID_00000081628163200708426500000008345598607194272439_);"/>
			<path d="M2217.194,983.683c-2.236-13.152-11.869-22.383-24.007-22.978l-75.298-3.692&#10;&#9;&#9;&#9;&#9;c-34.177-1.676-59.231-32.047-57.977-70.515l2.906-89.144c0.537-16.486-10.226-29.696-25.018-30.663l-24.739-1.616&#10;&#9;&#9;&#9;&#9;c-18.865-1.233-31.425-19.424-28.779-40.458c4.624-36.761-18.401-68.484-51.772-70.971c-33.633-2.507-65.022,25.599-70.03,62.83&#10;&#9;&#9;&#9;&#9;c-0.744,5.532-2.453,10.999-5.232,15.878c-7.771,13.637-21.389,21.144-34.725,20.273l-25.52-1.667&#10;&#9;&#9;&#9;&#9;c-15.463-1.01-30.157,10.862-34.074,27.565l-21.219,90.486c-9.177,39.134-43.793,67.413-80.55,65.611l-82.599-4.05&#10;&#9;&#9;&#9;&#9;c-13.528-0.663-26.804,7.961-33.034,21.484l-49.774,108.036c-4.076,8.848,0.943,18.406,9.827,18.729l716.307,26.025&#10;&#9;&#9;&#9;&#9;c7.84,0.285,14.492-8.266,13.048-16.763L2217.194,983.683z M1922.356,730.8c-9.867-0.669-16.714-10.052-15.279-20.955&#10;&#9;&#9;&#9;&#9;c1.435-10.904,10.605-19.173,20.467-18.471c9.846,0.701,16.654,10.081,15.224,20.952&#10;&#9;&#9;&#9;&#9;C1941.337,723.196,1932.205,731.468,1922.356,730.8z" style="fill:#97A6B7;"/>
			<g>
				<path d="M2094.607,1033.33c-63.896-43.147-112.923-12.554-152.745-61.218&#10;&#9;&#9;&#9;&#9;&#9;c-42.63-52.095-13.878-120.677-57.987-153.039c-28.239-20.719-53.429-2.445-86.273-8.054&#10;&#9;&#9;&#9;&#9;&#9;c-12.025-2.053-24.86-7.282-38.195-17.474l-17.696,75.466c-9.177,39.135-43.793,67.412-80.55,65.611l-82.599-4.049&#10;&#9;&#9;&#9;&#9;&#9;c-13.528-0.663-26.804,7.962-33.034,21.483l-49.774,108.036c-4.076,8.847,0.943,18.406,9.827,18.727l650.975,23.652&#10;&#9;&#9;&#9;&#9;&#9;C2140.159,1073.986,2119.791,1050.334,2094.607,1033.33z" style="opacity:0.5;fill:#FFFFFF;"/>
			</g>
			<g>
				<g>
					<path d="M1514.648,1861.653v105.015l-99.241,3.665v-106.01L1514.648,1861.653L1514.648,1861.653z&#10;&#9;&#9;&#9;&#9;&#9;&#9; M1525.381,1850.627l-120.708,3.247v127.595l120.708-4.457V1850.627L1525.381,1850.627z" style="fill:#D8DEE8;"/>
					<polygon points="2326.785,1947.419 1569.828,1975.371 1569.828,1849.431 2326.785,1829.067" style="fill:#D8DEE8;"/>
				</g>
				<g>
					<path d="M1514.648,2045.965v105.002l-99.241,5.114v-105.998L1514.648,2045.965L1514.648,2045.965z&#10;&#9;&#9;&#9;&#9;&#9;&#9; M1525.381,2034.777l-120.708,5.01v127.595l120.708-6.221V2034.777L1525.381,2034.777z" style="fill:#D8DEE8;"/>
					<polygon points="2326.785,2119.865 1569.828,2158.872 1569.828,2032.932 2326.785,2001.512" style="fill:#D8DEE8;"/>
				</g>
				<g>
					<path d="M1514.648,2230.28v104.985l-99.241,6.563v-105.98L1514.648,2230.28L1514.648,2230.28z&#10;&#9;&#9;&#9;&#9;&#9;&#9; M1525.381,2218.927l-120.708,6.773v127.595l120.708-7.983V2218.927L1525.381,2218.927z" style="fill:#D8DEE8;"/>
					<polygon points="2326.785,2292.31 1569.828,2342.373 1569.828,2216.433 2326.785,2173.958" style="fill:#D8DEE8;"/>
				</g>
				<g>
					<path d="M1514.648,2414.596v104.964l-99.241,8.013v-105.959L1514.648,2414.596L1514.648,2414.596z&#10;&#9;&#9;&#9;&#9;&#9;&#9; M1525.381,2403.077l-120.708,8.536v127.595l120.708-9.746V2403.077L1525.381,2403.077z" style="fill:#D8DEE8;"/>
					<polygon points="2326.785,2464.756 1569.828,2525.873 1569.828,2399.934 2326.785,2346.403" style="fill:#D8DEE8;"/>
				</g>
				<path d="M1404.672,1740.944c-1.406,0-2.758-0.552-3.76-1.539c-1.029-1.009-1.608-2.388-1.608-3.828&#10;&#9;&#9;&#9;&#9;&#9;v-595.502c0-1.45,0.589-2.839,1.628-3.849c1.043-1.009,2.361-1.581,3.898-1.515l480.005,14.002&#10;&#9;&#9;&#9;&#9;&#9;c2.899,0.086,5.21,2.462,5.21,5.365v573.047c0,2.928-2.348,5.314-5.274,5.367l-480.005,8.453&#10;&#9;&#9;&#9;&#9;&#9;C1404.736,1740.944,1404.702,1740.944,1404.672,1740.944z M1410.04,1145.602v584.513l469.268-8.263V1159.29L1410.04,1145.602z&#10;&#9;&#9;&#9;&#9;&#9; M1884.677,1727.125h0.034H1884.677z" style="fill:#D8DEE8;"/>
				<polygon points="2326.785,1239.726 1960.062,1231.287 1960.062,1156.277 2326.785,1166.975" style="fill:#D8DEE8;"/>
				<polygon points="2326.785,1401.393 1960.062,1397.976 1960.062,1360.471 2326.785,1365.018" style="fill:#D8DEE8;"/>
				<polygon points="2326.785,1461.345 1960.062,1459.79 1960.062,1422.285 2326.785,1424.97" style="fill:#D8DEE8;"/>
				<polygon points="2326.785,1521.297 1960.062,1521.603 1960.062,1484.099 2326.785,1484.922" style="fill:#D8DEE8;"/>
				<g>
					<polygon points="1423.389,1714.397 1423.389,1486.058 1493.272,1475.026 1791.778,1471.852 &#10;&#9;&#9;&#9;&#9;&#9;&#9;1867.295,1485.415 1867.295,1707.308" style="fill:#D8DEE8;"/>
					<g>
						<path d="M1660.172,1329.366c3.452,35.067,6.901,70.114,10.349,105.141&#10;&#9;&#9;&#9;&#9;&#9;&#9;&#9;c0.934,9.487,8.037,16.951,16.905,17.776c34.979,3.253,73.391,20.512,107.98,23.701l-158.588,49.511l-139.918-46.337&#10;&#9;&#9;&#9;&#9;&#9;&#9;&#9;c37.742-5.749,65.218-17.817,92.918-26.806c7.095-2.303,12.224-8.835,13.089-16.665c2.4-21.71,4.798-43.411,7.196-65.104&#10;&#9;&#9;&#9;&#9;&#9;&#9;&#9;L1660.172,1329.366z" style="fill:#FFFFFF;"/>
						<path d="M1636.817,1530.862c-0.568,0-1.14-0.091-1.688-0.272l-139.917-46.338&#10;&#9;&#9;&#9;&#9;&#9;&#9;&#9;c-2.354-0.78-3.868-3.073-3.659-5.547c0.208-2.472,2.085-4.479,4.541-4.854c28.136-4.287,50.325-12.097,71.785-19.65&#10;&#9;&#9;&#9;&#9;&#9;&#9;&#9;c6.963-2.45,13.538-4.766,20.286-6.954c5.082-1.651,8.776-6.421,9.408-12.151l7.198-65.105&#10;&#9;&#9;&#9;&#9;&#9;&#9;&#9;c0.155-1.389,0.844-2.664,1.924-3.554l50.07-41.217c1.53-1.26,3.629-1.574,5.462-0.816c1.83,0.757,3.094,2.462,3.289,4.433&#10;&#9;&#9;&#9;&#9;&#9;&#9;&#9;l10.346,105.141c0.683,6.922,5.755,12.371,12.062,12.96c18.005,1.673,36.908,6.963,55.186,12.077&#10;&#9;&#9;&#9;&#9;&#9;&#9;&#9;c17.706,4.953,36.013,10.076,52.791,11.623c2.546,0.235,4.574,2.237,4.844,4.781c0.269,2.543-1.295,4.924-3.737,5.686&#10;&#9;&#9;&#9;&#9;&#9;&#9;&#9;l-158.591,49.511C1637.897,1530.782,1637.355,1530.862,1636.817,1530.862z M1518.245,1480.574l118.619,39.285l135.258-42.228&#10;&#9;&#9;&#9;&#9;&#9;&#9;&#9;c-10.629-2.324-21.369-5.33-31.907-8.278c-17.82-4.986-36.249-10.141-53.289-11.727&#10;&#9;&#9;&#9;&#9;&#9;&#9;&#9;c-11.416-1.063-20.561-10.565-21.749-22.593l-9.361-95.131l-40.618,33.439l-6.959,62.935&#10;&#9;&#9;&#9;&#9;&#9;&#9;&#9;c-1.097,9.914-7.676,18.229-16.764,21.18c-6.623,2.149-13.138,4.442-20.037,6.87&#10;&#9;&#9;&#9;&#9;&#9;&#9;&#9;C1554.942,1470.134,1538.023,1476.09,1518.245,1480.574z" style="fill:#D8DEE8;"/>
					</g>
					<g>
						<g>
							<path d="M1698.016,1326.083c0,51.28-27.325,111.243-61.198,111.041&#10;&#9;&#9;&#9;&#9;&#9;&#9;&#9;&#9;c-34.057-0.202-61.803-61.087-61.803-112.874s27.746-74.453,61.803-73.742&#10;&#9;&#9;&#9;&#9;&#9;&#9;&#9;&#9;C1670.691,1251.215,1698.016,1274.802,1698.016,1326.083z" style="fill:#FFFFFF;"/>
							<path d="M1636.992,1442.49c-0.067,0-0.138,0-0.209,0c-37.81-0.224-67.136-63.744-67.136-118.24&#10;&#9;&#9;&#9;&#9;&#9;&#9;&#9;&#9;c0-26.915,7.433-48.422,21.493-62.19c11.692-11.448,27.554-17.299,45.788-16.917c48.997,1.024,66.457,42.483,66.457,80.94&#10;&#9;&#9;&#9;&#9;&#9;&#9;&#9;&#9;c0,39.019-14.833,81.014-36.071,102.126C1657.779,1437.687,1647.577,1442.49,1636.992,1442.49z M1635.27,1255.857&#10;&#9;&#9;&#9;&#9;&#9;&#9;&#9;&#9;c-14.702,0-27.339,4.781-36.619,13.871c-11.951,11.703-18.267,30.558-18.267,54.521c0,48.243,26.054,107.327,56.464,107.507&#10;&#9;&#9;&#9;&#9;&#9;&#9;&#9;&#9;c7.847,0.042,15.405-3.708,22.899-11.16c19.064-18.954,32.902-58.702,32.902-94.514c0-43.232-20.911-69.477-55.943-70.211&#10;&#9;&#9;&#9;&#9;&#9;&#9;&#9;&#9;C1636.225,1255.862,1635.747,1255.857,1635.27,1255.857z" style="fill:#D8DEE8;"/>
						</g>
					</g>
				</g>
			</g>
			
				<linearGradient y2="2702.3748" x2="1644.2028" y1="1799.0583" x1="1464.1548" gradientUnits="userSpaceOnUse" id="SVGID_00000047760085643442113210000010534183645196464547_">
				<stop style="stop-color:#FF9085" offset="0"/>
				<stop style="stop-color:#FB6FBB" offset="1"/>
			</linearGradient>
			<path d="M1419.984,1914.641&#10;&#9;&#9;&#9;&#9;c0,0,33.121,27.669,39.5,44.702c0.532,0.748,10.966-1.761,12.174-1.249c3.712-7.473,9.513-27.861,24.793-51.344&#10;&#9;&#9;&#9;&#9;c20.017-30.764,43.539-60.565,43.944-60.943c0.021-0.02,0.171-0.147,0.198-0.324c0.148-0.963-3.731-2.606-4.351-1.996&#10;&#9;&#9;&#9;&#9;c-4.034,3.971-27.531,27.016-46.621,50.744c-16.057,19.959-28.504,41.521-28.504,41.521s-31.65-24.442-35.927-25.856&#10;&#9;&#9;&#9;&#9;C1423.455,1911.477,1421.719,1913.059,1419.984,1914.641z" style="fill:url(#SVGID_00000047760085643442113210000010534183645196464547_);"/>
			
				<linearGradient y2="2709.689" x2="1607.5063" y1="1806.3727" x1="1427.4584" gradientUnits="userSpaceOnUse" id="SVGID_00000085932155232158613170000006155175097089068168_">
				<stop style="stop-color:#FF9085" offset="0"/>
				<stop style="stop-color:#FB6FBB" offset="1"/>
			</linearGradient>
			<path d="M1419.984,2106.064&#10;&#9;&#9;&#9;&#9;c0,0,33.121,27.67,39.5,44.702c0.532,0.748,10.966-1.761,12.174-1.249c3.712-7.473,9.513-27.861,24.793-51.344&#10;&#9;&#9;&#9;&#9;c20.017-30.764,43.539-60.565,43.944-60.943c0.021-0.02,0.171-0.147,0.198-0.324c0.148-0.963-3.731-2.606-4.351-1.996&#10;&#9;&#9;&#9;&#9;c-4.034,3.971-27.531,27.016-46.621,50.744c-16.057,19.959-28.504,41.521-28.504,41.521s-31.65-24.442-35.927-25.855&#10;&#9;&#9;&#9;&#9;C1423.455,2102.9,1421.719,2104.482,1419.984,2106.064z" style="fill:url(#SVGID_00000085932155232158613170000006155175097089068168_);"/>
			
				<linearGradient y2="2902.9585" x2="1607.5063" y1="1999.6422" x1="1427.4584" gradientUnits="userSpaceOnUse" id="SVGID_00000175285870191128216410000006227652836745953925_">
				<stop style="stop-color:#FF9085" offset="0"/>
				<stop style="stop-color:#FB6FBB" offset="1"/>
			</linearGradient>
			<path d="M1419.984,2299.333&#10;&#9;&#9;&#9;&#9;c0,0,33.121,27.67,39.5,44.702c0.532,0.748,10.966-1.761,12.174-1.249c3.712-7.473,9.513-27.861,24.793-51.344&#10;&#9;&#9;&#9;&#9;c20.017-30.764,43.539-60.565,43.944-60.943c0.021-0.02,0.171-0.147,0.198-0.324c0.148-0.963-3.731-2.606-4.351-1.996&#10;&#9;&#9;&#9;&#9;c-4.034,3.97-27.531,27.016-46.621,50.743c-16.057,19.959-28.504,41.521-28.504,41.521s-31.65-24.442-35.927-25.855&#10;&#9;&#9;&#9;&#9;C1423.455,2296.17,1421.719,2297.752,1419.984,2299.333z" style="fill:url(#SVGID_00000175285870191128216410000006227652836745953925_);"/>
			
				<linearGradient y2="2723.7612" x2="1536.9021" y1="1820.4451" x1="1356.8541" gradientUnits="userSpaceOnUse" id="SVGID_00000084494036176768253360000011604614561187534770_">
				<stop style="stop-color:#FF9085" offset="0"/>
				<stop style="stop-color:#FB6FBB" offset="1"/>
			</linearGradient>
			<path d="M1419.984,2474.364&#10;&#9;&#9;&#9;&#9;c0,0,33.121,27.67,39.5,44.702c0.532,0.748,10.966-1.761,12.174-1.25c3.712-7.473,9.513-27.861,24.793-51.344&#10;&#9;&#9;&#9;&#9;c20.017-30.764,43.539-60.565,43.944-60.943c0.021-0.02,0.171-0.147,0.198-0.324c0.148-0.963-3.731-2.606-4.351-1.996&#10;&#9;&#9;&#9;&#9;c-4.034,3.971-27.531,27.016-46.621,50.744c-16.057,19.959-28.504,41.521-28.504,41.521s-31.65-24.442-35.927-25.855&#10;&#9;&#9;&#9;&#9;C1423.455,2471.2,1421.719,2472.782,1419.984,2474.364z" style="fill:url(#SVGID_00000084494036176768253360000011604614561187534770_);"/>
		</g>
		<g>
			
				<linearGradient gradientTransform="matrix(1 0 0 1 -5153.7842 0)" y2="2213.8359" x2="7755.0146" y1="2553.2759" x1="7732.2163" gradientUnits="userSpaceOnUse" id="SVGID_00000054976926144486292800000005116548061697029273_">
				<stop style="stop-color:#444B8C" offset="0"/>
				<stop style="stop-color:#26264F" offset="0.9964"/>
			</linearGradient>
			<path d="M2567.682,2242.114&#10;&#9;&#9;&#9;&#9;c0,0,52.535,17.722,58.118,109.323c-8.591-0.716-28.62,0-28.62,0s3.709-66.615-33.66-79.557&#10;&#9;&#9;&#9;&#9;C2566.527,2264.115,2567.682,2242.114,2567.682,2242.114z" style="fill:url(#SVGID_00000054976926144486292800000005116548061697029273_);"/>
			
				<linearGradient gradientTransform="matrix(1 0 0 1 -5153.7842 0)" y2="2197.2729" x2="7633.9829" y1="2434.0669" x1="7618.0786" gradientUnits="userSpaceOnUse" id="SVGID_00000181078088184201509480000012599926458827794062_">
				<stop style="stop-color:#311944" offset="0.1"/>
				<stop style="stop-color:#371B47" offset="0.267"/>
				<stop style="stop-color:#462150" offset="0.4803"/>
				<stop style="stop-color:#612A5F" offset="0.7186"/>
				<stop style="stop-color:#853774" offset="0.9736"/>
				<stop style="stop-color:#893976" offset="1"/>
			</linearGradient>
			<path d="M2374.928,2236.614&#10;&#9;&#9;&#9;&#9;c1.31,16.677,2.619,33.355,3.929,50.032c25.962-7.49,54.354-16.179,84.875-17.776c39.685-2.076,76.057,2.547,108.452,10.583&#10;&#9;&#9;&#9;&#9;c1.44-2.106,4.493-7.169,5.901-15.415c2.268-13.287-1.53-24.314-2.234-26.279c-16.502-6.123-34.396-11.257-53.571-14.753&#10;&#9;&#9;&#9;&#9;C2467.298,2212.983,2417.615,2222.927,2374.928,2236.614z" style="fill:url(#SVGID_00000181078088184201509480000012599926458827794062_);"/>
			
				<linearGradient gradientTransform="matrix(1 0 0 1 -5153.7842 0)" y2="2358.7312" x2="7712.1069" y1="2264.4353" x1="7536.2246" gradientUnits="userSpaceOnUse" id="SVGID_00000050621066609505427490000006726387887715462314_">
				<stop style="stop-color:#311944" offset="0.1"/>
				<stop style="stop-color:#371B47" offset="0.267"/>
				<stop style="stop-color:#462150" offset="0.4803"/>
				<stop style="stop-color:#612A5F" offset="0.7186"/>
				<stop style="stop-color:#853774" offset="0.9736"/>
				<stop style="stop-color:#893976" offset="1"/>
			</linearGradient>
			<path d="M2372.481,2251.064&#10;&#9;&#9;&#9;&#9;c0.077-6.032,0.511-13.565,2.447-14.45c1.823-0.834,4.273,4.62,5.327,7.651c0.439,1.262,1.406,4.319,2.011,14.052&#10;&#9;&#9;&#9;&#9;c0.78,12.549-0.129,18.7-0.962,22.498c-0.501,2.284-1.282,5.744-2.447,5.831c-0.935,0.07-1.747-2.115-2.958-6.345&#10;&#9;&#9;&#9;&#9;C2374.268,2274.604,2372.302,2265.098,2372.481,2251.064z" style="fill:url(#SVGID_00000050621066609505427490000006726387887715462314_);"/>
			
				<linearGradient gradientTransform="matrix(1 0 0 1 -5153.7842 0)" y2="2208.5039" x2="7512.3179" y1="2593.3711" x1="7486.4683" gradientUnits="userSpaceOnUse" id="SVGID_00000052087747070645997980000011296500228070652345_">
				<stop style="stop-color:#444B8C" offset="0"/>
				<stop style="stop-color:#26264F" offset="0.9964"/>
			</linearGradient>
			<path d="M2324.632,2356.449&#10;&#9;&#9;&#9;&#9;c10.885,2.157,37.35,8.611,37.35,8.611s-17.256-58.588,15.28-85.631c0.843-4.426,1.698-11.452,0.67-19.898&#10;&#9;&#9;&#9;&#9;c-0.795-6.533-2.455-11.752-3.887-15.368C2360.232,2252.42,2330.164,2280.197,2324.632,2356.449z" style="fill:url(#SVGID_00000052087747070645997980000011296500228070652345_);"/>
			
				<linearGradient gradientTransform="matrix(1 0 0 1 -5153.7842 0)" y2="1649.5071" x2="7201.5986" y1="2560.8064" x1="7301.2925" gradientUnits="userSpaceOnUse" id="SVGID_00000052102999260836395310000012931811738945783936_">
				<stop style="stop-color:#311944" offset="0.1"/>
				<stop style="stop-color:#6D2F66" offset="0.6853"/>
				<stop style="stop-color:#893976" offset="1"/>
			</linearGradient>
			<path d="M2099.512,2371.884&#10;&#9;&#9;&#9;&#9;c0,0,1.332-30.767,46.724-30.767c7.148,5.608,7.506,30.767,7.506,30.767H2099.512z" style="fill:url(#SVGID_00000052102999260836395310000012931811738945783936_);"/>
			
				<linearGradient gradientTransform="matrix(1 0 0 1 -5153.7842 0)" y2="2576.4805" x2="7074.3208" y1="2943.2915" x1="7733.0825" gradientUnits="userSpaceOnUse" id="SVGID_00000130614833879508263130000005739852379243637155_">
				<stop style="stop-color:#311944" offset="0"/>
				<stop style="stop-color:#893976" offset="1"/>
			</linearGradient>
			<path d="M2059.206,2976.726l124.224,81.09&#10;&#9;&#9;&#9;&#9;l75.267-297.802l-124.019-399.248l-35.167,11.118l-53.359,573.391C2044.945,2958.254,2050.161,2970.821,2059.206,2976.726z" style="fill:url(#SVGID_00000130614833879508263130000005739852379243637155_);"/>
			
				<linearGradient gradientTransform="matrix(1 0 0 1 -5153.7842 0)" y2="2765.7148" x2="7338.5933" y1="2429.8208" x1="7138.2896" gradientUnits="userSpaceOnUse" id="SVGID_00000057111894137571218280000008797977476996807323_">
				<stop style="stop-color:#311944" offset="0"/>
				<stop style="stop-color:#893976" offset="1"/>
			</linearGradient>
			<path d="M2258.698,2760.014&#10;&#9;&#9;&#9;&#9;l-124.02-399.247l-35.167,11.118c8.659,35.236,12.811,92.618,14.765,124.56c8.314,135.931,35.925,173.758,22.55,268.586&#10;&#9;&#9;&#9;&#9;c-11.122,78.848-35.41,89.55-33.287,142.599c2.313,57.776,33.566,106.158,70.725,144.205l9.166,5.982L2258.698,2760.014z" style="opacity:0.3;fill:url(#SVGID_00000057111894137571218280000008797977476996807323_);"/>
			
				<linearGradient gradientTransform="matrix(1 0 0 1 -5153.7842 0)" y2="3012.5813" x2="7706.5981" y1="2026.994" x1="7633.1626" gradientUnits="userSpaceOnUse" id="SVGID_00000034070094621643463430000012979548181331389353_">
				<stop style="stop-color:#311944" offset="0.1"/>
				<stop style="stop-color:#6D2F66" offset="0.6853"/>
				<stop style="stop-color:#893976" offset="1"/>
			</linearGradient>
			<polygon points="2134.678,2360.767 &#10;&#9;&#9;&#9;&#9;2816.769,2360.767 2924.155,2993.614 2183.43,3057.816" style="fill:url(#SVGID_00000034070094621643463430000012979548181331389353_);"/>
			<g style="opacity:0.2;">
				
					<linearGradient gradientTransform="matrix(1 0 0 1 -5153.7842 0)" y2="2997.1001" x2="8043.1846" y1="2586.2944" x1="7510.0122" gradientUnits="userSpaceOnUse" id="SVGID_00000033363850857876150640000017276108951027630733_">
					<stop style="stop-color:#311944" offset="0"/>
					<stop style="stop-color:#893976" offset="1"/>
				</linearGradient>
				<path d="M2816.77,2360.767h-229.782&#10;&#9;&#9;&#9;&#9;&#9;c-4.232,12.967-10.701,30.908-20.143,51.207c-102.761,220.901-338.006,248.737-333.756,285.04&#10;&#9;&#9;&#9;&#9;&#9;c6.353,54.263,530.205-22.758,543.58,51.804c6.456,35.994-104.165,117.812-219.759,148.792&#10;&#9;&#9;&#9;&#9;&#9;c-138.405,37.093-240.113-9.656-307.758,73.687c-22.905,28.219-33.015,61.277-37.941,83.634l712.945-61.315L2816.77,2360.767z" style="fill:url(#SVGID_00000033363850857876150640000017276108951027630733_);"/>
			</g>
			
				<linearGradient gradientTransform="matrix(1 0 0 1 -5153.7842 0)" y2="2518.6301" x2="7596.0947" y1="2527.1113" x1="7377.7026" gradientUnits="userSpaceOnUse" id="SVGID_00000011741817920332410380000001782391718986669733_">
				<stop style="stop-color:#311944" offset="0.1"/>
				<stop style="stop-color:#6D2F66" offset="0.6853"/>
				<stop style="stop-color:#893976" offset="1"/>
			</linearGradient>
			<path d="M2146.236,2341.117&#10;&#9;&#9;&#9;&#9;c-7.685,0-18.428-1.032-30.112,6.363c-2.495,1.579-4.697,3.316-6.63,5.081l5.379-2.061c8.654-2.736,20.586,0.905,25.042,10.266&#10;&#9;&#9;&#9;&#9;c5.476,11.505,7.448,38.127,8.645,51.314c3.406,37.512,24.339,270.913,24.339,270.913c1.568,19.679,15.426,34.583,31.803,34.203&#10;&#9;&#9;&#9;&#9;l634.482-35.585c4.818-0.112,9.58-1.732,13.556-5.019c8.295-6.857,12.042-18.752,10.119-30.053l-32.144-277.979&#10;&#9;&#9;&#9;&#9;c-2.719-15.977-14.37-27.445-27.884-27.445H2146.236z" style="fill:url(#SVGID_00000011741817920332410380000001782391718986669733_);"/>
			
				<linearGradient gradientTransform="matrix(1 0 0 1 -5153.7842 0)" y2="2403.6482" x2="7641.541" y1="3292.2126" x1="7720.6084" gradientUnits="userSpaceOnUse" id="SVGID_00000017486353487872747350000011420861226911288499_">
				<stop style="stop-color:#311944" offset="0.1"/>
				<stop style="stop-color:#371B47" offset="0.267"/>
				<stop style="stop-color:#462150" offset="0.4803"/>
				<stop style="stop-color:#612A5F" offset="0.7186"/>
				<stop style="stop-color:#853774" offset="0.9736"/>
				<stop style="stop-color:#893976" offset="1"/>
			</linearGradient>
			<path d="M2153.027,2341.117&#10;&#9;&#9;&#9;&#9;c-7.684,0-16.799-1.132-26.957,1.808c-2.739,0.793-7.122,2.247-9.054,4.012c0,0,21.536-5.55,29.69,13.83&#10;&#9;&#9;&#9;&#9;c4.978,11.831,7.448,38.127,8.645,51.314c3.406,37.512,24.339,270.913,24.339,270.913c1.568,19.679,15.426,34.583,31.803,34.203&#10;&#9;&#9;&#9;&#9;l641.63-14.878c4.818-0.112,9.58-1.732,13.556-5.019c8.295-6.857,12.042-18.752,10.119-30.052l-39.292-298.686&#10;&#9;&#9;&#9;&#9;c-2.719-15.977-14.37-27.445-27.884-27.445H2153.027z" style="fill:url(#SVGID_00000017486353487872747350000011420861226911288499_);"/>
			
				<linearGradient gradientTransform="matrix(1 0 0 1 -5153.7842 0)" y2="2272.8411" x2="7625.0942" y1="3496.9307" x1="7759.0068" gradientUnits="userSpaceOnUse" id="SVGID_00000096770872842913091730000008045875583016686481_">
				<stop style="stop-color:#311944" offset="0"/>
				<stop style="stop-color:#893976" offset="1"/>
			</linearGradient>
			<path d="M2876.797,2667.247&#10;&#9;&#9;&#9;&#9;l-39.292-298.685c-2.719-15.977-14.37-27.445-27.884-27.445h-656.594c-7.684,0-16.798-1.133-26.957,1.808&#10;&#9;&#9;&#9;&#9;c-2.739,0.793-7.122,2.247-9.054,4.012c0,0,21.536-5.55,29.69,13.83c0.784,1.865,1.5,4.118,2.164,6.593&#10;&#9;&#9;&#9;&#9;c62.355,2.661,124.711,0.746,187.066,5.087c123.265,8.358,247.914,8.358,364.253,61.851&#10;&#9;&#9;&#9;&#9;c37.214,17.111,62.726,78.584,52.63,106.984c-7.28,20.477-32.121,18.855-40.791,45.728c-9.117,28.261,12.744,47.464,3.574,67.296&#10;&#9;&#9;&#9;&#9;c-9.61,20.787-38.798,10.884-86.048,25.722c-26.033,8.175-46.001,20.234-58.472,28.831l282.041-6.54&#10;&#9;&#9;&#9;&#9;c4.818-0.112,9.58-1.732,13.556-5.019C2874.973,2690.444,2878.72,2678.548,2876.797,2667.247z" style="opacity:0.1;fill:url(#SVGID_00000096770872842913091730000008045875583016686481_);"/>
			<g>
				
					<linearGradient gradientTransform="matrix(1 0 0 1 -5153.7842 0)" y2="2563.7595" x2="7388.2051" y1="2771.0769" x1="7784.812" gradientUnits="userSpaceOnUse" id="SVGID_00000042728076416369716180000017210275867931711662_">
					<stop style="stop-color:#444B8C" offset="0"/>
					<stop style="stop-color:#26264F" offset="0.9964"/>
				</linearGradient>
				<path d="M2569.734,2757.925l-80.346,20.769&#10;&#9;&#9;&#9;&#9;&#9;l-8.485,0.746c-8.55,0.751-15.908-7.183-16.281-17.64l-3.526-98.848c-0.373-10.456,6.393-19.125,14.964-19.263l8.529-0.137&#10;&#9;&#9;&#9;&#9;&#9;l80.767,11.034c7.716-0.125,14.215-4.536,14.564,5.27l3.307,92.704C2583.577,2762.366,2577.43,2757.249,2569.734,2757.925z" style="fill:url(#SVGID_00000042728076416369716180000017210275867931711662_);"/>
				
					<linearGradient gradientTransform="matrix(1 0 0 1 -5153.7842 0)" y2="2814.854" x2="7383.3667" y1="2336.1487" x1="8717.9385" gradientUnits="userSpaceOnUse" id="SVGID_00000013905040926332203970000006653841388697544857_">
					<stop style="stop-color:#444B8C" offset="0"/>
					<stop style="stop-color:#26264F" offset="0.9964"/>
				</linearGradient>
				<path d="M2575.843,2771.615l-89.016,7.825&#10;&#9;&#9;&#9;&#9;&#9;c-8.55,0.751-15.908-7.183-16.281-17.64l-3.526-98.848c-0.373-10.456,6.393-19.125,14.964-19.263l89.244-1.438&#10;&#9;&#9;&#9;&#9;&#9;c7.716-0.125,14.266,7.798,14.616,17.604l3.307,92.704C2589.501,2762.366,2583.539,2770.938,2575.843,2771.615z" style="fill:url(#SVGID_00000013905040926332203970000006653841388697544857_);"/>
			</g>
		</g>
		<g>
			
				<linearGradient gradientTransform="matrix(0.9643 -0.2648 0.2648 0.9643 566.8516 686.7058)" y2="1352.1364" x2="709.4968" y1="1132.0994" x1="788.3781" gradientUnits="userSpaceOnUse" id="SVGID_00000007406941889767128980000009998634318179097754_">
				<stop style="stop-color:#FFC444" offset="0"/>
				<stop style="stop-color:#F36F56" offset="0.9964"/>
			</linearGradient>
			<path d="M1594.778,1523.456&#10;&#9;&#9;&#9;&#9;c0,0,0.649-33.199,15.98-38.34c15.331-5.141,67.496-45.512,64.377-29.772s-25.921,27.849-25.921,27.849&#10;&#9;&#9;&#9;&#9;s19.212,23.913-5.246,37.916C1619.51,1535.112,1573.068,1581.966,1594.778,1523.456z" style="fill:url(#SVGID_00000007406941889767128980000009998634318179097754_);"/>
			
				<linearGradient gradientTransform="matrix(1 -0.009 0.009 1 689.0882 527.9237)" y2="1440.0868" x2="286.2785" y1="817.4523" x1="1237.8289" gradientUnits="userSpaceOnUse" id="SVGID_00000082340326969643762370000002040273475782264993_">
				<stop style="stop-color:#FF9085" offset="0"/>
				<stop style="stop-color:#FB6FBB" offset="1"/>
			</linearGradient>
			<path d="M1588.775,1514.173&#10;&#9;&#9;&#9;&#9;c11.631,14.083,23.26,28.158,34.891,42.24c-7.177,31.566-20.633,75.769-47.354,123.743&#10;&#9;&#9;&#9;&#9;c-11.786,21.161-48.68,83.49-116.619,137.696c-92.484,73.788-266.97,152.04-327.067,90.431&#10;&#9;&#9;&#9;&#9;c-53.625-54.972,8.4-196.123,19.888-221.503c29.828,10.289-9.161-22.139,138.845,20.749&#10;&#9;&#9;&#9;&#9;c19.041,5.518,71.328-3.071,127.101-26.937C1521.68,1636.424,1572.098,1547.362,1588.775,1514.173z" style="fill:url(#SVGID_00000082340326969643762370000002040273475782264993_);"/>
			
				<linearGradient gradientTransform="matrix(-0.9968 0.0799 0.0799 0.9968 2308.6487 65.4365)" y2="3170.6743" x2="1373.8331" y1="2674.6111" x1="1236.3698" gradientUnits="userSpaceOnUse" id="SVGID_00000008860615119918045150000005144018787951789449_">
				<stop style="stop-color:#311944" offset="0"/>
				<stop style="stop-color:#893976" offset="1"/>
			</linearGradient>
			<path d="M1177.384,3121.406&#10;&#9;&#9;&#9;&#9;c0,0-4.412,27.008-3.85,36.619c0.56,9.612,107.224,14.526,108.302,7.325c1.077-7.201-17.631-18.65-30.798-22.691&#10;&#9;&#9;&#9;&#9;c-13.168-4.042-51.708-14.827-51.708-14.827L1177.384,3121.406z" style="fill:url(#SVGID_00000008860615119918045150000005144018787951789449_);"/>
			
				<linearGradient gradientTransform="matrix(-0.9968 0.0799 0.0799 0.9968 2308.6487 65.4365)" y2="2857.9849" x2="1360.7036" y1="3025.3325" x1="1358.7113" gradientUnits="userSpaceOnUse" id="SVGID_00000066491641019944510240000011170778822641458830_">
				<stop style="stop-color:#FFC444" offset="0"/>
				<stop style="stop-color:#F36F56" offset="0.9964"/>
			</linearGradient>
			<path d="M1203.275,3094.481l-3.402,33.582&#10;&#9;&#9;&#9;&#9;c0,0-12.39,8.188-23.307,1.868l-5.463-36.554L1203.275,3094.481z" style="fill:url(#SVGID_00000066491641019944510240000011170778822641458830_);"/>
			
				<linearGradient gradientTransform="matrix(-0.9968 0.0799 0.0799 0.9968 2308.6487 65.4365)" y2="3122.98" x2="1545.9343" y1="2626.9133" x1="1408.4701" gradientUnits="userSpaceOnUse" id="SVGID_00000122702788420387359470000007869803228947105964_">
				<stop style="stop-color:#311944" offset="0"/>
				<stop style="stop-color:#893976" offset="1"/>
			</linearGradient>
			<path d="M987.077,3165.188&#10;&#9;&#9;&#9;&#9;c0,0-4.413,27.007-3.852,36.619s107.226,14.526,108.303,7.325c1.078-7.2-17.631-18.65-30.798-22.692&#10;&#9;&#9;&#9;&#9;c-13.167-4.041-51.706-14.827-51.706-14.827L987.077,3165.188z" style="fill:url(#SVGID_00000122702788420387359470000007869803228947105964_);"/>
			
				<linearGradient gradientTransform="matrix(-0.9968 0.0799 0.0799 0.9968 2308.6487 65.4365)" y2="2860.2832" x2="1554.2122" y1="3027.6321" x1="1552.2198" gradientUnits="userSpaceOnUse" id="SVGID_00000003088608404622072730000012693568207167312536_">
				<stop style="stop-color:#FFC444" offset="0"/>
				<stop style="stop-color:#F36F56" offset="0.9964"/>
			</linearGradient>
			<path d="M1012.967,3138.263l-3.403,33.583&#10;&#9;&#9;&#9;&#9;c0,0-12.389,8.188-23.307,1.867l-5.462-36.554L1012.967,3138.263z" style="fill:url(#SVGID_00000003088608404622072730000012693568207167312536_);"/>
			
				<linearGradient gradientTransform="matrix(-0.9968 0.0799 0.0799 0.9968 2308.6487 65.4365)" y2="2487.1274" x2="1440.4069" y1="2487.1274" x1="1262.2305" gradientUnits="userSpaceOnUse" id="SVGID_00000156555274691936512890000002724980334299092865_">
				<stop style="stop-color:#444B8C" offset="0"/>
				<stop style="stop-color:#26264F" offset="0.9964"/>
			</linearGradient>
			<path d="M1183.919,2217.77&#10;&#9;&#9;&#9;&#9;c12.329,24.996,24.659,49.992,36.989,74.987c9.915,142.647,14.843,297.758,11.678,463.639&#10;&#9;&#9;&#9;&#9;c-2.354,123.416-8.951,240.327-18.425,350.07c-16.716-0.765-33.433-1.537-50.15-2.301&#10;&#9;&#9;&#9;&#9;c-24.173-47.975-52.708-120.658-55.334-210.378c-2.74-93.587,25.634-106.013,23.834-195.62&#10;&#9;&#9;&#9;&#9;c-2.333-116.14-51.034-147.127-76.981-286.828c-9.922-53.426-16.603-123.206-8.662-207.866&#10;&#9;&#9;&#9;&#9;C1092.553,2208.237,1138.235,2213.007,1183.919,2217.77z" style="fill:url(#SVGID_00000156555274691936512890000002724980334299092865_);"/>
			
				<linearGradient gradientTransform="matrix(-0.9968 0.0799 0.0799 0.9968 2308.6487 65.4365)" y2="2487.1274" x2="1440.4072" y1="2487.1274" x1="1262.2339" gradientUnits="userSpaceOnUse" id="SVGID_00000144335617997235890230000009870111128219749019_">
				<stop style="stop-color:#444B8C" offset="0"/>
				<stop style="stop-color:#26264F" offset="0.9964"/>
			</linearGradient>
			<path d="M1046.868,2203.472&#10;&#9;&#9;&#9;&#9;c24.672,2.572,49.343,5.146,74.016,7.724c44.411,77.285,56.811,157.728,49.017,193.309&#10;&#9;&#9;&#9;&#9;c-11.025,50.343-40.192,66.469-38.589,117.013c1.586,50.012,31.052,62.98,49.744,121.927&#10;&#9;&#9;&#9;&#9;c12.939,40.812,9.524,78.336,2.163,151.72c-14.825,147.817-50.519,193.022-20.62,241.486c8.496,13.77,23.803,30.169,53.794,42.69&#10;&#9;&#9;&#9;&#9;c-0.734,9.064-1.457,18.158-2.232,27.125c-16.716-0.762-33.433-1.537-50.15-2.299c-24.173-47.981-52.708-120.659-55.334-210.38&#10;&#9;&#9;&#9;&#9;c-2.74-93.588,25.633-106.016,23.834-195.621c-2.333-116.14-51.034-147.124-76.981-286.825&#10;&#9;&#9;&#9;&#9;C1045.608,2357.914,1038.927,2288.133,1046.868,2203.472z" style="opacity:0.3;fill:url(#SVGID_00000144335617997235890230000009870111128219749019_);"/>
			
				<linearGradient gradientTransform="matrix(-0.9968 0.0799 0.0799 0.9968 2308.6487 65.4365)" y2="2512.5789" x2="1633.307" y1="2512.5789" x1="1362.8229" gradientUnits="userSpaceOnUse" id="SVGID_00000099661239236557609940000011874285681701766805_">
				<stop style="stop-color:#444B8C" offset="0"/>
				<stop style="stop-color:#26264F" offset="0.9964"/>
			</linearGradient>
			<path d="M1117.589,2262.771&#10;&#9;&#9;&#9;&#9;c-23.144,126.203-43.586,261.273-59.537,404.519c-19.258,172.958-29.536,336.015-33.577,487.406&#10;&#9;&#9;&#9;&#9;c-18.348,0.522-36.696,1.038-55.044,1.559c-72.301-143.031-76.718-240.004-66.294-303.14&#10;&#9;&#9;&#9;&#9;c4.017-24.329,14.927-72.034,17.418-143.33c1.735-49.698-1.435-87.521-5.396-132.987c-8.682-99.687-19.22-121.449-20.734-197.7&#10;&#9;&#9;&#9;&#9;c-1.423-71.561-1.716-107.77,18.711-128.905C966.957,2194.512,1106.968,2257.842,1117.589,2262.771z" style="fill:url(#SVGID_00000099661239236557609940000011874285681701766805_);"/>
			
				<linearGradient gradientTransform="matrix(-0.9968 0.0799 0.0799 0.9968 2308.6487 65.4365)" y2="1678.0118" x2="1302.8344" y1="2544.6353" x1="1906.4822" gradientUnits="userSpaceOnUse" id="SVGID_00000159466118570670513980000011554692575952604073_">
				<stop style="stop-color:#FF9085" offset="0"/>
				<stop style="stop-color:#FB6FBB" offset="1"/>
			</linearGradient>
			<path d="M1234.95,2318.349&#10;&#9;&#9;&#9;&#9;c17.58-29.169-4.501-57.302-9.527-112.567c-5.696-62.635,18.432-73.064,42.295-176.865&#10;&#9;&#9;&#9;&#9;c15.869-69.034,31.103-135.308,12.92-212.886c-8.714-37.18-23.493-100.24-75.682-130.699&#10;&#9;&#9;&#9;&#9;c-26.932-15.718-63.704-14.146-136.149-10.355c-89.587,4.684-134.379,7.026-167.785,24.617&#10;&#9;&#9;&#9;&#9;c-4.89,2.576-106.518,57.855-113.513,147.961c-7.121,91.708,92.754,104.035,106.075,226.333&#10;&#9;&#9;&#9;&#9;c5.98,54.901-4.68,139.34-11.592,194.107c-6.637,52.587-11.205,66.051-0.827,81.972c25.012,38.374,101.587,27.436,254.737,5.567&#10;&#9;&#9;&#9;&#9;C1195.975,2346.954,1221.832,2340.116,1234.95,2318.349z" style="fill:url(#SVGID_00000159466118570670513980000011554692575952604073_);"/>
			
				<linearGradient gradientTransform="matrix(-0.9968 0.0799 0.0799 0.9968 2308.6487 65.4365)" y2="1678.0432" x2="1302.7684" y1="2544.6819" x1="1906.4268" gradientUnits="userSpaceOnUse" id="SVGID_00000030472957413232971180000000606068262523839666_">
				<stop style="stop-color:#FF9085" offset="0"/>
				<stop style="stop-color:#FB6FBB" offset="1"/>
			</linearGradient>
			<path d="M1001.931,2054.214&#10;&#9;&#9;&#9;&#9;c-6.476,23.836-29.766,41.64-45.979,99.618c-3.5,12.519-28.431,101.661,3.908,123.604c18.68,12.672,35.448-11.338,80.783-14.473&#10;&#9;&#9;&#9;&#9;c78.558-5.434,115.981,60.59,167.297,42.561c8.903-3.133,20.658-9.801,32.393-25.127c2.337,13.811,1.936,25.806-5.383,37.952&#10;&#9;&#9;&#9;&#9;c-13.118,21.767-38.974,28.604-99.049,37.184c-153.151,21.868-229.725,32.807-254.737-5.567&#10;&#9;&#9;&#9;&#9;c-10.378-15.921-5.81-29.385,0.827-81.972c6.912-54.768,17.572-139.207,11.592-194.107&#10;&#9;&#9;&#9;&#9;c-13.32-122.298-113.196-134.625-106.075-226.333c1.903-24.517,10.922-46.348,22.981-65.348&#10;&#9;&#9;&#9;&#9;C937.187,1833.475,1022.286,1979.311,1001.931,2054.214z" style="opacity:0.2;fill:url(#SVGID_00000030472957413232971180000000606068262523839666_);"/>
			
				<linearGradient gradientTransform="matrix(-0.9968 0.0799 0.0799 0.9968 2308.6487 65.4365)" y2="2063.9604" x2="1636.2069" y1="2063.9604" x1="1538.8381" gradientUnits="userSpaceOnUse" id="SVGID_00000150082299553779120950000017150725395504396171_">
				<stop style="stop-color:#FFC444" offset="0"/>
				<stop style="stop-color:#F36F56" offset="0.9964"/>
			</linearGradient>
			<path d="M841.904,2234.612l25.349,16.185&#10;&#9;&#9;&#9;&#9;c4.552-5.256,15.089-15.859,31.542-19.48c18.537-4.074,39.815,1.77,40.31,7.685c0.397,4.74-12.56,9.52-14.563,10.26&#10;&#9;&#9;&#9;&#9;c-16.173,5.969-28.173,1.011-34.712,7.513c-2.312,2.3-5.195,6.575-11.822,10.538c-1.74,1.041-3.564,1.96-4.525,2.336&#10;&#9;&#9;&#9;&#9;c-10.794,4.197-29.312-14.596-30.904-16.237L841.904,2234.612z" style="fill:url(#SVGID_00000150082299553779120950000017150725395504396171_);"/>
			
				<linearGradient y2="1819.696" x2="737.9541" y1="2526.2263" x1="1230.0886" gradientUnits="userSpaceOnUse" id="SVGID_00000070834646026629499930000007399502440701017253_">
				<stop style="stop-color:#FF9085" offset="0"/>
				<stop style="stop-color:#FB6FBB" offset="1"/>
			</linearGradient>
			<path d="M916.794,1902.146&#10;&#9;&#9;&#9;&#9;c18.339-43.919,32.427-110.776,3.465-210.637c-190.846,75.199-289.56,253.084-251.555,394.402&#10;&#9;&#9;&#9;&#9;c31.327,116.5,145.304,173.244,170.731,185.182c5.914-13.467,11.832-26.928,17.747-40.394&#10;&#9;&#9;&#9;&#9;c-29.463-32.812-62.668-81.327-57.97-136.69C805.718,2017.258,879.669,1991.061,916.794,1902.146z" style="fill:url(#SVGID_00000070834646026629499930000007399502440701017253_);"/>
			
				<linearGradient y2="1815.605" x2="1063.1923" y1="1575.8181" x1="1078.7394" gradientUnits="userSpaceOnUse" id="SVGID_00000091706025131590286560000001032572940836560786_">
				<stop style="stop-color:#FFC444" offset="0"/>
				<stop style="stop-color:#F36F56" offset="0.9964"/>
			</linearGradient>
			<path d="M1064.116,1584.627&#10;&#9;&#9;&#9;&#9;c0,0-1.507,33.385-11.871,58.385c-9.365,22.595-58.623,36.799-68.607,41.842c-9.986,5.043,18.706,19.786,47.52,22.684&#10;&#9;&#9;&#9;&#9;c28.812,2.897,111.095-3.645,125.928-14.568c14.833-10.922-11.919-10.101-32.485-17.651&#10;&#9;&#9;&#9;&#9;c-20.565-7.549-32.456-47.769-28.826-66.024C1099.404,1591.037,1064.116,1584.627,1064.116,1584.627z" style="fill:url(#SVGID_00000091706025131590286560000001032572940836560786_);"/>
			
				<linearGradient gradientTransform="matrix(-0.9968 0.0799 0.0799 0.9968 2308.6487 65.4365)" y2="1340.6425" x2="1325.5919" y1="1523.9684" x1="1397.7726" gradientUnits="userSpaceOnUse" id="SVGID_00000126287474839742485020000014535100898088029569_">
				<stop style="stop-color:#444B8C" offset="0"/>
				<stop style="stop-color:#3E4177" offset="0.9964"/>
			</linearGradient>
			<path d="M1109.686,1572.523&#10;&#9;&#9;&#9;&#9;c14.95-14.689,17.037-16.404,18.666-21.482c6.534-20.379-9.272-48.286-30.003-55.157c-1.079-0.356-14.981-4.807-20.288,1.225&#10;&#9;&#9;&#9;&#9;c-4.507,5.122,2.123,12.197-1.029,22.068c-2.953,9.242-10.965,9.934-25.814,22.055c-12.233,9.981-19.834,16.186-21.588,24.915&#10;&#9;&#9;&#9;&#9;c-3.616,17.996,18.168,44.076,37.453,43.366C1074.017,1609.259,1075.903,1605.716,1109.686,1572.523z" style="fill:url(#SVGID_00000126287474839742485020000014535100898088029569_);"/>
			<g>
				
					<linearGradient gradientTransform="matrix(-0.7795 0.6265 0.6265 0.7795 -1015.7339 622.2045)" y2="416.2819" x2="-926.5253" y1="1026.2146" x1="-965.9914" gradientUnits="userSpaceOnUse" id="SVGID_00000163067346113410615410000001948888377958901944_">
					<stop style="stop-color:#FFC444" offset="0"/>
					<stop style="stop-color:#F36F56" offset="0.9964"/>
				</linearGradient>
				<path d="M1068.969,1612.294&#10;&#9;&#9;&#9;&#9;&#9;c0,0,15.892,17.994,40.101,12.045c21.675-5.325,16.145-55.073,0.282-63.021c-5.291-2.65-14.907-2.431-22.138,1.053&#10;&#9;&#9;&#9;&#9;&#9;c-4.272,2.059-5.459,4.197-12.504,7.426c-6.497,2.976-8.557,2.563-10.304,4.66c-2.187,2.621-3.128,8.261,3.723,21.876&#10;&#9;&#9;&#9;&#9;&#9;c-4.937-3.494-10.248-4.226-13.507-1.915c-0.52,0.37-1.845,1.662-2.415,3.365&#10;&#9;&#9;&#9;&#9;&#9;C1050.141,1603.947,1056.546,1610.208,1068.969,1612.294z" style="fill:url(#SVGID_00000163067346113410615410000001948888377958901944_);"/>
			</g>
			<g>
				
					<linearGradient y2="1766.9219" x2="1090.0876" y1="1621.5431" x1="1080.1643" gradientUnits="userSpaceOnUse" id="SVGID_00000072987572641089583660000003846716766591135418_">
					<stop style="stop-color:#444B8C" offset="0"/>
					<stop style="stop-color:#26264F" offset="0.9964"/>
				</linearGradient>
				<path d="M1110.583,1704.183&#10;&#9;&#9;&#9;&#9;&#9;c-2.94,6.673-6.279,13.562-10.01,20.63c-1.72,3.229-3.444,6.386-5.165,9.436c-7.106,0.969-14.208,1.974-21.313,2.942&#10;&#9;&#9;&#9;&#9;&#9;c-4.268-9.687-8.539-19.446-12.806-29.169c4.986-0.179,10.224-0.43,15.606-0.79c2.943,0.072,6.026,0,9.222-0.179&#10;&#9;&#9;&#9;&#9;&#9;c5.774-0.359,11.086-1.04,15.858-1.901C1104.879,1704.864,1107.749,1704.505,1110.583,1704.183z" style="fill:url(#SVGID_00000072987572641089583660000003846716766591135418_);"/>
				
					<linearGradient gradientTransform="matrix(-0.9999 0.013 0.013 0.9999 3689.9065 -191.3752)" y2="1699.7142" x2="2587.8462" y1="2120.2908" x1="2587.8462" gradientUnits="userSpaceOnUse" id="SVGID_00000031897008184271450010000012846490422574602637_">
					<stop style="stop-color:#444B8C" offset="0"/>
					<stop style="stop-color:#26264F" offset="0.9964"/>
				</linearGradient>
				<path d="M1095.188,1732.274&#10;&#9;&#9;&#9;&#9;&#9;c0,0,24.438,239.188,99.694,276.555c-1.817,7.693,0.908,69.966,0.908,69.966s-69.961-20.079-73.916-18.641&#10;&#9;&#9;&#9;&#9;&#9;c-3.954,1.438-86.113-130.829-47.787-322.959L1095.188,1732.274z" style="fill:url(#SVGID_00000031897008184271450010000012846490422574602637_);"/>
			</g>
		</g>
		<g>
			
				<linearGradient y2="1063.5406" x2="2728.5054" y1="822.3127" x1="2979.4797" gradientUnits="userSpaceOnUse" id="SVGID_00000117656327783621601520000011923753512757771911_">
				<stop style="stop-color:#AA80F9" offset="0"/>
				<stop style="stop-color:#6165D7" offset="0.9964"/>
			</linearGradient>
			<path d="M2478.708,1950.274&#10;&#9;&#9;&#9;&#9;c-22.14,0.64-43.734-4.939-62.44-16.149c-56.989-34.163-141.197-90.579-216.956-164.429&#10;&#9;&#9;&#9;&#9;c-96.131-93.713-151.364-188.971-163.449-282.511l-0.189-1.466l-2.345-399.134c0-78.881,51.45-142.911,148.045-184.986&#10;&#9;&#9;&#9;&#9;c79.807-34.761,185.585-51.985,297.333-48.75c110.447,3.197,212.647,25.985,288.292,63.957&#10;&#9;&#9;&#9;&#9;c89.92,45.139,137.1,108.573,137.1,183.78l-2.139,381.376l-0.173,1.403c-11.044,89.574-61.863,182.163-151.682,275.792&#10;&#9;&#9;&#9;&#9;c-72.044,75.095-153.455,134.609-209.366,171.482C2522.244,1942.839,2500.798,1949.635,2478.708,1950.274z" style="fill:url(#SVGID_00000117656327783621601520000011923753512757771911_);"/>
			
				<linearGradient y2="2272.6172" x2="3086.6658" y1="877.2798" x1="2233.5435" gradientUnits="userSpaceOnUse" id="SVGID_00000012462561859141289590000014289268481180816002_">
				<stop style="stop-color:#AA80F9" offset="0"/>
				<stop style="stop-color:#6165D7" offset="0.9964"/>
			</linearGradient>
			<path d="M2500.626,1950.274&#10;&#9;&#9;&#9;&#9;c-21.847,0.64-43.157-4.939-61.615-16.149c-56.237-34.163-139.332-90.579-214.09-164.429&#10;&#9;&#9;&#9;&#9;c-94.861-93.713-149.364-188.971-161.289-282.511l-0.187-1.466l-2.314-399.134c0-78.881,50.77-142.911,146.089-184.986&#10;&#9;&#9;&#9;&#9;c78.754-34.761,183.134-51.985,293.406-48.75c108.988,3.197,209.838,25.985,284.482,63.957&#10;&#9;&#9;&#9;&#9;c88.733,45.139,135.29,108.573,135.29,183.78l-2.111,381.376l-0.171,1.403c-10.897,89.574-61.044,182.163-149.678,275.792&#10;&#9;&#9;&#9;&#9;c-71.092,75.095-151.427,134.609-206.599,171.482C2543.586,1942.839,2522.423,1949.635,2500.626,1950.274z" style="fill:url(#SVGID_00000012462561859141289590000014289268481180816002_);"/>
			
				<linearGradient y2="278.5326" x2="1996.0319" y1="1671.7294" x1="2688.8909" gradientUnits="userSpaceOnUse" id="SVGID_00000113319834145912789630000005773082243521573512_">
				<stop style="stop-color:#AA80F9" offset="0"/>
				<stop style="stop-color:#6165D7" offset="0.9964"/>
			</linearGradient>
			<path d="M2090.455,1086.871l2.329,397.118&#10;&#9;&#9;&#9;&#9;c26.141,202.62,264.265,366.667,367.976,428.994c29.71,17.854,67.695,16.796,97.195-2.616&#10;&#9;&#9;&#9;&#9;c101.546-66.819,326.628-235.038,350.677-429.849l2.136-380.325C2910.768,818.024,2090.455,792.228,2090.455,1086.871z" style="fill:url(#SVGID_00000113319834145912789630000005773082243521573512_);"/>
			<g style="opacity:0.3;">
				<path d="M2509.068,1600.74c16.151-178.17,109.588-253.178,103.22-412.882&#10;&#9;&#9;&#9;&#9;&#9;c-4.633-116.175-59.82-220.152-138.321-310.861c-196.89,0.649-386.481,68.225-386.481,209.874l2.33,397.118&#10;&#9;&#9;&#9;&#9;&#9;c26.14,202.62,264.264,366.667,367.975,428.993c29.709,17.855,67.694,16.797,97.194-2.615c2.301-1.514,4.685-3.098,7.108-4.714&#10;&#9;&#9;&#9;&#9;&#9;C2511.386,1786.069,2501.484,1684.382,2509.068,1600.74z" style="fill:#FFFFFF;"/>
			</g>
			
				<linearGradient y2="1314.8927" x2="2605.9968" y1="1094.5568" x1="3066.5188" gradientUnits="userSpaceOnUse" id="SVGID_00000039102091681617795890000010108374816384381348_">
				<stop style="stop-color:#AA80F9" offset="0"/>
				<stop style="stop-color:#6165D7" offset="0.9964"/>
			</linearGradient>
			<path d="M2506.511,1851.771&#10;&#9;&#9;&#9;&#9;c-1.9,0.044-4.778-0.271-7.685-2.034c-42.702-25.859-125.48-80.024-197.494-150.76&#10;&#9;&#9;&#9;&#9;c-77.785-76.408-122.648-150.695-132.935-220.466l-2.282-390.542c0.095-37.472,29.758-69.543,87.903-95.204&#10;&#9;&#9;&#9;&#9;c64.91-28.648,157.091-43.681,252.493-41.415c94.451,2.243,183.942,21.256,245.94,52.021&#10;&#9;&#9;&#9;&#9;c54.841,27.212,82.567,59.292,82.656,95.469l-2.127,377.021c-9.602,67.516-51.708,140.302-125.637,216.814&#10;&#9;&#9;&#9;&#9;c-69.512,71.94-150.712,128.969-193.154,156.701C2511.287,1851.273,2508.413,1851.726,2506.511,1851.771z" style="fill:url(#SVGID_00000039102091681617795890000010108374816384381348_);"/>
			
				<linearGradient y2="2093.3145" x2="1976.7426" y1="945.9765" x1="2715.1682" gradientUnits="userSpaceOnUse" id="SVGID_00000179613083935505708790000007707418499539815614_">
				<stop style="stop-color:#AA80F9" offset="0"/>
				<stop style="stop-color:#6165D7" offset="0.9964"/>
			</linearGradient>
			<path d="M2496.767,1825.077&#10;&#9;&#9;&#9;&#9;c-43.125-26.561-119.81-77.849-186.717-143.694c-73.1-71.942-115.403-140.978-125.348-204.856l-2.265-388.275&#10;&#9;&#9;&#9;&#9;c0.068-26.793,24.695-51.369,73.012-72.761c61.49-27.227,149.588-41.574,241.315-39.515&#10;&#9;&#9;&#9;&#9;c90.847,2.04,176.478,19.983,235.323,49.099c45.722,22.621,68.853,47.298,68.915,73.428l-2.122,375.634&#10;&#9;&#9;&#9;&#9;c-9.331,61.977-49.232,129.758-119.008,201.84C2615.092,1742.901,2539.696,1796.716,2496.767,1825.077z" style="fill:url(#SVGID_00000179613083935505708790000007707418499539815614_);"/>
			<path d="M2474.009,1621.453c-17.155,1.122-33.116-6.858-41.996-21.118l-149.137-239.482&#10;&#9;&#9;&#9;&#9;c-13.977-22.442-6.446-53.181,16.812-68.652c23.239-15.462,53.399-9.814,67.358,12.619l103.428,166.238l136.472-277.944&#10;&#9;&#9;&#9;&#9;c12.247-24.944,41.674-36.387,65.706-25.568c24.03,10.815,33.591,39.786,21.36,64.714l-176.36,359.474&#10;&#9;&#9;&#9;&#9;c-8.076,16.459-24.131,27.786-41.922,29.574C2475.157,1621.366,2474.583,1621.415,2474.009,1621.453z" style="opacity:0.8;fill:#FFFFFF;"/>
			<g style="opacity:0.3;">
				<path d="M2509.068,1600.74c16.151-178.17,109.588-253.178,103.22-412.882&#10;&#9;&#9;&#9;&#9;&#9;c-2.983-74.837-26.96-144.607-64.616-209.038c-16.685-1.495-33.7-2.456-50.906-2.842&#10;&#9;&#9;&#9;&#9;&#9;c-91.727-2.061-179.825,12.286-241.316,39.514c-48.317,21.391-72.943,45.969-73.011,72.761l2.264,388.275&#10;&#9;&#9;&#9;&#9;&#9;c9.945,63.877,52.248,132.912,125.348,204.855c66.907,65.845,143.591,117.133,186.717,143.694&#10;&#9;&#9;&#9;&#9;&#9;c8.867-5.858,19.178-12.86,30.437-20.781C2507.05,1727.525,2503.727,1659.658,2509.068,1600.74z" style="fill:#FFFFFF;"/>
			</g>
		</g>
	</g>
</g>
</svg>