<svg xml:space="preserve" style="max-height: 500px" viewBox="32.6667 58.6667 439 363" y="0px" x="0px" xmlns:xlink="http://www.w3.org/1999/xlink" xmlns="http://www.w3.org/2000/svg" version="1.1" width="439" height="363">
<g id="BACKGROUND">
	<rect height="500" width="500" style="opacity:0.25;fill:#FFFFFF;"/>
</g>
<g id="OBJECTS">
	<g>
		<g style="opacity:0.24;">
			<ellipse ry="13.316" rx="67.384" cy="334.418" cx="252.52" style="fill:#C9A8F4;"/>
			<path d="M372.964,352.777c0,0-20.578,0.404-21.184,5.447c-0.605,5.044,25.219,17.956,31.876,18.763&#10;&#9;&#9;&#9;&#9;c6.658,0.807,3.43-9.684,12.912-12.105C406.051,362.461,421.788,349.549,372.964,352.777z" style="fill:#C9A8F4;"/>
			<path d="M203.059,385.535c0,0-11.67,4.768-8.845,10.417s10.895,1.614,25.219,10.895&#10;&#9;&#9;&#9;&#9;c14.324,9.28,31.271,9.684,29.657-3.833C247.476,389.496,232.08,381.978,203.059,385.535z" style="fill:#C9A8F4;"/>
			<path d="M96.769,349.347c0,0,5.447,15.535,23.605,15.535c18.158,0,36.719-1.211,48.218,5.649&#10;&#9;&#9;&#9;&#9;c11.5,6.859,25.219,3.632,17.956-18.158c0,0-14.711-0.879-31.473-2.824C136.284,347.368,99.997,335.427,96.769,349.347z" style="fill:#C9A8F4;"/>
			<path d="M220.442,94.336C181.114,75.185,71.55,60.038,71.752,119.756&#10;&#9;&#9;&#9;&#9;c0.325,96.282,58.306,187.022,166.242,194.89s204.066-55.741,201.798-136.513s-42.214-88.035-94.064-81.579&#10;&#9;&#9;&#9;&#9;S266.844,116.932,220.442,94.336z" style="fill:#C9A8F4;"/>
			<path d="M275.485,76.059c-9.617-1.658-67.928-7.488-51.342,8.563s48.692,14.787,66.535,10.175&#10;&#9;&#9;&#9;&#9;C308.521,90.185,288.752,78.346,275.485,76.059z" style="fill:#C9A8F4;"/>
		</g>
		<g>
			<g>
				<linearGradient y2="183.0059" x2="59.994" y1="174.5315" x1="92.6807" gradientUnits="userSpaceOnUse" id="SVGID_1_">
					<stop style="stop-color:#8151CC" offset="0"/>
					<stop style="stop-color:#B557E3" offset="1"/>
				</linearGradient>
				<path d="M82.902,165.217c0,0-16.792-5.833-36.499,9.061c0,0,13.022,8.618,21.524,17.068&#10;&#9;&#9;&#9;&#9;&#9;s24.059-0.471,20.851-7.941C88.777,183.404,98.123,174.518,82.902,165.217z" style="fill:url(#SVGID_1_);"/>
				<path d="M89.813,188.351c0,0-15.131-7.868-31.271-11.5c0,0,16.543,1.639,30.061,9.091L89.813,188.351z" style="fill:#6442CE;"/>
				
					<linearGradient y2="250.6507" x2="79.4567" y1="230.6755" x1="108.5116" gradientUnits="userSpaceOnUse" id="SVGID_00000163060561113810417180000001324118329145124767_">
					<stop style="stop-color:#8151CC" offset="0"/>
					<stop style="stop-color:#B557E3" offset="1"/>
				</linearGradient>
				<path d="M88.129,227.432&#10;&#9;&#9;&#9;&#9;&#9;c0,0-17.14,4.716-24.928,28.158c0,0,15.613-0.285,27.407,1.856c11.794,2.141,19.551-14.029,12.673-18.364&#10;&#9;&#9;&#9;&#9;&#9;C103.281,239.082,105.941,226.463,88.129,227.432z" style="fill:url(#SVGID_00000163060561113810417180000001324118329145124767_);"/>
				<path d="M106.939,242.57c0,0-16.925,2.098-32.279,8.258c0,0,14.557-8.03,29.916-9.555L106.939,242.57z" style="fill:#6442CE;"/>
				
					<linearGradient y2="148.0355" x2="79.4441" y1="169.8267" x1="105.4724" gradientUnits="userSpaceOnUse" id="SVGID_00000159435479751207822770000008267104516853145765_">
					<stop style="stop-color:#8151CC" offset="0"/>
					<stop style="stop-color:#B557E3" offset="1"/>
				</linearGradient>
				<path d="M103.936,150.826&#10;&#9;&#9;&#9;&#9;&#9;c0,0-8.877-14.324-32.28-15.131c0,0,4.438,14.122,5.649,25.421c1.211,11.298,17.992,14.024,20.092,6.608&#10;&#9;&#9;&#9;&#9;&#9;C97.397,167.723,109.584,166.764,103.936,150.826z" style="fill:url(#SVGID_00000159435479751207822770000008267104516853145765_);"/>
				<path d="M88.603,150.826c0,0,20.175,19.973,33.087,59.92l-4.64,6.456&#10;&#9;&#9;&#9;&#9;&#9;C117.049,217.201,116.847,193.395,88.603,150.826z" style="fill:#6442CE;"/>
				
					<linearGradient y2="207.8581" x2="55.1573" y1="207.8581" x1="91.4758" gradientUnits="userSpaceOnUse" id="SVGID_00000152947744896539085870000013715643896362991747_">
					<stop style="stop-color:#8151CC" offset="0"/>
					<stop style="stop-color:#B557E3" offset="1"/>
				</linearGradient>
				<path d="M76.733,194.734&#10;&#9;&#9;&#9;&#9;&#9;c0,0-15.972-7.804-37.322,4.621c0,0,11.896,10.117,19.323,19.525c7.427,9.408,23.942,2.416,21.652-5.385&#10;&#9;&#9;&#9;&#9;&#9;C80.386,213.495,90.73,205.792,76.733,194.734z" style="fill:url(#SVGID_00000152947744896539085870000013715643896362991747_);"/>
				<path d="M64.439,203.832c0,0,27.712,6.164,59.912,33.101l-3.897,5.55&#10;&#9;&#9;&#9;&#9;&#9;C120.454,242.484,111.014,224.825,64.439,203.832z" style="fill:#6442CE;"/>
				<g>
					
						<linearGradient gradientTransform="matrix(-1 0 0 1 -1411.7543 0)" y2="217.2399" x2="-1481.8698" y1="244.5812" x1="-1522.8682" gradientUnits="userSpaceOnUse" id="SVGID_00000092450234866529461590000007808751951855615154_">
						<stop style="stop-color:#9F42DD" offset="0"/>
						<stop style="stop-color:#E774E0" offset="1"/>
					</linearGradient>
					<path d="M114.138,253.171&#10;&#9;&#9;&#9;&#9;&#9;&#9;c0.13,0.747-0.541,1.387-1.282,1.225c-5.155-1.129-22.141-5.871-32.712-20.964c-7.642-10.911-17.121-14.257-23.384-15.202&#10;&#9;&#9;&#9;&#9;&#9;&#9;c-1.166-0.176-1.223-1.838-0.072-2.097C71.544,212.791,106.607,209.791,114.138,253.171z" style="fill:url(#SVGID_00000092450234866529461590000007808751951855615154_);"/>
					
						<linearGradient y2="177.4569" x2="85.3128" y1="233.3407" x1="111.6004" gradientUnits="userSpaceOnUse" id="SVGID_00000043438327902319233190000000540501018587181956_">
						<stop style="stop-color:#9F42DD" offset="0"/>
						<stop style="stop-color:#E774E0" offset="1"/>
					</linearGradient>
					<path d="M122.496,235.873&#10;&#9;&#9;&#9;&#9;&#9;&#9;c0,0-10.13-47.007-42.47-77.802c-1.029-0.98-2.708,0.059-2.236,1.388c1.553,4.379,3.295,11.342,3.664,21.127&#10;&#9;&#9;&#9;&#9;&#9;&#9;c0.696,18.429,3.478,43.684,37.564,61.43L122.496,235.873z" style="fill:url(#SVGID_00000043438327902319233190000000540501018587181956_);"/>
					
						<linearGradient y2="141.2561" x2="102.4905" y1="189.2726" x1="114.192" gradientUnits="userSpaceOnUse" id="SVGID_00000121249919553747269800000004774606865070937243_">
						<stop style="stop-color:#9F42DD" offset="0"/>
						<stop style="stop-color:#E774E0" offset="1"/>
					</linearGradient>
					<path d="M122.574,197.829&#10;&#9;&#9;&#9;&#9;&#9;&#9;c-0.101-4.987-1.59-50.105-22.596-77.38c-1.23-1.598-3.758-0.248-3.106,1.66c1.532,4.488,3.075,10.389,3.801,17.328&#10;&#9;&#9;&#9;&#9;&#9;&#9;c1.668,15.944-9.866,37.012,15.587,65.873c0.832,0.943,2.355,0.747,2.926-0.373l3.194-6.262&#10;&#9;&#9;&#9;&#9;&#9;&#9;C122.513,198.414,122.58,198.124,122.574,197.829z" style="fill:url(#SVGID_00000121249919553747269800000004774606865070937243_);"/>
					
						<linearGradient y2="257.6292" x2="89.5346" y1="266.9096" x1="112.5341" gradientUnits="userSpaceOnUse" id="SVGID_00000052100179533561412810000013051308035369035447_">
						<stop style="stop-color:#9F42DD" offset="0"/>
						<stop style="stop-color:#E774E0" offset="1"/>
					</linearGradient>
					<path d="M122.363,258.342&#10;&#9;&#9;&#9;&#9;&#9;&#9;c0,0-20.113,4.417-41.624-4.485c-1.642-0.68-3.013,1.422-1.733,2.654c3.016,2.901,6.051,6.118,8.279,9.173&#10;&#9;&#9;&#9;&#9;&#9;&#9;c6.43,8.816,23.064,15.84,39.306-1.659L122.363,258.342z" style="fill:url(#SVGID_00000052100179533561412810000013051308035369035447_);"/>
					<path d="M124.514,188.956&#10;&#9;&#9;&#9;&#9;&#9;&#9;c0,0-11.701-8.877-14.93-30.061c-3.228-21.184-7.061-29.254-7.061-29.254" style="fill:none;stroke:#EA8BEF;stroke-width:1.0087;stroke-linecap:round;stroke-miterlimit:10;"/>
					<path d="M83.357,165.352&#10;&#9;&#9;&#9;&#9;&#9;&#9;c0,0,5.245,12.71,11.298,32.078c6.052,19.368,19.368,31.07,29.859,35.104" style="fill:none;stroke:#EA8BEF;stroke-width:1.0087;stroke-linecap:round;stroke-miterlimit:10;"/>
					<path d="M122.496,264.007&#10;&#9;&#9;&#9;&#9;&#9;&#9;c0,0-22.596,8.07-39.14-7.465" style="fill:none;stroke:#EA8BEF;stroke-width:1.0087;stroke-linecap:round;stroke-miterlimit:10;"/>
					<path d="M63.182,217.605&#10;&#9;&#9;&#9;&#9;&#9;&#9;c0,0,14.122-3.228,25.42,11.096c11.298,14.324,19.166,26.227,33.087,27.842" style="fill:none;stroke:#EA8BEF;stroke-width:1.0087;stroke-linecap:round;stroke-miterlimit:10;"/>
				</g>
			</g>
			<g>
				
					<linearGradient gradientTransform="matrix(-1 0 0 1 908.2457 0)" y2="183.0059" x2="460.6738" y1="174.5315" x1="493.3605" gradientUnits="userSpaceOnUse" id="SVGID_00000167383981079675328140000011104674262022691233_">
					<stop style="stop-color:#8151CC" offset="0"/>
					<stop style="stop-color:#B557E3" offset="1"/>
				</linearGradient>
				<path d="M424.664,165.217&#10;&#9;&#9;&#9;&#9;&#9;c0,0,16.793-5.833,36.499,9.061c0,0-13.023,8.618-21.524,17.068s-24.059-0.471-20.851-7.941&#10;&#9;&#9;&#9;&#9;&#9;C418.789,183.404,409.443,174.518,424.664,165.217z" style="fill:url(#SVGID_00000167383981079675328140000011104674262022691233_);"/>
				<path d="M417.753,188.351c0,0,15.131-7.868,31.271-11.5c0,0-16.543,1.639-30.061,9.091L417.753,188.351z" style="fill:#6442CE;"/>
				
					<linearGradient gradientTransform="matrix(-1 0 0 1 908.2457 0)" y2="250.6507" x2="480.1365" y1="230.6755" x1="509.1913" gradientUnits="userSpaceOnUse" id="SVGID_00000046312109869592159090000003690883232635063447_">
					<stop style="stop-color:#8151CC" offset="0"/>
					<stop style="stop-color:#B557E3" offset="1"/>
				</linearGradient>
				<path d="M419.437,227.432&#10;&#9;&#9;&#9;&#9;&#9;c0,0,17.14,4.716,24.928,28.158c0,0-15.613-0.285-27.407,1.856c-11.794,2.141-19.551-14.029-12.673-18.364&#10;&#9;&#9;&#9;&#9;&#9;C404.285,239.082,401.625,226.463,419.437,227.432z" style="fill:url(#SVGID_00000046312109869592159090000003690883232635063447_);"/>
				<path d="M400.627,242.57c0,0,16.925,2.098,32.279,8.258c0,0-14.557-8.03-29.917-9.555L400.627,242.57z" style="fill:#6442CE;"/>
				
					<linearGradient gradientTransform="matrix(-1 0 0 1 908.2457 0)" y2="148.0355" x2="480.1238" y1="169.8267" x1="506.1522" gradientUnits="userSpaceOnUse" id="SVGID_00000016046128563029383590000009594739400484923313_">
					<stop style="stop-color:#8151CC" offset="0"/>
					<stop style="stop-color:#B557E3" offset="1"/>
				</linearGradient>
				<path d="M403.63,150.826&#10;&#9;&#9;&#9;&#9;&#9;c0,0,8.877-14.324,32.28-15.131c0,0-4.439,14.122-5.649,25.421c-1.211,11.298-17.992,14.024-20.092,6.608&#10;&#9;&#9;&#9;&#9;&#9;C410.169,167.723,397.981,166.764,403.63,150.826z" style="fill:url(#SVGID_00000016046128563029383590000009594739400484923313_);"/>
				<path d="M418.963,150.826c0,0-20.175,19.973-33.087,59.92l4.64,6.456&#10;&#9;&#9;&#9;&#9;&#9;C390.517,217.201,390.718,193.395,418.963,150.826z" style="fill:#6442CE;"/>
				
					<linearGradient gradientTransform="matrix(-1 0 0 1 908.2457 0)" y2="207.8581" x2="455.8371" y1="207.8581" x1="492.1557" gradientUnits="userSpaceOnUse" id="SVGID_00000046297116561718785250000004908119852987712915_">
					<stop style="stop-color:#8151CC" offset="0"/>
					<stop style="stop-color:#B557E3" offset="1"/>
				</linearGradient>
				<path d="M430.833,194.734&#10;&#9;&#9;&#9;&#9;&#9;c0,0,15.972-7.804,37.322,4.621c0,0-11.896,10.117-19.323,19.525c-7.427,9.408-23.943,2.416-21.653-5.385&#10;&#9;&#9;&#9;&#9;&#9;C427.18,213.495,416.836,205.792,430.833,194.734z" style="fill:url(#SVGID_00000046297116561718785250000004908119852987712915_);"/>
				<path d="M443.127,203.832c0,0-27.712,6.164-59.912,33.101l3.897,5.55&#10;&#9;&#9;&#9;&#9;&#9;C387.112,242.484,396.552,224.825,443.127,203.832z" style="fill:#6442CE;"/>
				<g>
					
						<linearGradient gradientTransform="matrix(1 0 0 1 2320 0)" y2="217.2399" x2="-1882.5494" y1="244.5812" x1="-1923.548" gradientUnits="userSpaceOnUse" id="SVGID_00000044856652620072452540000009373844681120918676_">
						<stop style="stop-color:#9F42DD" offset="0"/>
						<stop style="stop-color:#E774E0" offset="1"/>
					</linearGradient>
					<path d="M393.428,253.171&#10;&#9;&#9;&#9;&#9;&#9;&#9;c-0.13,0.747,0.541,1.387,1.282,1.225c5.155-1.129,22.142-5.871,32.712-20.964c7.642-10.911,17.121-14.257,23.384-15.202&#10;&#9;&#9;&#9;&#9;&#9;&#9;c1.166-0.176,1.223-1.838,0.072-2.097C436.022,212.791,400.959,209.791,393.428,253.171z" style="fill:url(#SVGID_00000044856652620072452540000009373844681120918676_);"/>
					
						<linearGradient gradientTransform="matrix(-1 0 0 1 908.2457 0)" y2="177.4569" x2="485.9926" y1="233.3407" x1="512.2802" gradientUnits="userSpaceOnUse" id="SVGID_00000016073758802722230920000017403306203990578845_">
						<stop style="stop-color:#9F42DD" offset="0"/>
						<stop style="stop-color:#E774E0" offset="1"/>
					</linearGradient>
					<path d="M385.069,235.873&#10;&#9;&#9;&#9;&#9;&#9;&#9;c0,0,10.13-47.007,42.471-77.802c1.029-0.98,2.708,0.059,2.236,1.388c-1.553,4.379-3.295,11.342-3.664,21.127&#10;&#9;&#9;&#9;&#9;&#9;&#9;c-0.696,18.429-3.478,43.684-37.564,61.43L385.069,235.873z" style="fill:url(#SVGID_00000016073758802722230920000017403306203990578845_);"/>
					
						<linearGradient gradientTransform="matrix(-1 0 0 1 908.2457 0)" y2="141.2561" x2="503.1702" y1="189.2726" x1="514.8718" gradientUnits="userSpaceOnUse" id="SVGID_00000134243165562121826640000010293466668104682627_">
						<stop style="stop-color:#9F42DD" offset="0"/>
						<stop style="stop-color:#E774E0" offset="1"/>
					</linearGradient>
					<path d="M384.992,197.829&#10;&#9;&#9;&#9;&#9;&#9;&#9;c0.101-4.987,1.59-50.105,22.596-77.38c1.23-1.598,3.758-0.248,3.106,1.66c-1.532,4.488-3.074,10.389-3.801,17.328&#10;&#9;&#9;&#9;&#9;&#9;&#9;c-1.668,15.944,9.866,37.012-15.587,65.873c-0.832,0.943-2.355,0.747-2.926-0.373l-3.194-6.262&#10;&#9;&#9;&#9;&#9;&#9;&#9;C385.053,198.414,384.986,198.124,384.992,197.829z" style="fill:url(#SVGID_00000134243165562121826640000010293466668104682627_);"/>
					
						<linearGradient gradientTransform="matrix(-1 0 0 1 908.2457 0)" y2="257.6292" x2="490.2144" y1="266.9097" x1="513.2139" gradientUnits="userSpaceOnUse" id="SVGID_00000029020351297336898320000015453078640272267168_">
						<stop style="stop-color:#9F42DD" offset="0"/>
						<stop style="stop-color:#E774E0" offset="1"/>
					</linearGradient>
					<path d="M385.203,258.342&#10;&#9;&#9;&#9;&#9;&#9;&#9;c0,0,20.113,4.417,41.624-4.485c1.642-0.68,3.013,1.422,1.733,2.654c-3.016,2.901-6.051,6.118-8.279,9.173&#10;&#9;&#9;&#9;&#9;&#9;&#9;c-6.43,8.816-23.064,15.84-39.306-1.659L385.203,258.342z" style="fill:url(#SVGID_00000029020351297336898320000015453078640272267168_);"/>
					<path d="M383.052,188.956&#10;&#9;&#9;&#9;&#9;&#9;&#9;c0,0,11.702-8.877,14.93-30.061c3.228-21.184,7.061-29.254,7.061-29.254" style="fill:none;stroke:#EA8BEF;stroke-width:1.0087;stroke-linecap:round;stroke-miterlimit:10;"/>
					<path d="M424.209,165.352&#10;&#9;&#9;&#9;&#9;&#9;&#9;c0,0-5.246,12.71-11.298,32.078c-6.052,19.368-19.368,31.07-29.859,35.104" style="fill:none;stroke:#EA8BEF;stroke-width:1.0087;stroke-linecap:round;stroke-miterlimit:10;"/>
					<path d="M385.069,264.007&#10;&#9;&#9;&#9;&#9;&#9;&#9;c0,0,22.596,8.07,39.139-7.465" style="fill:none;stroke:#EA8BEF;stroke-width:1.0087;stroke-linecap:round;stroke-miterlimit:10;"/>
					<path d="M444.384,217.605&#10;&#9;&#9;&#9;&#9;&#9;&#9;c0,0-14.122-3.228-25.421,11.096c-11.298,14.324-19.166,26.227-33.087,27.842" style="fill:none;stroke:#EA8BEF;stroke-width:1.0087;stroke-linecap:round;stroke-miterlimit:10;"/>
				</g>
			</g>
		</g>
		<g>
			<path d="M385.139,300.721H122.176c-2.572,0-4.658-2.085-4.658-4.658V134.773&#10;&#9;&#9;&#9;&#9;c0-8.158,6.614-14.772,14.772-14.772H373.96c8.158,0,14.772,6.614,14.772,14.772v162.356&#10;&#9;&#9;&#9;&#9;C388.732,299.113,387.123,300.721,385.139,300.721z" style="fill:#DBDCDD;"/>
			
				<linearGradient y2="122.6722" x2="294.7237" y1="256.4458" x1="225.7182" gradientUnits="userSpaceOnUse" id="SVGID_00000103248145900242943470000006209876338275306410_">
				<stop style="stop-color:#6656CC" offset="0"/>
				<stop style="stop-color:#7472D6" offset="1"/>
			</linearGradient>
			<path d="M388.732,276.235H117.518v-142.5&#10;&#9;&#9;&#9;&#9;c0-7.585,6.149-13.735,13.735-13.735h243.745c7.585,0,13.735,6.149,13.735,13.735V276.235z" style="fill:url(#SVGID_00000103248145900242943470000006209876338275306410_);"/>
			<path d="M375.957,136.901v122.433c0,2.866-2.323,5.19-5.19,5.19H134.685c-2.865,0-5.19-2.323-5.19-5.19&#10;&#9;&#9;&#9;&#9;V136.901c0-2.865,2.325-5.19,5.19-5.19h236.083C373.634,131.712,375.957,134.036,375.957,136.901z" style="fill:#FFFFFF;"/>
			
				<linearGradient y2="287.9458" x2="258.8474" y1="287.9458" x1="247.6688" gradientUnits="userSpaceOnUse" id="SVGID_00000128460640629671394330000002972750143594422683_">
				<stop style="stop-color:#6656CC" offset="0"/>
				<stop style="stop-color:#7472D6" offset="1"/>
			</linearGradient>
			<circle r="5.589" cy="287.946" cx="253.258" style="fill:url(#SVGID_00000128460640629671394330000002972750143594422683_);"/>
			
				<linearGradient y2="325.806" x2="252.7258" y1="284.7272" x1="252.7258" gradientUnits="userSpaceOnUse" id="SVGID_00000150072791722535415430000015898135481443967392_">
				<stop style="stop-color:#A6AEB2" offset="0"/>
				<stop style="stop-color:#DBDCDD" offset="1"/>
			</linearGradient>
			
				<rect height="25.817" width="63.345" style="fill:url(#SVGID_00000150072791722535415430000015898135481443967392_);" y="300.721" x="221.053"/>
			<path d="M303.562,337.185H202.954l0,0c0-6.762,5.481-12.243,12.243-12.243h76.121&#10;&#9;&#9;&#9;&#9;C298.08,324.942,303.562,330.423,303.562,337.185L303.562,337.185z" style="fill:#DBDCDD;"/>
			<g>
				<path d="M224.537,190.964v14.466h-11.062c-3.995,0-7.233-3.238-7.233-7.233&#10;&#9;&#9;&#9;&#9;&#9;c0-1.998,0.808-3.806,2.119-5.114c1.308-1.31,3.117-2.119,5.114-2.119H224.537z" style="fill:#E83867;"/>
				<g>
					<g>
						<path d="M290.06,191.973c3.432,0,6.224,2.792,6.224,6.224c0,1.664-0.647,3.227-1.824,4.401&#10;&#9;&#9;&#9;&#9;&#9;&#9;&#9;c-1.174,1.176-2.736,1.823-4.4,1.823h-64.514v-12.449H290.06 M290.06,190.964h-65.523v14.466h65.523&#10;&#9;&#9;&#9;&#9;&#9;&#9;&#9;c1.998,0,3.806-0.808,5.114-2.119c1.311-1.308,2.119-3.117,2.119-5.114C297.293,194.202,294.055,190.964,290.06,190.964&#10;&#9;&#9;&#9;&#9;&#9;&#9;&#9;L290.06,190.964z" style="fill:#E83867;"/>
					</g>
				</g>
				<path d="M216.188,195.075c-1.127-1.143-2.967-1.157-4.11-0.03c-1.143,1.127-1.157,2.967-0.03,4.11&#10;&#9;&#9;&#9;&#9;&#9;c0.972,0.986,2.475,1.131,3.604,0.428l2.695,2.735c0.296,0.3,0.779,0.304,1.08,0.008c0.3-0.296,0.304-0.779,0.008-1.08&#10;&#9;&#9;&#9;&#9;&#9;l-2.742-2.783C217.264,197.375,217.098,195.998,216.188,195.075z M215.57,198.589c-0.814,0.802-2.124,0.792-2.926-0.021&#10;&#9;&#9;&#9;&#9;&#9;c-0.802-0.814-0.792-2.124,0.021-2.926c0.814-0.802,2.124-0.793,2.926,0.021C216.394,196.477,216.384,197.786,215.57,198.589z" style="fill:#FFFDFD;"/>
			</g>
			<path d="M375.957,136.901v5.774H129.495v-5.774c0-2.865,2.325-5.19,5.19-5.19h236.083&#10;&#9;&#9;&#9;&#9;C373.634,131.712,375.957,134.036,375.957,136.901z" style="fill:#6545BA;"/>
			<path d="M291.424,254.93h-77.283c-1.621,0-2.935-1.314-2.935-2.935l0,0&#10;&#9;&#9;&#9;&#9;c0-1.621,1.314-2.935,2.935-2.935h77.283c1.621,0,2.935,1.314,2.935,2.935l0,0C294.358,253.616,293.044,254.93,291.424,254.93z" style="opacity:0.61;fill:#E3DCE5;"/>
			<g>
				<g>
					<path d="M249.145,172.3l0.147,3.598c0.031,0.587,0.516,1.047,1.103,1.047h3.457&#10;&#9;&#9;&#9;&#9;&#9;&#9;c0.588,0,1.072-0.46,1.103-1.047l0.147-2.79L249.145,172.3z" style="fill:#42423F;"/>
					
						<linearGradient y2="161.921" x2="252.243" y1="173.4117" x1="252.6849" gradientUnits="userSpaceOnUse" id="SVGID_00000004523905653968909180000002276078403858546602_">
						<stop style="stop-color:#F4BA38" offset="0"/>
						<stop style="stop-color:#FFD349" offset="1"/>
					</linearGradient>
					<path d="M258.535,166.04&#10;&#9;&#9;&#9;&#9;&#9;&#9;L258.535,166.04c0.196-0.621,0.303-1.282,0.303-1.969c0-3.596-2.916-6.512-6.512-6.512c-3.596,0-6.512,2.916-6.512,6.512&#10;&#9;&#9;&#9;&#9;&#9;&#9;c0,0.914,0.189,1.784,0.529,2.573l-0.024,0.001l2.827,6.361l5.957,0.101l2.614-5.382c0.348-0.512,0.624-1.077,0.816-1.68&#10;&#9;&#9;&#9;&#9;&#9;&#9;L258.535,166.04z" style="opacity:0.71;fill:url(#SVGID_00000004523905653968909180000002276078403858546602_);"/>
					<path d="M250.458,171.997h-0.101c-0.167,0-0.303-0.136-0.303-0.303v-3.029&#10;&#9;&#9;&#9;&#9;&#9;&#9;c0-0.167,0.136-0.303,0.303-0.303h0.101c0.167,0,0.303,0.136,0.303,0.303v3.029&#10;&#9;&#9;&#9;&#9;&#9;&#9;C250.761,171.861,250.625,171.997,250.458,171.997z" style="fill:#FFFFFF;"/>
					<path d="M252.275,171.997h-0.101c-0.167,0-0.303-0.136-0.303-0.303v-6.462&#10;&#9;&#9;&#9;&#9;&#9;&#9;c0-0.167,0.136-0.303,0.303-0.303h0.101c0.167,0,0.303,0.136,0.303,0.303v6.462&#10;&#9;&#9;&#9;&#9;&#9;&#9;C252.578,171.861,252.442,171.997,252.275,171.997z" style="fill:#FFFFFF;"/>
					<path d="M254.092,171.997L254.092,171.997c-0.167,0-0.303-0.136-0.303-0.303v-2.928&#10;&#9;&#9;&#9;&#9;&#9;&#9;c0-0.167,0.136-0.303,0.303-0.303l0,0c0.167,0,0.303,0.136,0.303,0.303v2.928C254.395,171.861,254.26,171.997,254.092,171.997z" style="fill:#FFFFFF;"/>
				</g>
				<g>
					<path d="M263.809,172.516l-1.149,2.865c-0.182,0.47,0.035,1,0.495,1.206l2.703,1.215&#10;&#9;&#9;&#9;&#9;&#9;&#9;c0.459,0.206,1,0.017,1.23-0.431l1.095-2.13L263.809,172.516z" style="fill:#42423F;"/>
					
						<linearGradient y2="161.2832" x2="268.8276" y1="172.7738" x1="269.2695" gradientUnits="userSpaceOnUse" id="SVGID_00000143612945462670655290000017688274114373406339_">
						<stop style="stop-color:#F4BA38" offset="0"/>
						<stop style="stop-color:#FFD349" offset="1"/>
					</linearGradient>
					<path d="M273.351,170.92&#10;&#9;&#9;&#9;&#9;&#9;&#9;L273.351,170.92c0.372-0.417,0.688-0.896,0.929-1.433c1.264-2.813,0.008-6.117-2.804-7.381&#10;&#9;&#9;&#9;&#9;&#9;&#9;c-2.812-1.264-6.117-0.008-7.38,2.804c-0.321,0.715-0.479,1.462-0.49,2.198l-0.02-0.008l-0.024,5.967l4.623,2.172l3.935-3.29&#10;&#9;&#9;&#9;&#9;&#9;&#9;c0.452-0.278,0.867-0.623,1.228-1.027L273.351,170.92z" style="opacity:0.71;fill:url(#SVGID_00000143612945462670655290000017688274114373406339_);"/>
					<path d="M264.942,172.74l-0.079-0.035c-0.131-0.059-0.189-0.213-0.13-0.343l1.064-2.368&#10;&#9;&#9;&#9;&#9;&#9;&#9;c0.059-0.131,0.212-0.189,0.343-0.13l0.079,0.035c0.131,0.059,0.189,0.213,0.13,0.343l-1.064,2.368&#10;&#9;&#9;&#9;&#9;&#9;&#9;C265.226,172.741,265.073,172.799,264.942,172.74z" style="fill:#FFFFFF;"/>
					<path d="M266.363,173.379l-0.079-0.035c-0.131-0.059-0.189-0.212-0.13-0.343l2.27-5.053&#10;&#9;&#9;&#9;&#9;&#9;&#9;c0.059-0.131,0.212-0.189,0.343-0.13l0.079,0.035c0.131,0.059,0.189,0.213,0.13,0.343l-2.27,5.053&#10;&#9;&#9;&#9;&#9;&#9;&#9;C266.647,173.379,266.494,173.438,266.363,173.379z" style="fill:#FFFFFF;"/>
					<path d="M267.784,174.018L267.784,174.018c-0.131-0.059-0.189-0.212-0.13-0.343l1.029-2.29&#10;&#9;&#9;&#9;&#9;&#9;&#9;c0.059-0.131,0.212-0.189,0.343-0.13l0,0c0.131,0.059,0.189,0.213,0.13,0.343l-1.029,2.29&#10;&#9;&#9;&#9;&#9;&#9;&#9;C268.069,174.018,267.915,174.076,267.784,174.018z" style="fill:#FFFFFF;"/>
				</g>
				<g>
					<path d="M242.183,172.528l1.451,2.725c0.231,0.447,0.072,0.998-0.362,1.252l-2.557,1.499&#10;&#9;&#9;&#9;&#9;&#9;&#9;c-0.435,0.255-0.992,0.125-1.27-0.296l-1.318-2L242.183,172.528z" style="fill:#42423F;"/>
					
						<linearGradient y2="162.535" x2="236.2789" y1="174.0257" x1="236.7209" gradientUnits="userSpaceOnUse" id="SVGID_00000103229774040660775240000011742477069559688381_">
						<stop style="stop-color:#F4BA38" offset="0"/>
						<stop style="stop-color:#FFD349" offset="1"/>
					</linearGradient>
					<path d="M232.525,171.968&#10;&#9;&#9;&#9;&#9;&#9;&#9;L232.525,171.968c-0.414-0.374-0.78-0.817-1.077-1.325c-1.559-2.66-0.666-6.08,1.994-7.639c2.66-1.559,6.08-0.666,7.639,1.994&#10;&#9;&#9;&#9;&#9;&#9;&#9;c0.396,0.676,0.633,1.401,0.724,2.133l0.018-0.01l0.666,5.93l-4.362,2.657l-4.266-2.848c-0.48-0.228-0.929-0.526-1.332-0.889&#10;&#9;&#9;&#9;&#9;&#9;&#9;L232.525,171.968z" style="opacity:0.71;fill:url(#SVGID_00000103229774040660775240000011742477069559688381_);"/>
					<path d="M241.081,172.873l0.075-0.044c0.124-0.072,0.165-0.232,0.093-0.355l-1.313-2.24&#10;&#9;&#9;&#9;&#9;&#9;&#9;c-0.072-0.124-0.232-0.165-0.355-0.093l-0.075,0.044c-0.124,0.073-0.165,0.232-0.093,0.355l1.313,2.24&#10;&#9;&#9;&#9;&#9;&#9;&#9;C240.798,172.904,240.957,172.946,241.081,172.873z" style="fill:#FFFFFF;"/>
					<path d="M239.737,173.661l0.075-0.044c0.124-0.073,0.165-0.232,0.093-0.355l-2.801-4.779&#10;&#9;&#9;&#9;&#9;&#9;&#9;c-0.073-0.124-0.232-0.165-0.355-0.093l-0.075,0.044c-0.124,0.073-0.165,0.232-0.093,0.355l2.801,4.779&#10;&#9;&#9;&#9;&#9;&#9;&#9;C239.454,173.692,239.613,173.733,239.737,173.661z" style="fill:#FFFFFF;"/>
					<path d="M238.393,174.449L238.393,174.449c0.124-0.072,0.165-0.232,0.093-0.355l-1.269-2.166&#10;&#9;&#9;&#9;&#9;&#9;&#9;c-0.072-0.124-0.232-0.165-0.355-0.093l0,0c-0.124,0.073-0.165,0.232-0.093,0.355l1.269,2.166&#10;&#9;&#9;&#9;&#9;&#9;&#9;C238.11,174.48,238.269,174.521,238.393,174.449z" style="fill:#FFFFFF;"/>
				</g>
			</g>
		</g>
		<g>
			<path d="M352.733,204.95c-0.136,0.023-0.276,0.036-0.415,0.036c-2.065,0-3.739-2.553-3.739-5.7&#10;&#9;&#9;&#9;&#9;c0-3.147,1.674-5.7,3.739-5.7c0.14,0,0.28,0.012,0.415,0.036c-1.869,0.314-3.323,2.731-3.323,5.665&#10;&#9;&#9;&#9;&#9;S350.863,204.636,352.733,204.95z" style="fill:#9B233F;"/>
			
				<linearGradient gradientTransform="matrix(-1 0 0 1 7969.4014 0)" y2="219.4494" x2="7537.3364" y1="233.6635" x1="7582.8994" gradientUnits="userSpaceOnUse" id="SVGID_00000103948742391657428240000012068267396992472976_">
				<stop style="stop-color:#F4BA38" offset="0"/>
				<stop style="stop-color:#FFD349" offset="1"/>
			</linearGradient>
			<path d="M384.913,212.673&#10;&#9;&#9;&#9;&#9;c0,0,8.842,0.384,12.606,7.135c3.765,6.75,8.828,22.328,6.88,25.314c-1.947,2.986-11.554,8.049-11.554,8.049L384.913,212.673z" style="fill:url(#SVGID_00000103948742391657428240000012068267396992472976_);"/>
			
				<linearGradient y2="200.768" x2="369.8183" y1="222.5253" x1="386.9388" gradientUnits="userSpaceOnUse" id="SVGID_00000147936396919138811660000006215607478300542902_">
				<stop style="stop-color:#E85B7D" offset="0"/>
				<stop style="stop-color:#FF78AF" offset="1"/>
			</linearGradient>
			<path d="M365.961,194.783&#10;&#9;&#9;&#9;&#9;c0.029,4.532,0.33,13.511,2.221,15.308c0.041,0.042,0.084,0.078,0.128,0.11c1.833,1.375,3.867-0.081,4.32-0.441&#10;&#9;&#9;&#9;&#9;c0.061-0.049,0.093-0.078,0.093-0.078s1.817,4.544,1.298,5.842l9.866-1.817c0,0-2.596-4.024-4.414-6.621&#10;&#9;&#9;&#9;&#9;c-1.373-1.962-5.268-9.93-7.088-13.705c-0.118-0.244-0.227-0.471-0.327-0.678c-0.396-0.824-0.634-1.325-0.634-1.325l-2.617,0.374&#10;&#9;&#9;&#9;&#9;l-2.835,0.405C365.974,192.157,365.951,193.198,365.961,194.783z" style="fill:url(#SVGID_00000147936396919138811660000006215607478300542902_);"/>
			<path d="M368.182,210.091c0.041,0.042,0.084,0.078,0.128,0.11c1.833,1.375,3.867-0.081,4.32-0.441&#10;&#9;&#9;&#9;&#9;c0.417-1.59,0.223-3.064,0.223-3.064C371.308,209.711,369.441,210.194,368.182,210.091z" style="fill:#ED4C76;"/>
			
				<linearGradient gradientTransform="matrix(-1 0 0 1 7969.4014 0)" y2="186.9108" x2="7596.9248" y1="196.1443" x1="7601.9429" gradientUnits="userSpaceOnUse" id="SVGID_00000053544253275437385900000011508989495169556899_">
				<stop style="stop-color:#EF6F6F" offset="0"/>
				<stop style="stop-color:#EF6F6F;stop-opacity:0" offset="1"/>
			</linearGradient>
			<path d="M365.961,194.783&#10;&#9;&#9;&#9;&#9;c1.832,0.749,4.167,0.749,4.167,0.749l2.259-2.151l0.467-0.445l-0.794-0.232l-3.251-0.952l-2.835,0.405&#10;&#9;&#9;&#9;&#9;C365.974,192.157,365.951,193.198,365.961,194.783z" style="fill:url(#SVGID_00000053544253275437385900000011508989495169556899_);"/>
			
				<linearGradient gradientTransform="matrix(-1 0 0 1 7969.4014 0)" y2="344.6599" x2="7585.7998" y1="242.625" x1="7583.9824" gradientUnits="userSpaceOnUse" id="SVGID_00000023241329560201323000000004694013364876636325_">
				<stop style="stop-color:#7C45CC" offset="0"/>
				<stop style="stop-color:#AB6FD6" offset="1"/>
			</linearGradient>
			<path d="M365.974,295.75&#10;&#9;&#9;&#9;&#9;c0.26,4.544,7.01,33.233,6.621,49.46h8.049c0,0-0.26-28.43-1.817-38.685c-1.503-9.9-0.347-12.178,1.603-16.645&#10;&#9;&#9;&#9;&#9;c0.071-0.161,0.141-0.325,0.214-0.491c0.253-0.585,0.514-1.186,0.778-1.791c0-0.001,0.001-0.001,0.001-0.001&#10;&#9;&#9;&#9;&#9;c1.894-4.35,3.895-8.852,3.895-8.852s-0.016,0.331-0.04,0.917c-0.166,3.887-0.749,18.97,0.04,22.58&#10;&#9;&#9;&#9;&#9;c0.909,4.154,8.308,37.257,9.087,45.436h7.659c0,0-1.168-25.574-3.505-37.647c-2.337-12.073,0.26-21.29,2.726-32.065&#10;&#9;&#9;&#9;&#9;c2.466-10.775,1.512-22.587,1.512-22.587l-31.37,3.893C371.426,259.272,365.714,291.207,365.974,295.75z" style="fill:url(#SVGID_00000023241329560201323000000004694013364876636325_);"/>
			
				<linearGradient gradientTransform="matrix(-1 0 0 1 7969.4014 0)" y2="214.1048" x2="7527.1714" y1="343.1882" x1="7597.3252" gradientUnits="userSpaceOnUse" id="SVGID_00000018942419549940015370000003778050722056813457_">
				<stop style="stop-color:#6D5BB8" offset="0"/>
				<stop style="stop-color:#604AB7;stop-opacity:0" offset="1"/>
			</linearGradient>
			<path d="M385.276,279.661&#10;&#9;&#9;&#9;&#9;c-0.166,3.887-0.749,18.97,0.04,22.58c0.909,4.154,8.308,37.257,9.087,45.436h0.162l1.396-0.649c0,0-0.26-21.679-2.856-27.391&#10;&#9;&#9;&#9;&#9;c-2.596-5.712-5.842-14.669-5.063-20.77c0.779-6.101,4.673-24.795,0-32.843C388.043,266.022,387.769,272.56,385.276,279.661z" style="fill:url(#SVGID_00000018942419549940015370000003778050722056813457_);"/>
			
				<linearGradient gradientTransform="matrix(-1 0 0 1 7969.4014 0)" y2="285.3783" x2="7586.6631" y1="290.0354" x1="7589.1943" gradientUnits="userSpaceOnUse" id="SVGID_00000013894505099220049280000009171578384772041385_">
				<stop style="stop-color:#F99030" offset="0"/>
				<stop style="stop-color:#F99030;stop-opacity:0" offset="1"/>
			</linearGradient>
			<path d="M380.429,289.88&#10;&#9;&#9;&#9;&#9;c0.071-0.161,0.141-0.325,0.214-0.491c0.253-0.585,0.514-1.186,0.778-1.791C381.003,288.229,380.676,288.996,380.429,289.88z" style="fill:url(#SVGID_00000013894505099220049280000009171578384772041385_);"/>
			<path d="M372.724,348.845c0,0-1.038,2.466-4.154,3.505c-3.116,1.039-7.529,2.466-7.659,3.635&#10;&#9;&#9;&#9;&#9;c-0.13,1.168,16.746,0.649,17.915,0.519c1.168-0.13,1.947-4.154,0.519-8.568L372.724,348.845z" style="fill:#6149B7;"/>
			<path d="M395.053,348.585c0,0,0.779,1.558-2.856,2.856c-3.635,1.298-6.491,4.154-5.582,4.803&#10;&#9;&#9;&#9;&#9;c0.909,0.649,13.501,0.779,14.929,0.519c1.428-0.26,0.26-7.919-0.389-8.828L395.053,348.585z" style="fill:#6149B7;"/>
			
				<rect height="6.101" width="1.558" style="fill:#BA2744;" transform="matrix(-1 -1.224647e-16 1.224647e-16 -1 707.5424 414.0422)" y="203.97" x="352.992"/>
			<path d="M349.098,199.297c0,3.226,1.918,5.842,4.284,5.842c2.366,0,4.284-2.615,4.284-5.842&#10;&#9;&#9;&#9;&#9;c0-3.226-1.918-5.842-4.284-5.842C351.016,193.455,349.098,196.071,349.098,199.297z" style="fill:#BA2744;"/>
			
				<linearGradient y2="197.8257" x2="352.5151" y1="210.8424" x1="360.1824" gradientUnits="userSpaceOnUse" id="SVGID_00000101788155741694364390000017005428419848804761_">
				<stop style="stop-color:#AFE3C0" offset="0"/>
				<stop style="stop-color:#C7ECC5" offset="1"/>
			</linearGradient>
			<path d="M349.877,199.297&#10;&#9;&#9;&#9;&#9;c0,2.64,1.569,4.78,3.505,4.78c1.936,0,3.505-2.14,3.505-4.78c0-2.64-1.569-4.779-3.505-4.779&#10;&#9;&#9;&#9;&#9;C351.446,194.518,349.877,196.657,349.877,199.297z" style="fill:url(#SVGID_00000101788155741694364390000017005428419848804761_);"/>
			
				<linearGradient gradientTransform="matrix(-1 0 0 1 7969.4014 0)" y2="188.5131" x2="7600.0908" y1="226.1114" x1="7620.5244" gradientUnits="userSpaceOnUse" id="SVGID_00000018947680344461973920000018391078711586862995_">
				<stop style="stop-color:#E85B7D" offset="0"/>
				<stop style="stop-color:#FF78AF" offset="1"/>
			</linearGradient>
			<path d="M350.785,210.591&#10;&#9;&#9;&#9;&#9;c0,0.519,1.428,3.895,1.558,4.673c0.13,0.779,0.26,10.645,0.26,10.645l3.152-0.486l1.911-0.293c0,0-1.298-10.904-1.298-11.943&#10;&#9;&#9;&#9;&#9;c0-1.038,1.039-1.947,0.519-3.765c-0.023-0.083-0.047-0.165-0.071-0.245c-0.495-1.702-1.486-2.664-1.486-3.779&#10;&#9;&#9;&#9;&#9;c0-1.168-0.519-1.168-0.779-0.519c-0.26,0.649,0.13,4.154,0.13,4.154s-1.428-0.389-1.688-1.038&#10;&#9;&#9;&#9;&#9;c-0.26-0.649-0.13-2.856-0.13-2.856s-0.909-0.13-1.039,0.389C351.694,206.048,350.785,210.072,350.785,210.591z" style="fill:url(#SVGID_00000018947680344461973920000018391078711586862995_);"/>
			<path d="M355.755,225.424l1.911-0.293c0,0-1.298-10.904-1.298-11.943c0-1.038,1.039-1.947,0.519-3.765&#10;&#9;&#9;&#9;&#9;c-0.023-0.083-0.047-0.165-0.071-0.245c-0.026,0.814-0.199,1.872-0.837,2.582c-1.168,1.298-0.519,1.817,0,5.582&#10;&#9;&#9;&#9;&#9;C356.429,220.609,355.902,224.463,355.755,225.424z" style="fill:#ED4C76;"/>
			
				<linearGradient y2="224.5918" x2="375.6486" y1="276.3101" x1="382.7822" gradientUnits="userSpaceOnUse" id="SVGID_00000046322991324705887370000014613541558418215048_">
				<stop style="stop-color:#F4BA38" offset="0"/>
				<stop style="stop-color:#FFD349" offset="1"/>
			</linearGradient>
			<path d="M352.213,223.313&#10;&#9;&#9;&#9;&#9;c0,0,0.909,13.631,1.947,16.876c0.454,1.42,0.585,2.542,0.905,3.365v0.001c0.411,1.058,1.132,1.624,3.249,1.697&#10;&#9;&#9;&#9;&#9;c3.765,0.13,8.957-13.501,8.957-13.501s7.14,11.164,4.154,27.521l7.409,1.006h0.001l24.135,3.278c0,0,0.13-22.848-3.765-35.829&#10;&#9;&#9;&#9;&#9;c-3.895-12.982-9.606-13.89-12.333-14.799c-2.726-0.909-14.799,0.519-20.9,4.673c-2.746,1.869-4.806,5.428-5.959,7.821v0.001&#10;&#9;&#9;&#9;&#9;c-0.685,1.423-1.052,2.433-1.052,2.433l-0.526-2.759l-0.513-2.694L352.213,223.313z" style="fill:url(#SVGID_00000046322991324705887370000014613541558418215048_);"/>
			
				<linearGradient gradientTransform="matrix(-1 0 0 1 7969.4014 0)" y2="247.918" x2="7616.5435" y1="211.8958" x1="7606.418" gradientUnits="userSpaceOnUse" id="SVGID_00000121978317199649268270000013070460447960573588_">
				<stop style="stop-color:#FF911E" offset="0"/>
				<stop style="stop-color:#FE931E;stop-opacity:0" offset="1"/>
			</linearGradient>
			<path d="M356.887,233.049l3.129-7.625&#10;&#9;&#9;&#9;&#9;c-0.685,1.423-1.052,2.433-1.052,2.433l-0.526-2.759L356.887,233.049z" style="fill:url(#SVGID_00000121978317199649268270000013070460447960573588_);"/>
			
				<linearGradient y2="201.6104" x2="357.9742" y1="269.0224" x1="370.4579" gradientUnits="userSpaceOnUse" id="SVGID_00000114053569141353836620000003048736784943673506_">
				<stop style="stop-color:#FF911E" offset="0"/>
				<stop style="stop-color:#FE931E;stop-opacity:0" offset="1"/>
			</linearGradient>
			<path d="M355.066,243.555&#10;&#9;&#9;&#9;&#9;c0.411,1.058,1.132,1.624,3.249,1.697c3.765,0.13,8.957-13.501,8.957-13.501s7.14,11.164,4.154,27.521l7.409,1.006&#10;&#9;&#9;&#9;&#9;c-1.71-4.31-1.188-12.586-2.995-19.31c-2.337-8.698-9.866-15.059-9.866-15.059c0.779,3.116-0.519,5.842-2.726,8.698&#10;&#9;&#9;&#9;&#9;c-2.207,2.856-1.428,5.582-3.245,8.308C358.813,244.699,356.514,244.148,355.066,243.555z" style="fill:url(#SVGID_00000114053569141353836620000003048736784943673506_);"/>
			<polygon points="381.422,344.95 371.167,344.95 371.686,349.234 380.643,349.234" style="fill:#BA72ED;"/>
			<polygon points="403.361,344.95 393.105,344.95 393.625,349.234 402.582,349.234" style="fill:#BA72ED;"/>
			<path d="M371.816,201.504c0,0,0.909,8.308,5.452,8.178c4.544-0.13,6.361-0.389,5.322-4.024&#10;&#9;&#9;&#9;&#9;c-1.039-3.635,2.077-8.957,1.039-12.982c-1.039-4.024-4.284-2.467-4.284-2.467s-0.13-3.505-2.596-4.024&#10;&#9;&#9;&#9;&#9;c-2.467-0.519-4.544-0.26-8.698,1.298c-4.154,1.558-6.751,1.558-6.751,1.558s1.558,0.779,2.856,0.779c0,0-2.337,0.389-3.765,0&#10;&#9;&#9;&#9;&#9;c0,0,2.596,4.024,9.087,4.154c0,0-0.649,3.635,1.428,6.231c0,0-0.26-3.765,1.168-3.505&#10;&#9;&#9;&#9;&#9;C373.503,196.96,374.801,202.023,371.816,201.504z" style="fill:#BA2744;"/>
		</g>
		<g>
			
				<linearGradient y2="243.5746" x2="158.2051" y1="243.5746" x1="153.6334" gradientUnits="userSpaceOnUse" id="SVGID_00000102515194147005978120000003850821267166421950_">
				<stop style="stop-color:#F99393" offset="0"/>
				<stop style="stop-color:#FFB0B4" offset="1"/>
			</linearGradient>
			<path d="M153.785,246.951h4.42l-2.21-6.753&#10;&#9;&#9;&#9;&#9;C155.995,240.198,152.926,241.917,153.785,246.951z" style="fill:url(#SVGID_00000102515194147005978120000003850821267166421950_);"/>
			<path d="M113.884,228.658c0,0-3.315,7.244,2.333,10.927s23.327,10.927,38.182,10.067v-8.349&#10;&#9;&#9;&#9;&#9;c0,0-7.121,0.982-17.679-2.947C126.161,234.428,113.884,228.658,113.884,228.658z" style="fill:#EF882B;"/>
			
				<linearGradient y2="205.6965" x2="158.2052" y1="205.6965" x1="133.1593" gradientUnits="userSpaceOnUse" id="SVGID_00000119109087740149223290000003545761134113636266_">
				<stop style="stop-color:#E85B7D" offset="0"/>
				<stop style="stop-color:#FF78AF" offset="1"/>
			</linearGradient>
			<path d="M150.544,213.541&#10;&#9;&#9;&#9;&#9;c-0.065,0.047-0.13,0.093-0.196,0.139c-1.439,0.997-3.877-2.101-4.341-2.718c-0.052-0.068-0.079-0.106-0.079-0.106&#10;&#9;&#9;&#9;&#9;s-2.455,3.561-3.192,6.384c-0.737,2.824-9.576-3.438-9.576-3.438l12.523-19.275l10.313-1.105l2.21,1.842&#10;&#9;&#9;&#9;&#9;C158.205,195.263,158.302,207.958,150.544,213.541z" style="fill:url(#SVGID_00000119109087740149223290000003545761134113636266_);"/>
			
				<linearGradient y2="210.4413" x2="154.9308" y1="191.4738" x1="156.9565" gradientUnits="userSpaceOnUse" id="SVGID_00000178178624338439199510000013354298383074947514_">
				<stop style="stop-color:#EF6F6F" offset="0"/>
				<stop style="stop-color:#EF6F6F;stop-opacity:0" offset="1"/>
			</linearGradient>
			<path d="M155.013,195.754&#10;&#9;&#9;&#9;&#9;c0,0,2.455,2.333,2.947,3.315c0,0-1.473-5.279-2.455-6.016C154.522,192.317,155.013,195.754,155.013,195.754z" style="fill:url(#SVGID_00000178178624338439199510000013354298383074947514_);"/>
			<path d="M150.544,213.541c-0.065,0.047-0.13,0.093-0.196,0.139c-1.439,0.997-3.877-2.101-4.341-2.718&#10;&#9;&#9;&#9;&#9;l-0.324-5.262h2.087C147.769,205.699,147.518,211.311,150.544,213.541z" style="fill:#ED4C76;"/>
			<path d="M144.292,233.578c0,0-3.889,21.844,3.232,44.558l-15.101-9.331l9.945-40.883L144.292,233.578z" style="fill:#FCA128;"/>
			
				<linearGradient y2="338.9028" x2="176.1042" y1="274.0785" x1="132.1513" gradientUnits="userSpaceOnUse" id="SVGID_00000056411057358062263770000007248951246536792502_">
				<stop style="stop-color:#7C45CC" offset="0"/>
				<stop style="stop-color:#AB6FD6" offset="1"/>
			</linearGradient>
			<path d="M169.525,341.437&#10;&#9;&#9;&#9;&#9;c-0.669,0.446-1.513,0.634-2.385,0.672c-1.454,0.066-2.99-0.287-3.942-0.562c-5.322-11.881-13.009-37.788-14.937-39.716&#10;&#9;&#9;&#9;&#9;c-2.087-2.087-13.628-16.329-13.628-16.329l1.231-9.117v-0.001l2.083-15.436c0,0,19.889,31.553,21.363,34.745&#10;&#9;&#9;&#9;&#9;C160.575,298.432,167.266,331.56,169.525,341.437z" style="fill:url(#SVGID_00000056411057358062263770000007248951246536792502_);"/>
			<path d="M187.548,352.413c-1.351,0.614-21.854,0.368-23.081-0.737c-1.03-0.927-0.333-5.565-0.08-7.039&#10;&#9;&#9;&#9;&#9;c3.012,0.489,5.176,0.187,6.371-0.107C173.807,346.161,188.783,351.852,187.548,352.413z" style="fill:#6149B7;"/>
			
				<linearGradient y2="343.1667" x2="170.7574" y1="343.1667" x1="163.197" gradientUnits="userSpaceOnUse" id="SVGID_00000098933438191545489570000012013460633783645840_">
				<stop style="stop-color:#E85B7D" offset="0"/>
				<stop style="stop-color:#FF78AF" offset="1"/>
			</linearGradient>
			<path d="M170.757,344.531&#10;&#9;&#9;&#9;&#9;c-1.195,0.293-3.359,0.595-6.371,0.107c0.048-0.284,0.08-0.451,0.08-0.451c-0.404-0.77-0.827-1.657-1.27-2.641&#10;&#9;&#9;&#9;&#9;c1.524,0.441,4.543,1.079,6.328-0.109c0.373,1.632,0.625,2.629,0.712,2.75C170.29,344.261,170.471,344.379,170.757,344.531z" style="fill:url(#SVGID_00000098933438191545489570000012013460633783645840_);"/>
			
				<linearGradient y2="358.0255" x2="174.3075" y1="281.0944" x1="138.4614" gradientUnits="userSpaceOnUse" id="SVGID_00000040575378015930784530000015515864811995418297_">
				<stop style="stop-color:#6D5BB8" offset="0"/>
				<stop style="stop-color:#604AB7;stop-opacity:0" offset="1"/>
			</linearGradient>
			<path d="M167.139,342.109&#10;&#9;&#9;&#9;&#9;c-1.454,0.066-2.99-0.287-3.942-0.562c-5.322-11.881-13.009-37.788-14.937-39.716c-2.087-2.087-13.628-16.329-13.628-16.329&#10;&#9;&#9;&#9;&#9;l1.231-9.117c0.069,0.151,5.559,12.218,11.537,17.22c6.016,5.034,6.261,6.139,7.489,14.119&#10;&#9;&#9;&#9;&#9;C156.08,315.457,162.918,336.563,167.139,342.109z" style="fill:url(#SVGID_00000040575378015930784530000015515864811995418297_);"/>
			<path d="M114.007,352.413c-11.786,0-15.961,0.614-16.206-2.333c-0.151-1.805,1.08-5.129,2.059-7.435&#10;&#9;&#9;&#9;&#9;c2.489,1.004,4.694,1.542,4.694,1.542l0.691-0.314c-0.131,0.206-0.2,0.314-0.2,0.314s13.382,5.279,15.347,5.893&#10;&#9;&#9;&#9;&#9;C122.355,350.694,125.793,352.413,114.007,352.413z" style="fill:#6149B7;"/>
			
				<linearGradient y2="310.2405" x2="129.9263" y1="310.2405" x1="100.9939" gradientUnits="userSpaceOnUse" id="SVGID_00000091695092435419804870000014947316130866717865_">
				<stop style="stop-color:#7C45CC" offset="0"/>
				<stop style="stop-color:#AB6FD6" offset="1"/>
			</linearGradient>
			<path d="M129.599,303.058&#10;&#9;&#9;&#9;&#9;c-0.625,3.231-17.884,30.616-23.085,38.817c-1.158-0.097-2.194-0.336-3.099-0.642c-0.96-0.323-1.772-0.721-2.421-1.101v-0.001&#10;&#9;&#9;&#9;&#9;c0.133-0.403,8.652-26.229,16.205-36.827c0,0-5.525-17.188-6.139-22.959c-0.024-0.237-0.017-0.446,0.021-0.63&#10;&#9;&#9;&#9;&#9;c0.902-4.303,18.518,5.295,18.518,5.295S130.335,299.252,129.599,303.058z" style="fill:url(#SVGID_00000091695092435419804870000014947316130866717865_);"/>
			
				<linearGradient y2="342.1597" x2="106.5138" y1="342.1597" x1="99.8595" gradientUnits="userSpaceOnUse" id="SVGID_00000013171134710768042130000004719370423373884831_">
				<stop style="stop-color:#E85B7D" offset="0"/>
				<stop style="stop-color:#FF78AF" offset="1"/>
			</linearGradient>
			<path d="M106.514,341.875&#10;&#9;&#9;&#9;&#9;c-0.595,0.939-1.032,1.627-1.269,1.997l-0.691,0.314c0,0-2.205-0.538-4.694-1.542c0.618-1.458,1.133-2.509,1.133-2.509&#10;&#9;&#9;&#9;&#9;s0-0.001,0.001-0.004C102.254,340.87,104.126,341.675,106.514,341.875z" style="fill:url(#SVGID_00000013171134710768042130000004719370423373884831_);"/>
			
				<linearGradient y2="359.405" x2="100.8641" y1="277.2841" x1="119.5359" gradientUnits="userSpaceOnUse" id="SVGID_00000171702577954733963760000006849533583365715342_">
				<stop style="stop-color:#6D5BB8" offset="0"/>
				<stop style="stop-color:#604AB7;stop-opacity:0" offset="1"/>
			</linearGradient>
			<path d="M119.531,305.637&#10;&#9;&#9;&#9;&#9;c-3.524,2.99-4.62,11.093-8.226,17.434c-3.561,6.261-6.998,10.681-7.891,18.163c-0.96-0.323-1.772-0.721-2.421-1.101v-0.001&#10;&#9;&#9;&#9;&#9;c0.133-0.403,8.652-26.229,16.205-36.827c0,0-5.525-17.188-6.139-22.959c-0.024-0.237-0.017-0.446,0.021-0.63l7.1,0.753&#10;&#9;&#9;&#9;&#9;c0,0,0.245,10.559,1.596,15.715C120.978,300.767,123.583,302.199,119.531,305.637z" style="fill:url(#SVGID_00000171702577954733963760000006849533583365715342_);"/>
			
				<rect height="7.735" width="1.228" style="fill:#9B233F;" transform="matrix(0.9896 0.1437 -0.1437 0.9896 32.3769 -22.3376)" y="209.137" x="170.237"/>
			
				<rect height="7.735" width="1.228" style="fill:#BA2744;" transform="matrix(0.9896 0.1437 -0.1437 0.9896 32.3554 -22.2859)" y="209.014" x="169.868"/>
			<path d="M176.164,203.766c-0.891,4.281-3.146,7.434-5.038,7.04c-0.143-0.03-0.279-0.078-0.408-0.146&#10;&#9;&#9;&#9;&#9;c-1.596-0.821-2.228-4.36-1.405-8.319c0.824-3.96,2.814-6.952,4.605-7.069c0.146-0.011,0.29-0.001,0.433,0.029&#10;&#9;&#9;&#9;&#9;C176.243,195.694,177.054,199.484,176.164,203.766z" style="fill:#9B233F;"/>
			<path d="M175.322,203.591c-0.824,3.959-2.814,6.952-4.605,7.069c-1.596-0.821-2.228-4.36-1.405-8.319&#10;&#9;&#9;&#9;&#9;c0.824-3.96,2.814-6.952,4.605-7.069C175.514,196.093,176.146,199.631,175.322,203.591z" style="fill:#BA2744;"/>
			
				<linearGradient y2="220.3626" x2="173.685" y1="220.3626" x1="164.8508" gradientUnits="userSpaceOnUse" id="SVGID_00000172431849150833954560000006483245078229824940_">
				<stop style="stop-color:#E85B7D" offset="0"/>
				<stop style="stop-color:#FF78AF" offset="1"/>
			</linearGradient>
			<path d="M173.674,216.135&#10;&#9;&#9;&#9;&#9;c-0.123,0.737-1.228-0.491-1.228-0.491s-0.046,1.628-0.3,3.127c-0.001,0-0.001,0.001-0.001,0.001&#10;&#9;&#9;&#9;&#9;c-0.165,0.971-0.419,1.888-0.804,2.274c-0.982,0.982-2.087,1.473-2.087,1.473l-0.648,5.401l-0.088,0.738l-1.31-1.856&#10;&#9;&#9;&#9;&#9;l-2.357-3.341c0,0,3.544-10.15,3.667-10.764c0.123-0.614,2.578-0.859,3.438-0.368&#10;&#9;&#9;&#9;&#9;C172.815,212.82,173.797,215.398,173.674,216.135z" style="fill:url(#SVGID_00000172431849150833954560000006483245078229824940_);"/>
			<path d="M172.146,218.772c-0.165,0.971-0.419,1.888-0.804,2.274c-0.982,0.982-2.087,1.473-2.087,1.473&#10;&#9;&#9;&#9;&#9;l-0.648,5.401l-1.398-1.118l1.31-4.282h-1.35C167.167,222.519,171.231,220.671,172.146,218.772z" style="fill:#ED4C76;"/>
			
				<linearGradient y2="200.3684" x2="173.9044" y1="219.1518" x1="162.1187" gradientUnits="userSpaceOnUse" id="SVGID_00000158738510330870779140000004925927011765141944_">
				<stop style="stop-color:#AFE3C0" offset="0"/>
				<stop style="stop-color:#C7ECC5" offset="1"/>
			</linearGradient>
			<path d="M174.709,203.526&#10;&#9;&#9;&#9;&#9;c-0.759,3.651-2.478,6.382-3.839,6.099c-1.361-0.283-1.848-3.472-1.089-7.124c0.759-3.651,2.478-6.382,3.839-6.098&#10;&#9;&#9;&#9;&#9;C174.981,196.685,175.468,199.875,174.709,203.526z" style="fill:url(#SVGID_00000158738510330870779140000004925927011765141944_);"/>
			
				<linearGradient y2="250.9871" x2="146.215" y1="250.9871" x1="106.8725" gradientUnits="userSpaceOnUse" id="SVGID_00000167363324652536596470000017272681565675923862_">
				<stop style="stop-color:#F4BA38" offset="0"/>
				<stop style="stop-color:#FFD349" offset="1"/>
			</linearGradient>
			<path d="M146.215,218.772l-0.842,12.863&#10;&#9;&#9;&#9;&#9;c0,0-4.479,5.862-4.847,22.805c-0.368,16.943-0.611,31.466-2.087,33.64c-2.739,4.036-32.282-5.007-31.553-9.945&#10;&#9;&#9;&#9;&#9;c0.193-1.309,3.98-19.342,6.992-33.614c2.02-9.576,3.689-17.46,3.689-17.46s3.806-13.382,14.978-14.119&#10;&#9;&#9;&#9;&#9;c3.348-0.221,5.918,0.215,7.872,0.932l0.001,0.001C144.991,215.553,146.215,218.772,146.215,218.772z" style="fill:url(#SVGID_00000167363324652536596470000017272681565675923862_);"/>
			
				<linearGradient y2="236.1" x2="136.8477" y1="287.0047" x1="123.4788" gradientUnits="userSpaceOnUse" id="SVGID_00000090267001035654527480000011284928548247151036_">
				<stop style="stop-color:#FF911E" offset="0"/>
				<stop style="stop-color:#FE931E;stop-opacity:0" offset="1"/>
			</linearGradient>
			<path d="M123.337,263.894&#10;&#9;&#9;&#9;&#9;c0,0,4.911,1.842,10.313,1.719c0,0-0.859,12.768-2.21,13.628c-1.35,0.859-8.717,0-9.822-2.578&#10;&#9;&#9;&#9;&#9;C120.514,274.084,123.337,263.894,123.337,263.894z" style="fill:url(#SVGID_00000090267001035654527480000011284928548247151036_);"/>
			
				<linearGradient y2="261.0974" x2="135.4421" y1="211.9882" x1="122.6737" gradientUnits="userSpaceOnUse" id="SVGID_00000125599851751925379760000016058170534865224091_">
				<stop style="stop-color:#FF911E" offset="0"/>
				<stop style="stop-color:#FE931E;stop-opacity:0" offset="1"/>
			</linearGradient>
			<path d="M140.419,213.876&#10;&#9;&#9;&#9;&#9;c0,0-2.717,1.4-3.454,12.204c-0.637,9.342-10.819,22.445-23.088,18.442c2.02-9.576,3.689-17.46,3.689-17.46&#10;&#9;&#9;&#9;&#9;s3.806-13.382,14.978-14.119c3.348-0.221,5.918,0.215,7.872,0.932L140.419,213.876z" style="fill:url(#SVGID_00000125599851751925379760000016058170534865224091_);"/>
			<path d="M157.96,199.069c0,0,2.824-4.174,1.719-7.735c-0.628-2.024-2.947-1.842-2.947-1.842&#10;&#9;&#9;&#9;&#9;s-3.466-8.441-12.891-3.56c-6.875,3.56-3.683,9.331-17.188,16.452c-13.505,7.121-13.259,7.366-15.592,13.996&#10;&#9;&#9;&#9;&#9;c-2.333,6.63,2.824,17.557,11.172,17.188s9.945-6.998,12.032-13.996c2.087-6.998,4.297-8.594,7.612-9.208&#10;&#9;&#9;&#9;&#9;c3.315-0.614,4.911-2.21,5.893-4.911c0,0-2.333-1.596-1.596-3.683c0.737-2.087,3.683-2.946,3.192,1.228&#10;&#9;&#9;&#9;&#9;c0,0,5.402-2.333,6.752-8.103C156.118,194.895,157.468,196.737,157.96,199.069z" style="fill:#BA2744;"/>
			
				<linearGradient y2="231.6347" x2="170.8507" y1="231.6347" x1="134.9387" gradientUnits="userSpaceOnUse" id="SVGID_00000049914754835259854830000003440410544668003488_">
				<stop style="stop-color:#F4BA38" offset="0"/>
				<stop style="stop-color:#FFD349" offset="1"/>
			</linearGradient>
			<path d="M170.851,228.78&#10;&#9;&#9;&#9;&#9;c0,0-5.648,16.329-6.507,17.679c-0.043,0.069-0.096,0.135-0.156,0.201c-1.12,1.242-4.971,2.063-6.719,0.781&#10;&#9;&#9;&#9;&#9;c-1.842-1.35-20.503-17.802-21.363-19.398c-0.65-1.207-1.72-5.148-0.825-8.274c0.288-1.009,0.782-1.934,1.562-2.653&#10;&#9;&#9;&#9;&#9;c3.192-2.947,6.016-1.964,7.366-0.737c1.121,1.019,10.269,13.107,13.354,17.197c0.632,0.84,1.01,1.342,1.01,1.342l0.015-0.029&#10;&#9;&#9;&#9;&#9;l0.95-1.961l4.805-9.919L170.851,228.78z" style="fill:url(#SVGID_00000049914754835259854830000003440410544668003488_);"/>
			<polygon points="162.257,239.585 158.588,234.89 159.538,232.929" style="fill:#FFFFFF;"/>
			
				<linearGradient y2="217.2905" x2="158.7122" y1="244.729" x1="143.2435" gradientUnits="userSpaceOnUse" id="SVGID_00000065071921296210277180000006571478248287099010_">
				<stop style="stop-color:#FF911E" offset="0"/>
				<stop style="stop-color:#FE931E;stop-opacity:0" offset="1"/>
			</linearGradient>
			<path d="M164.188,246.661&#10;&#9;&#9;&#9;&#9;c-1.12,1.242-4.971,2.063-6.719,0.781c-1.842-1.35-20.503-17.802-21.363-19.398c-0.65-1.207-1.72-5.148-0.825-8.274&#10;&#9;&#9;&#9;&#9;c0.568,2.519,2.065,6.576,5.982,9.133c6.016,3.929,7.857,5.034,11.05,10.313C155.301,244.161,158.722,247.382,164.188,246.661z" style="fill:url(#SVGID_00000065071921296210277180000006571478248287099010_);"/>
		</g>
		<g>
			<path d="M220.414,241.533c0,0,9.02-0.56,10.512-5.412c1.493-4.852-1.12-8.335-2.364-14.805&#10;&#9;&#9;&#9;&#9;c-1.244-6.469-3.359-9.704-6.096-7.34c0,0-3.981-4.852-7.838-0.746c-3.857,4.105-3.794,9.393-8.771,16.484&#10;&#9;&#9;&#9;&#9;c-3.266,4.653,0.622,11.321,9.704,11.072L220.414,241.533z" style="fill:#BA2744;"/>
			
				<linearGradient gradientTransform="matrix(1 0 0 1 -1204.9999 0)" y2="247.1031" x2="1467.6072" y1="247.1031" x1="1445.1379" gradientUnits="userSpaceOnUse" id="SVGID_00000157281837519573409450000003518677389701817510_">
				<stop style="stop-color:#E85B7D" offset="0"/>
				<stop style="stop-color:#FF78AF" offset="1"/>
			</linearGradient>
			<path d="M255.933,234.628&#10;&#9;&#9;&#9;&#9;c-1.991,0.373-0.249,4.479-0.747,5.225c-0.409,0.615-4.189,0.218-5.515,0.059c0,0,0,0-0.001,0&#10;&#9;&#9;&#9;&#9;c-0.284-0.035-0.455-0.059-0.455-0.059s-1.527,18.014-2.94,21.883l-0.82-0.447l-5.317-2.9c0,0,3.105-8.708,4.598-13.934&#10;&#9;&#9;&#9;&#9;c1.493-5.225,3.483-10.824,5.225-10.824s11.072-0.746,12.441-1.12C263.771,232.14,257.923,234.255,255.933,234.628z" style="fill:url(#SVGID_00000157281837519573409450000003518677389701817510_);"/>
			<path d="M249.67,239.912c-0.284-0.035-0.455-0.059-0.455-0.059s-1.527,18.014-2.94,21.883l-0.82-0.447&#10;&#9;&#9;&#9;&#9;l-1.589-1.53c0.061,0.021,1.881,0.584,2.86-8.834c0.995-9.579,1.452-11.311,2.84-11.067&#10;&#9;&#9;&#9;&#9;C249.6,239.865,249.635,239.882,249.67,239.912z" style="fill:#ED4C76;"/>
			
				<linearGradient gradientTransform="matrix(1 0 0 1 -1204.9999 0)" y2="257.0071" x2="1451.7264" y1="257.0071" x1="1429.6031" gradientUnits="userSpaceOnUse" id="SVGID_00000085929960013967343040000003312836111582343841_">
				<stop style="stop-color:#A768DD" offset="0"/>
				<stop style="stop-color:#E290D4" offset="1"/>
			</linearGradient>
			<path d="M246.727,260.381&#10;&#9;&#9;&#9;&#9;c0,0-3.359,10.45-4.976,11.072c-1.617,0.622-11.321-7.589-11.321-7.589l-5.826-21.336c4.001-0.062,6.946,4.292,9.932,9.268&#10;&#9;&#9;&#9;&#9;c1.224,2.042,2.56,4.489,3.498,6.246l0.012,0.024c0.025,0.046,0.049,0.091,0.072,0.136c0.69,1.295,1.145,2.178,1.145,2.178&#10;&#9;&#9;&#9;&#9;l0.029-0.065l0.673-1.529l0.667-1.517L246.727,260.381z" style="fill:url(#SVGID_00000085929960013967343040000003312836111582343841_);"/>
			
				<linearGradient y2="261.3257" x2="241.2527" y1="261.3257" x1="239.2908" gradientUnits="userSpaceOnUse" id="SVGID_00000012451144733756816400000000546748344937887872_">
				<stop style="stop-color:#9066DD" offset="0"/>
				<stop style="stop-color:#8543DD;stop-opacity:0" offset="1"/>
			</linearGradient>
			<polygon points="241.253,263.864 &#10;&#9;&#9;&#9;&#9;239.291,260.316 239.964,258.787" style="fill:url(#SVGID_00000012451144733756816400000000546748344937887872_);"/>
			<path d="M200.8,379.742l1.139,13.382h1.12v-7.589c0,0,0.995,6.469,3.359,7.465&#10;&#9;&#9;&#9;&#9;c2.364,0.995,7.713,1.244,8.46-0.124c0.746-1.368-8.087-5.598-9.455-11.943C205.423,380.932,202.896,382.035,200.8,379.742z" style="fill:#6149B7;"/>
			<path d="M202.686,382.798c0,0,1.306,0.187,2.488-0.373c0,0,1.617,4.852,5.35,7.216&#10;&#9;&#9;&#9;&#9;C212.839,391.106,205.548,393.87,202.686,382.798z" style="fill:#FF78AF;"/>
			<path d="M226.926,379.742l1.139,13.382h1.12v-7.589c0,0,0.995,6.469,3.359,7.465&#10;&#9;&#9;&#9;&#9;c2.364,0.995,7.713,1.244,8.46-0.124c0.746-1.368-8.211-6.22-9.579-12.565C231.424,380.31,229.021,382.035,226.926,379.742z" style="fill:#6149B7;"/>
			<path d="M228.812,382.798c0,0,1.306,0.187,2.488-0.373c0,0,1.617,4.852,5.35,7.216&#10;&#9;&#9;&#9;&#9;C238.964,391.106,231.673,393.87,228.812,382.798z" style="fill:#FF78AF;"/>
			
				<linearGradient gradientTransform="matrix(1 0 0 1 -1204.9999 0)" y2="367.2777" x2="1413.4556" y1="314.2748" x1="1414.9485" gradientUnits="userSpaceOnUse" id="SVGID_00000174580334616885812050000014145959319459992473_">
				<stop style="stop-color:#E85B7D" offset="0"/>
				<stop style="stop-color:#FF78AF" offset="1"/>
			</linearGradient>
			<path d="M217.74,315.742&#10;&#9;&#9;&#9;&#9;c0,0-0.001,0.026-0.003,0.077c0,0.014-0.001,0.03-0.002,0.048c-0.032,0.454-0.229-0.371-1.364,5.721&#10;&#9;&#9;&#9;&#9;c-0.216,1.164-0.575,2.832-1.009,4.728c-0.898,3.916-2.121,8.815-3.096,12.316c-4.23,15.178-6.842,42.672-6.842,42.672&#10;&#9;&#9;&#9;&#9;c-3.483,1.493-4.479-0.249-4.479-0.249c-1.742-13.809,2.364-42.796,3.11-47.15c0.279-1.624,0.347-4.553,0.325-7.589&#10;&#9;&#9;&#9;&#9;c-0.02-2.619-0.108-5.316-0.19-7.323c-0.077-1.907-0.148-3.191-0.148-3.191L217.74,315.742z" style="fill:url(#SVGID_00000174580334616885812050000014145959319459992473_);"/>
			
				<linearGradient gradientTransform="matrix(1 0 0 1 -1204.9999 0)" y2="367.9465" x2="1437.194" y1="314.9435" x1="1438.687" gradientUnits="userSpaceOnUse" id="SVGID_00000162317008374369664520000016409292530531462063_">
				<stop style="stop-color:#E85B7D" offset="0"/>
				<stop style="stop-color:#FF78AF" offset="1"/>
			</linearGradient>
			<path d="M240.262,323.06&#10;&#9;&#9;&#9;&#9;c-0.103,5.593-1.171,13.488-3.613,25.775c-3.981,20.03-5.225,31.848-5.225,31.848c-2.364,2.364-4.479-0.124-4.479-0.124&#10;&#9;&#9;&#9;&#9;c-2.239-19.781,3.857-39.935,2.737-45.906c-0.429-2.289-0.933-5.404-1.367-8.328c0-0.003-0.001-0.005-0.001-0.008&#10;&#9;&#9;&#9;&#9;c-0.375-2.528-0.743-6.299-1.003-9.243c-0.223-2.526-0.366-4.441-0.366-4.441s2.683,3.406,6.498,2.784&#10;&#9;&#9;&#9;&#9;c3.196-0.522,6.224-0.292,6.565,2.316c0.095,0.724,0.165,1.494,0.208,2.321C240.266,320.98,240.282,321.977,240.262,323.06z" style="fill:url(#SVGID_00000162317008374369664520000016409292530531462063_);"/>
			<path d="M217.737,315.819c0,0.014-0.001,0.03-0.002,0.048c-0.032,0.454-0.229-0.371-1.364,5.721&#10;&#9;&#9;&#9;&#9;c-0.216,1.164-0.575,2.832-1.009,4.728H204.38c-0.02-2.619-0.108-5.316-0.19-7.323L217.737,315.819z" style="fill:#ED4C76;"/>
			<path d="M240.262,323.06l-11.947,3.264c0-0.003-0.001-0.005-0.001-0.008&#10;&#9;&#9;&#9;&#9;c-0.375-2.528-0.743-6.299-1.003-9.243c1.535-0.546,3.875-1.289,6.132-1.657l6.773,4.638&#10;&#9;&#9;&#9;&#9;C240.266,320.98,240.282,321.977,240.262,323.06z" style="fill:#ED4C76;"/>
			
				<linearGradient gradientTransform="matrix(1 0 0 1 -1204.9999 0)" y2="326.9076" x2="1442.0601" y1="275.1541" x1="1404.7378" gradientUnits="userSpaceOnUse" id="SVGID_00000077325157606228288520000003570144719001862538_">
				<stop style="stop-color:#7C45CC" offset="0"/>
				<stop style="stop-color:#AB6FD6" offset="1"/>
			</linearGradient>
			<path d="M241.253,320.718&#10;&#9;&#9;&#9;&#9;c-22.02,6.842-38.442,1.742-38.442,1.742c1.412-6.464,1.971-11.852,2.244-16.684c0.52-9.212,0.004-16.404,2.392-25.173&#10;&#9;&#9;&#9;&#9;l24.987-2.577l0.388-0.04c0.02,0.048,0.04,0.097,0.061,0.146c1.057,2.544,1.984,5.244,2.797,8.001&#10;&#9;&#9;&#9;&#9;C240.48,302.435,241.253,320.718,241.253,320.718z" style="fill:url(#SVGID_00000077325157606228288520000003570144719001862538_);"/>
			
				<linearGradient gradientTransform="matrix(1 0 0 1 -1204.9999 0)" y2="312.5334" x2="1430.6631" y1="267.2491" x1="1416.2318" gradientUnits="userSpaceOnUse" id="SVGID_00000015327288157430110530000001316901576575206822_">
				<stop style="stop-color:#6D5BB8" offset="0"/>
				<stop style="stop-color:#604AB7;stop-opacity:0" offset="1"/>
			</linearGradient>
			<path d="M235.68,286.133&#10;&#9;&#9;&#9;&#9;c-2.601,2.402-7.993,4.881-19.309,9.953c-5.545,2.486-9.081,6.006-11.316,9.69c0.52-9.212,0.004-16.404,2.392-25.173&#10;&#9;&#9;&#9;&#9;l24.987-2.577c0.153,0.035,0.302,0.07,0.449,0.106C233.941,280.677,234.868,283.376,235.68,286.133z" style="fill:url(#SVGID_00000015327288157430110530000001316901576575206822_);"/>
			
				<linearGradient gradientTransform="matrix(-1 0 0 1 776.4916 0)" y2="255.4589" x2="564.8348" y1="284.5732" x1="561.8488" gradientUnits="userSpaceOnUse" id="SVGID_00000085222947745355245620000009887540631822449301_">
				<stop style="stop-color:#A768DD" offset="0"/>
				<stop style="stop-color:#E290D4" offset="1"/>
			</linearGradient>
			<path d="M231.424,264.984&#10;&#9;&#9;&#9;&#9;c-0.995,5.598,1.742,14.182,1.742,14.182c-6.172,4.908-14.165,4.793-19.598,3.906c-3.657-0.596-6.154-1.543-6.154-1.543&#10;&#9;&#9;&#9;&#9;c0.622-14.058-3.857-20.154-3.857-20.154l-2.151,2.9l-0.004,0.004l-0.707,0.953l3.483,3.11l-3.483,6.594&#10;&#9;&#9;&#9;&#9;c0,0-8.211-4.728-9.082-5.723c-0.871-0.995-0.746-1.866,0-4.354c0.746-2.488,11.57-20.278,13.934-21.398&#10;&#9;&#9;&#9;&#9;c2.364-1.12,4.79-0.933,4.79-0.933c8.149,4.417,13.272,0.179,13.272,0.179c1.89-0.132,2.715-0.117,3.71,0.878&#10;&#9;&#9;&#9;&#9;c0.995,0.995,4.852,6.22,5.847,9.206c0.409,1.228,0.356,2.563,0.081,4.097c-0.292,1.633-0.835,3.495-1.334,5.698&#10;&#9;&#9;&#9;&#9;C231.74,263.344,231.574,264.142,231.424,264.984z" style="fill:url(#SVGID_00000085222947745355245620000009887540631822449301_);"/>
			
				<linearGradient y2="268.6787" x2="213.5682" y1="268.6787" x1="198.0832" gradientUnits="userSpaceOnUse" id="SVGID_00000100352036809979835100000011205757151316454817_">
				<stop style="stop-color:#9066DD" offset="0"/>
				<stop style="stop-color:#8543DD;stop-opacity:0" offset="1"/>
			</linearGradient>
			<path d="M207.414,281.53&#10;&#9;&#9;&#9;&#9;c0.622-14.058-3.857-20.154-3.857-20.154l-2.151,2.9l-0.004,0.004l-3.319,3.69l8.087-13.685c0,0,4.727,9.704,5.101,17.666&#10;&#9;&#9;&#9;&#9;c0.294,6.251,0.356,8.976,2.298,11.122C209.911,282.477,207.414,281.53,207.414,281.53z" style="fill:url(#SVGID_00000100352036809979835100000011205757151316454817_);"/>
			
				<linearGradient gradientTransform="matrix(1 0 0 1 -1204.9999 0)" y2="247.2085" x2="1427.0098" y1="271.0175" x1="1427.0098" gradientUnits="userSpaceOnUse" id="SVGID_00000074432111899275910700000008870859022387127721_">
				<stop style="stop-color:#9066DD" offset="0"/>
				<stop style="stop-color:#8543DD;stop-opacity:0" offset="1"/>
			</linearGradient>
			<path d="M233.247,256.889&#10;&#9;&#9;&#9;&#9;c-0.292,1.633-0.835,3.495-1.334,5.698c-1.424,0.824-3.189,1.244-5.092,0.407c-3.11-1.368-5.598,0-8.957,0.746&#10;&#9;&#9;&#9;&#9;c-3.359,0.747-7.091-3.608-7.091-3.608s4.976,2.613,7.091,1.493c2.115-1.12,3.857-1.99,8.957-1.12&#10;&#9;&#9;&#9;&#9;C230.072,261.06,232.161,258.685,233.247,256.889z" style="fill:url(#SVGID_00000074432111899275910700000008870859022387127721_);"/>
			<polyline points="238.119,258.199 238.118,258.202 &#10;&#9;&#9;&#9;&#9;238.018,258.39" style="fill:none;stroke:#2F2C93;stroke-width:0.2017;stroke-miterlimit:10;"/>
			
				<linearGradient gradientTransform="matrix(1 0 0 1 -1204.9999 0)" y2="277.9872" x2="1423.3875" y1="277.9872" x1="1405.6957" gradientUnits="userSpaceOnUse" id="SVGID_00000058579910182010265270000004414915331388822684_">
				<stop style="stop-color:#E85B7D" offset="0"/>
				<stop style="stop-color:#FF78AF" offset="1"/>
			</linearGradient>
			<path d="M218.383,283.548&#10;&#9;&#9;&#9;&#9;c-0.146,1.839-2.509,3.954-3.753,4.078c-0.065,0.006-0.131,0.008-0.198,0.003c-1.228-0.08-2.891-1.875-4.779-1.993&#10;&#9;&#9;&#9;&#9;c-1.99-0.124-0.622-1.617,1.12-1.617c0.397,0,0.776-0.05,1.125-0.126c0.004-0.001,0.006-0.002,0.009-0.002&#10;&#9;&#9;&#9;&#9;c0.109-0.022,0.215-0.05,0.317-0.078c0.001,0,0.001-0.001,0.003,0c0.004-0.001,0.006-0.001,0.009-0.003&#10;&#9;&#9;&#9;&#9;c0.997-0.279,1.67-0.737,1.67-0.737l-0.343-0.211l-12.865-7.925l1.07-2.027l2.413-4.567c0,0,7.465,7.465,9.331,9.082&#10;&#9;&#9;&#9;&#9;C215.376,279.042,218.527,281.71,218.383,283.548z" style="fill:url(#SVGID_00000058579910182010265270000004414915331388822684_);"/>
			
				<linearGradient gradientTransform="matrix(1 0 0 1 -1204.9999 0)" y2="285.7605" x2="1419.4449" y1="285.7605" x1="1413.6694" gradientUnits="userSpaceOnUse" id="SVGID_00000041282867972863108180000006490628486222656420_">
				<stop style="stop-color:#EF6F6F" offset="0"/>
				<stop style="stop-color:#EF6F6F;stop-opacity:0" offset="1"/>
			</linearGradient>
			<path d="M214.432,287.629&#10;&#9;&#9;&#9;&#9;c-1.228-0.08-2.891-1.875-4.779-1.993c-1.99-0.124-0.622-1.617,1.12-1.617c0.397,0,0.776-0.05,1.125-0.126&#10;&#9;&#9;&#9;&#9;c-0.585,0.177-1.524,0.645,0.741,1.494C214.235,285.985,214.516,286.903,214.432,287.629z" style="fill:url(#SVGID_00000041282867972863108180000006490628486222656420_);"/>
			<polygon points="213.561,282.861 200.696,274.936 201.766,272.91 215.5,283.023" style="fill:#ED4C76;"/>
			
				<linearGradient gradientTransform="matrix(1 0 0 1 -1204.9999 0)" y2="222.8533" x2="1428.9539" y1="251.7159" x1="1417.5083" gradientUnits="userSpaceOnUse" id="SVGID_00000091723017871867033170000000696160419019173510_">
				<stop style="stop-color:#E85B7D" offset="0"/>
				<stop style="stop-color:#FF78AF" offset="1"/>
			</linearGradient>
			<path d="M225.391,242.653&#10;&#9;&#9;&#9;&#9;c0,0,0.312,5.928-4.96,6.657c-0.494,0.07-1.036,0.093-1.633,0.061c-6.967-0.373-9.953-6.842-9.953-6.842s0.984,0.065,2.107,0.065&#10;&#9;&#9;&#9;&#9;c1.354,0,2.907-0.092,3.18-0.5c0.498-0.746,0.249-10.823,0.249-10.823s-0.878,0.756-1.244-0.249&#10;&#9;&#9;&#9;&#9;c-0.498-1.368-1.68-4.914,0.187-4.914s1.991,2.861,1.991,2.861s4.551-3.623,6.3-8.096c0.376-0.962,0.623-1.963,0.667-2.976&#10;&#9;&#9;&#9;&#9;c0,0,0.995,4.976,4.479,6.594c0,0,0.005,0.091,0.012,0.258c0.064,1.56,0.266,9.778-2.376,12.308&#10;&#9;&#9;&#9;&#9;c-0.524,0.501-1.094,0.705-1.595,0.77c0,0-0.001,0-0.003,0c-0.779,0.097-1.388-0.148-1.388-0.148s0.027,1.049,0.155,2.182&#10;&#9;&#9;&#9;&#9;c0.148,1.306,0.432,2.727,0.964,2.794C223.525,242.777,225.391,242.653,225.391,242.653z" style="fill:url(#SVGID_00000091723017871867033170000000696160419019173510_);"/>
			<path d="M221.41,237.676c0,0,0.027,1.049,0.155,2.182c-3.237-1.248-5.318-5.23-5.318-5.23&#10;&#9;&#9;&#9;&#9;c3.033,2.572,5.193,3.186,6.551,3.196C222.019,237.921,221.41,237.676,221.41,237.676z" style="fill:#ED4C76;"/>
			<path d="M226.772,224.747c-2.152-0.418-4.027-2.4-5.158-3.875c0.376-0.962,0.623-1.963,0.667-2.976&#10;&#9;&#9;&#9;&#9;c0,0,0.995,4.976,4.479,6.594C226.759,224.489,226.764,224.58,226.772,224.747z" style="fill:#ED4C76;"/>
			<path d="M220.431,249.31c-0.494,0.07-1.036,0.093-1.633,0.061c-6.967-0.373-9.953-6.842-9.953-6.842&#10;&#9;&#9;&#9;&#9;s0.984,0.065,2.107,0.065C211.871,244.348,214.909,249.2,220.431,249.31z" style="fill:#ED4C76;"/>
		</g>
		<g>
			
				<linearGradient y2="385.6867" x2="297.303" y1="406.6988" x1="297.303" gradientUnits="userSpaceOnUse" id="SVGID_00000138544875672183617210000000192438372904073369_">
				<stop style="stop-color:#9F42DD" offset="0"/>
				<stop style="stop-color:#E774E0" offset="1"/>
			</linearGradient>
			<path d="M289.349,403.013&#10;&#9;&#9;&#9;&#9;c0,0-9.232-4.457-8.595-8.277c0.637-3.82,3.979-1.751,8.595,1.114c4.616,2.865,3.661-2.228,3.979-7.958&#10;&#9;&#9;&#9;&#9;c0.318-5.73,2.228-8.436,5.253-7.958s0.796,9.391,4.138,9.073c3.343-0.318,2.865,2.706,2.706,6.367&#10;&#9;&#9;&#9;&#9;c-0.159,3.661,2.228,2.706,3.661,0.478s8.277-4.298,2.547,7.162H289.349z" style="fill:url(#SVGID_00000138544875672183617210000000192438372904073369_);"/>
			
				<linearGradient gradientTransform="matrix(-1 0 0 1 384.6715 0)" y2="335.6038" x2="46.0098" y1="352.3055" x1="46.0098" gradientUnits="userSpaceOnUse" id="SVGID_00000116943517800467920680000014857685283087673742_">
				<stop style="stop-color:#9F42DD" offset="0"/>
				<stop style="stop-color:#E774E0" offset="1"/>
			</linearGradient>
			<path d="M344.984,349.376&#10;&#9;&#9;&#9;&#9;c0,0,7.338-3.542,6.832-6.579c-0.506-3.036-3.163-1.392-6.832,0.886c-3.669,2.277-2.91-1.771-3.163-6.326&#10;&#9;&#9;&#9;&#9;c-0.253-4.555-1.771-6.705-4.175-6.326c-2.404,0.379-0.633,7.464-3.289,7.211c-2.657-0.253-2.277,2.151-2.151,5.061&#10;&#9;&#9;&#9;&#9;c0.126,2.91-1.771,2.151-2.91,0.38c-1.139-1.771-6.579-3.416-2.024,5.693H344.984z" style="fill:url(#SVGID_00000116943517800467920680000014857685283087673742_);"/>
			
				<linearGradient y2="340.5516" x2="141.1487" y1="355.378" x1="141.1487" gradientUnits="userSpaceOnUse" id="SVGID_00000071548443777381069790000014813732967304481433_">
				<stop style="stop-color:#9F42DD" offset="0"/>
				<stop style="stop-color:#E774E0" offset="1"/>
			</linearGradient>
			<path d="M135.536,352.777&#10;&#9;&#9;&#9;&#9;c0,0-6.514-3.145-6.065-5.84c0.449-2.695,2.808-1.235,6.065,0.786c3.257,2.022,2.583-1.572,2.808-5.616&#10;&#9;&#9;&#9;&#9;c0.225-4.043,1.572-5.952,3.706-5.616c2.134,0.337,0.562,6.626,2.92,6.402c2.359-0.225,2.022,1.909,1.909,4.492&#10;&#9;&#9;&#9;&#9;c-0.112,2.583,1.572,1.909,2.583,0.337c1.011-1.572,5.84-3.032,1.797,5.054H135.536z" style="fill:url(#SVGID_00000071548443777381069790000014813732967304481433_);"/>
			
				<linearGradient gradientTransform="matrix(-1 0 0 1 582.5828 0)" y2="392.3732" x2="242.5178" y1="405.2763" x1="242.5178" gradientUnits="userSpaceOnUse" id="SVGID_00000078018739037168672040000013439323158565976500_">
				<stop style="stop-color:#9F42DD" offset="0"/>
				<stop style="stop-color:#E774E0" offset="1"/>
			</linearGradient>
			<path d="M343.099,403.013&#10;&#9;&#9;&#9;&#9;c0,0,2.899-2.464,2.609-4.638c-0.29-2.174-2.319-1.015-4.059,0.725c-1.739,1.739-2.319-2.868-2.319-5.943&#10;&#9;&#9;&#9;&#9;c0-4.059-2.609-6.088-3.334-2.464c-0.649,3.247-1.594,12.321-1.594,12.321H343.099z" style="fill:url(#SVGID_00000078018739037168672040000013439323158565976500_);"/>
		</g>
		<path d="M215.398,326.348" style="fill:#E8F2DD;"/>
	</g>
</g>
<g id="DESIGNED_BY_FREEPIK">
	<g>
		<g id="XMLID_1_">
			<g id="XMLID_20_">
				<path d="M260.104,463.779c-0.432,0.443-0.803,0.931-1.108,1.453l-0.465-0.241&#10;&#9;&#9;&#9;&#9;&#9;c-0.067-0.298-0.349-0.503-0.659-0.466c-0.331,0.039-0.568,0.339-0.529,0.67c0.039,0.331,0.339,0.568,0.67,0.529&#10;&#9;&#9;&#9;&#9;&#9;c0.065-0.008,0.127-0.026,0.184-0.052l0.452,0.234c-0.251,0.554-0.433,1.139-0.539,1.744l0.746,0.132&#10;&#9;&#9;&#9;&#9;&#9;c0.23-1.306,0.85-2.507,1.792-3.473L260.104,463.779z" style="fill:#1D262D;" id="XMLID_28_"/>
				<path d="M265.592,461.477c-0.171,0-0.341,0.006-0.51,0.017l-0.074-0.626&#10;&#9;&#9;&#9;&#9;&#9;c0.188-0.149,0.296-0.389,0.266-0.645c-0.046-0.393-0.402-0.674-0.795-0.628c-0.393,0.046-0.674,0.402-0.628,0.795&#10;&#9;&#9;&#9;&#9;&#9;c0.03,0.254,0.189,0.461,0.405,0.564l0.073,0.624c-0.714,0.116-1.403,0.332-2.06,0.646l0.327,0.684&#10;&#9;&#9;&#9;&#9;&#9;c0.934-0.447,1.942-0.673,2.996-0.673c0.496,0,0.993,0.053,1.475,0.158l0.16-0.741&#10;&#9;&#9;&#9;&#9;&#9;C266.692,461.536,266.142,461.477,265.592,461.477z" style="fill:#1D262D;" id="XMLID_27_"/>
				<path d="M272.194,464.024c0.331-0.041,0.566-0.342,0.526-0.672&#10;&#9;&#9;&#9;&#9;&#9;c-0.04-0.331-0.342-0.566-0.672-0.526c-0.309,0.038-0.535,0.304-0.53,0.609l-0.416,0.363c-0.418-0.43-0.889-0.813-1.408-1.139&#10;&#9;&#9;&#9;&#9;&#9;l-0.404,0.641c1.134,0.715,2.021,1.726,2.563,2.925l0.69-0.313c-0.251-0.554-0.568-1.072-0.942-1.545l0.402-0.351&#10;&#9;&#9;&#9;&#9;&#9;C272.065,464.029,272.129,464.033,272.194,464.024z" style="fill:#1D262D;" id="XMLID_26_"/>
				<path d="M265.044,471.686c-0.386,0.023-0.775,0.035-1.157,0.035&#10;&#9;&#9;&#9;&#9;&#9;c-0.88,0-1.733-0.061-2.478-0.179c-0.39-0.062-0.846-0.155-1.27-0.292c1.046,1.861,3.069,3.125,5.388,3.125&#10;&#9;&#9;&#9;&#9;&#9;c2.855,0,5.262-1.916,5.949-4.504c-0.682,0.449-1.505,0.825-2.458,1.123C267.839,471.361,266.463,471.6,265.044,471.686z" style="fill:#1D262D;" id="XMLID_25_"/>
				<path d="M265.592,462.993c-3.352,0-6.08,2.666-6.08,5.944&#10;&#9;&#9;&#9;&#9;&#9;c0,0.426,0.046,0.849,0.137,1.261c0.674,0.483,2.706,0.89,5.348,0.731c2.879-0.173,5.297-0.957,6.672-2.159&#10;&#9;&#9;&#9;&#9;&#9;c-0.005-0.195-0.021-0.39-0.045-0.582C271.243,465.227,268.65,462.993,265.592,462.993z M263.432,469.508&#10;&#9;&#9;&#9;&#9;&#9;c-1.02,0-1.85-0.83-1.85-1.85c0-1.02,0.83-1.85,1.85-1.85c1.02,0,1.85,0.83,1.85,1.85&#10;&#9;&#9;&#9;&#9;&#9;C265.282,468.678,264.452,469.508,263.432,469.508z M268.17,468.6c-0.75,0-1.36-0.61-1.36-1.36c0-0.75,0.61-1.36,1.36-1.36&#10;&#9;&#9;&#9;&#9;&#9;c0.75,0,1.36,0.61,1.36,1.36C269.53,467.99,268.92,468.6,268.17,468.6z" style="fill:#1D262D;" id="XMLID_21_"/>
			</g>
			<path d="M281.595,464.861c-0.295-0.116-0.806-0.309-1.382-0.237&#10;&#9;&#9;&#9;&#9;c-0.551,0.069-0.844,0.341-0.844,1.007v0.866h2.228v1.717h-2.228v5.455h-1.932v-5.455h-1.34v-1.717h1.34v-0.888&#10;&#9;&#9;&#9;&#9;c0-1.68,0.896-2.783,2.568-2.783c0.642,0,1.157,0.122,1.59,0.308L281.595,464.861z" style="fill:#1D262D;" id="XMLID_18_"/>
			<path d="M286.298,468.193c-0.177-0.03-0.358-0.046-0.526-0.046&#10;&#9;&#9;&#9;&#9;c-0.895,0-1.51,0.548-1.51,1.613v3.908h-1.932v-7.172h1.873v0.785c0.451-0.673,1.14-0.977,2.021-0.977&#10;&#9;&#9;&#9;&#9;c0.414,0,0.848,0.127,1.094,0.337L286.298,468.193z" style="fill:#1D262D;" id="XMLID_16_"/>
			<path d="M293.965,470.071c0,0.222-0.015,0.489-0.037,0.651h-5.085&#10;&#9;&#9;&#9;&#9;c0.207,1.036,0.933,1.488,1.843,1.488c0.622,0,1.295-0.252,1.813-0.688l1.133,1.243c-0.814,0.748-1.85,1.088-3.057,1.088&#10;&#9;&#9;&#9;&#9;c-2.198,0-3.723-1.495-3.723-3.753c0-2.258,1.48-3.797,3.627-3.797C292.544,466.303,293.957,467.835,293.965,470.071z&#10;&#9;&#9;&#9;&#9; M288.851,469.405h3.175c-0.178-0.918-0.733-1.436-1.562-1.436C289.554,467.969,289.021,468.516,288.851,469.405z" style="fill:#1D262D;" id="XMLID_13_"/>
			<path d="M301.618,470.071c0,0.222-0.015,0.489-0.037,0.651h-5.085&#10;&#9;&#9;&#9;&#9;c0.207,1.036,0.932,1.488,1.843,1.488c0.622,0,1.295-0.252,1.814-0.688l1.132,1.243c-0.814,0.748-1.85,1.088-3.057,1.088&#10;&#9;&#9;&#9;&#9;c-2.198,0-3.723-1.495-3.723-3.753c0-2.258,1.48-3.797,3.627-3.797C300.197,466.303,301.611,467.835,301.618,470.071z&#10;&#9;&#9;&#9;&#9; M296.504,469.405h3.175c-0.178-0.918-0.733-1.436-1.562-1.436C297.207,467.969,296.674,468.516,296.504,469.405z" style="fill:#1D262D;" id="XMLID_10_"/>
			<path d="M309.964,470.078c0,2.154-1.495,3.775-3.471,3.775&#10;&#9;&#9;&#9;&#9;c-0.962,0-1.643-0.378-2.109-0.933v3.708h-1.924v-10.133h1.887v0.792c0.466-0.585,1.155-0.984,2.139-0.984&#10;&#9;&#9;&#9;&#9;C308.469,466.303,309.964,467.924,309.964,470.078z M304.287,470.078c0,1.132,0.748,1.976,1.843,1.976&#10;&#9;&#9;&#9;&#9;c1.14,0,1.85-0.881,1.85-1.976c0-1.095-0.711-1.976-1.85-1.976C305.035,468.102,304.287,468.946,304.287,470.078z" style="fill:#1D262D;" id="XMLID_7_"/>
			<path d="M313.068,464.15c0,0.696-0.54,1.229-1.236,1.229c-0.696,0-1.229-0.533-1.229-1.229&#10;&#9;&#9;&#9;&#9;c0-0.696,0.533-1.243,1.229-1.243C312.527,462.906,313.068,463.454,313.068,464.15z M312.809,473.668h-1.932v-7.172h1.932&#10;&#9;&#9;&#9;&#9;V473.668z" style="fill:#1D262D;" id="XMLID_4_"/>
			<path d="M316.032,469.049l2.702-2.554h2.368l-3.479,3.375l3.501,3.797h-2.376l-2.716-2.901&#10;&#9;&#9;&#9;&#9;v2.901H314.1V463.01h1.932V469.049z" style="fill:#1D262D;" id="XMLID_2_"/>
		</g>
		<g>
			<path d="M184.412,473.603v-1.055c-0.527,0.718-1.391,1.23-2.387,1.23c-1.846,0-3.149-1.406-3.149-3.706&#10;&#9;&#9;&#9;&#9;c0-2.256,1.289-3.721,3.149-3.721c0.952,0,1.816,0.469,2.387,1.245v-3.765h1.099v9.77H184.412z M184.412,471.684v-3.208&#10;&#9;&#9;&#9;&#9;c-0.395-0.615-1.245-1.143-2.124-1.143c-1.421,0-2.27,1.172-2.27,2.739c0,1.567,0.85,2.724,2.27,2.724&#10;&#9;&#9;&#9;&#9;C183.167,472.797,184.017,472.299,184.412,471.684z" style="fill:#1D262D;"/>
			<path d="M186.932,470.058c0-2.051,1.465-3.706,3.486-3.706c2.139,0,3.398,1.67,3.398,3.794v0.279h-5.727&#10;&#9;&#9;&#9;&#9;c0.088,1.333,1.025,2.446,2.549,2.446c0.805,0,1.626-0.322,2.182-0.893l0.527,0.718c-0.703,0.703-1.655,1.084-2.812,1.084&#10;&#9;&#9;&#9;&#9;C188.44,473.779,186.932,472.27,186.932,470.058z M190.403,467.26c-1.509,0-2.256,1.274-2.314,2.358h4.643&#10;&#9;&#9;&#9;&#9;C192.718,468.564,192.014,467.26,190.403,467.26z" style="fill:#1D262D;"/>
			<path d="M194.607,472.665l0.571-0.791c0.469,0.542,1.362,1.011,2.329,1.011c1.084,0,1.67-0.513,1.67-1.216&#10;&#9;&#9;&#9;&#9;c0-1.714-4.38-0.659-4.38-3.281c0-1.098,0.952-2.036,2.636-2.036c1.201,0,2.051,0.454,2.622,1.025l-0.513,0.762&#10;&#9;&#9;&#9;&#9;c-0.424-0.513-1.201-0.894-2.109-0.894c-0.967,0-1.567,0.483-1.567,1.113c0,1.553,4.38,0.527,4.38,3.281&#10;&#9;&#9;&#9;&#9;c0,1.187-0.952,2.138-2.783,2.138C196.306,473.779,195.324,473.427,194.607,472.665z" style="fill:#1D262D;"/>
			<path d="M201.477,464.785c0-0.41,0.337-0.747,0.732-0.747c0.41,0,0.747,0.337,0.747,0.747&#10;&#9;&#9;&#9;&#9;c0,0.41-0.337,0.732-0.747,0.732C201.814,465.517,201.477,465.195,201.477,464.785z M201.667,473.603v-7.075h1.099v7.075H201.667&#10;&#9;&#9;&#9;&#9;z" style="fill:#1D262D;"/>
			<path d="M204.582,475.419l0.556-0.82c0.586,0.703,1.289,0.967,2.3,0.967c1.172,0,2.27-0.571,2.27-2.124&#10;&#9;&#9;&#9;&#9;v-1.011c-0.513,0.718-1.377,1.26-2.373,1.26c-1.845,0-3.149-1.377-3.149-3.662c0-2.27,1.289-3.676,3.149-3.676&#10;&#9;&#9;&#9;&#9;c0.952,0,1.802,0.469,2.373,1.245v-1.069h1.099v6.87c0,2.344-1.641,3.076-3.369,3.076&#10;&#9;&#9;&#9;&#9;C206.237,476.474,205.417,476.239,204.582,475.419z M209.709,471.567v-3.091c-0.381-0.615-1.23-1.143-2.109-1.143&#10;&#9;&#9;&#9;&#9;c-1.421,0-2.27,1.128-2.27,2.695c0,1.553,0.849,2.695,2.27,2.695C208.478,472.724,209.328,472.182,209.709,471.567z" style="fill:#1D262D;"/>
			<path d="M217.413,473.603v-4.629c0-1.245-0.63-1.641-1.582-1.641c-0.865,0-1.685,0.527-2.094,1.099v5.17&#10;&#9;&#9;&#9;&#9;h-1.099v-7.075h1.099v1.025c0.498-0.586,1.464-1.201,2.519-1.201c1.48,0,2.256,0.747,2.256,2.285v4.966H217.413z" style="fill:#1D262D;"/>
			<path d="M219.932,470.058c0-2.051,1.465-3.706,3.486-3.706c2.138,0,3.398,1.67,3.398,3.794v0.279h-5.727&#10;&#9;&#9;&#9;&#9;c0.088,1.333,1.025,2.446,2.549,2.446c0.806,0,1.626-0.322,2.183-0.893l0.527,0.718c-0.703,0.703-1.655,1.084-2.812,1.084&#10;&#9;&#9;&#9;&#9;C221.441,473.779,219.932,472.27,219.932,470.058z M223.404,467.26c-1.509,0-2.256,1.274-2.314,2.358h4.643&#10;&#9;&#9;&#9;&#9;C225.718,468.564,225.015,467.26,223.404,467.26z" style="fill:#1D262D;"/>
			<path d="M233.35,473.603v-1.055c-0.527,0.718-1.392,1.23-2.388,1.23c-1.845,0-3.149-1.406-3.149-3.706&#10;&#9;&#9;&#9;&#9;c0-2.256,1.289-3.721,3.149-3.721c0.952,0,1.817,0.469,2.388,1.245v-3.765h1.098v9.77H233.35z M233.35,471.684v-3.208&#10;&#9;&#9;&#9;&#9;c-0.396-0.615-1.245-1.143-2.124-1.143c-1.421,0-2.27,1.172-2.27,2.739c0,1.567,0.849,2.724,2.27,2.724&#10;&#9;&#9;&#9;&#9;C232.105,472.797,232.954,472.299,233.35,471.684z" style="fill:#1D262D;"/>
			<path d="M239.692,473.603v-9.77h1.098v3.765c0.572-0.776,1.421-1.245,2.388-1.245&#10;&#9;&#9;&#9;&#9;c1.845,0,3.149,1.465,3.149,3.721c0,2.299-1.304,3.706-3.149,3.706c-0.996,0-1.86-0.513-2.388-1.23v1.055H239.692z&#10;&#9;&#9;&#9;&#9; M242.9,472.797c1.436,0,2.285-1.157,2.285-2.724c0-1.568-0.85-2.739-2.285-2.739c-0.864,0-1.728,0.527-2.109,1.143v3.208&#10;&#9;&#9;&#9;&#9;C241.171,472.299,242.036,472.797,242.9,472.797z" style="fill:#1D262D;"/>
			<path d="M247.528,475.375c0.161,0.073,0.425,0.117,0.601,0.117c0.483,0,0.806-0.161,1.055-0.747&#10;&#9;&#9;&#9;&#9;l0.469-1.069l-2.959-7.148h1.187l2.358,5.801l2.344-5.801h1.201l-3.545,8.51c-0.425,1.025-1.143,1.421-2.08,1.435&#10;&#9;&#9;&#9;&#9;c-0.234,0-0.601-0.044-0.805-0.103L247.528,475.375z" style="fill:#1D262D;"/>
		</g>
	</g>
</g>
</svg>